<svg id="Component_15_1" data-name="Component 15 – 1" xmlns="http://www.w3.org/2000/svg" width="324.749" height="333.599" viewBox="0 0 324.749 333.599">
  <path id="Path_7291" data-name="Path 7291" d="M122.577,100.267C181.161,154.552,239.8,95.791,239.8,162.009a119.9,119.9,0,0,1-239.8,0C0,95.791,63.992,45.983,122.577,100.267Z" transform="translate(84.951 -77.148)" fill="#de8706" opacity="0.2"/>
  <g id="Group_6501" data-name="Group 6501" transform="translate(-165 -751.62)">
    <g id="Group_3587" data-name="Group 3587" transform="translate(-28.637 -158.498)">
      <path id="Path_6599" data-name="Path 6599" d="M1111.345,476.65s-18.575,0-15.966,23.039l2,1.5s.983-2.449,1.859-4.729,6.83-7.54,6.83-7.54Z" transform="translate(-802.843 491.97)" fill="#ff5b7e"/>
      <path id="Path_6600" data-name="Path 6600" d="M699.97,1161.28c2,.045,58.444,0,58.444,0v57.661l-41.746,1.668s-17.246-8.013-16.138-9.684S699.97,1161.28,699.97,1161.28Z" transform="translate(-487.608 -54.189)" fill="#d9f0f3"/>
      <path id="Path_6601" data-name="Path 6601" d="M899.976,701.47h0l147.947.063-1.42,1.428a59.894,59.894,0,0,1,3.088,14.941c.667,8.537.334,86.092,0,88.226S990.146,860.2,990.146,860.2l-79.7-3.4a17.9,17.9,0,0,1-10.471,3.4h0c-10.376,0-18.786-8.96-18.786-20.011V721.481C881.192,710.43,889.6,701.47,899.976,701.47Z" transform="translate(-632.175 312.621)" fill="#b5e5ec"/>
      <path id="Path_6602" data-name="Path 6602" d="M1613.261,839.514h22.349a7.612,7.612,0,0,0,7.611-7.611V709.081a7.611,7.611,0,0,0-7.611-7.611h-22.349a7.611,7.611,0,0,0-7.611,7.611V831.9A7.61,7.61,0,0,0,1613.261,839.514Z" transform="translate(-1210.109 312.621)" fill="#d9f0f3"/>
      <rect id="Rectangle_508" data-name="Rectangle 508" width="102.526" height="62.075" transform="translate(331.588 1243.187) rotate(180)" fill="#d9f0f3"/>
      <path id="Path_6603" data-name="Path 6603" d="M626.117,1161.257c-9.91.291-18.114,8.515-18.69,18.759A20.1,20.1,0,0,0,617.5,1198.77a6.984,6.984,0,0,1,3.584,6.09v85.02a7.353,7.353,0,0,0,7.223,7.475h10.437a7.353,7.353,0,0,0,7.222-7.475V1181.212C645.967,1169.993,637.025,1160.935,626.117,1161.257Z" transform="translate(-413.756 -54.164)" fill="#b5e5ec"/>
      <path id="Path_6604" data-name="Path 6604" d="M742.738,1431.715H856.417a3.958,3.958,0,0,0,3.958-3.958v-29.149a3.957,3.957,0,0,0-3.958-3.958H742.738a3.957,3.957,0,0,0-3.958,3.958v29.149A3.958,3.958,0,0,0,742.738,1431.715Z" transform="translate(-518.569 -240.358)" fill="#b5e5ec"/>
      <path id="Path_6605" data-name="Path 6605" d="M748.57,1394.23c-1.1-.051-2.186-.146-3.307-.089a9.964,9.964,0,0,0-3.25.8,9.811,9.811,0,0,0-4.852,4.61,9.737,9.737,0,0,0-1.011,3.279c-.121,1.171-.085,2.243-.109,3.345l-.03,6.584.03,6.583c.024,1.1-.01,2.174.109,3.345a9.7,9.7,0,0,0,1.011,3.281,9.8,9.8,0,0,0,4.854,4.609,9.958,9.958,0,0,0,3.252.8c1.121.056,2.207-.039,3.307-.089-1.094-.071-2.206-.079-3.274-.208a9.757,9.757,0,0,1-7.346-5.5,9.457,9.457,0,0,1-.821-3.008c-.083-1.015-.028-2.142-.024-3.234l.03-6.583-.03-6.584c0-1.092-.059-2.219.024-3.234a9.7,9.7,0,0,1,8.167-8.507C746.364,1394.309,747.476,1394.3,748.57,1394.23Z" transform="translate(-516.359 -239.939)" fill="#daeef7"/>
      <path id="Path_6606" data-name="Path 6606" d="M1073.369,571.26s3.932,21.492-2.749,35.183c8.113,6.124,25.6,2.886,28.055,0,4.628-5.437-2.581-13.618-5.754-16.5a56.311,56.311,0,0,0-10.89-7.912C1078.148,579.961,1073.369,571.26,1073.369,571.26Z" transform="translate(-783.292 416.496)"/>
      <path id="Path_6607" data-name="Path 6607" d="M649.631,1774.584l.111,9.8a1.466,1.466,0,0,1-1.448,1.483l-22.95.261a1.66,1.66,0,0,1-.926-3.05l11.862-8.341S638.909,1772.6,649.631,1774.584Z" transform="translate(-426.733 -542.776)" fill="#de8706"/>
      <path id="Path_6608" data-name="Path 6608" d="M793.13,1742.61l3.355,9.209a1.466,1.466,0,0,1-.876,1.879l-21.566,7.854a1.661,1.661,0,0,1-1.887-2.571l8.994-12.008S787.457,1748.6,793.13,1742.61Z" transform="translate(-544.914 -517.941)" fill="#de8706"/>
      <path id="Path_6609" data-name="Path 6609" d="M1199.074,509.527l2.227,13.966,4.7-18.62s-6.594-3.2-6.885-2.037A52.193,52.193,0,0,0,1199.074,509.527Z" transform="translate(-885.689 471.283)" fill="#07085b"/>
      <path id="Path_6610" data-name="Path 6610" d="M1204.313,685.53l2.035,24.143-21.308-1.017,2.457-21.38Z" transform="translate(-874.569 325.337)" fill="#ffc0bb"/>
      <path id="Path_6611" data-name="Path 6611" d="M1191.41,697.443l1.169-10.167,16.815-1.745.706,8.361C1206.755,697.222,1200.744,700.675,1191.41,697.443Z" transform="translate(-879.651 325.337)" fill="#f99893"/>
      <path id="Path_6612" data-name="Path 6612" d="M733.375,1215.813s5.886,27.7-23.239,32.954-66.8,6.12-66.8,6.12l-5.042,69.231-15.2.774s-39.151-96.191,15.04-111.229l48.7.239,20.052-1.432s20.29-5.012,20.529-4.057S732.9,1216.291,733.375,1215.813Z" transform="translate(-415.366 -91.693)" fill="#303030"/>
      <path id="Path_6613" data-name="Path 6613" d="M894.219,1230.766s2.259,30.381-27.167,33.52-65.456-1.036-65.456-1.036l-10.02,68.688-15.222-.322s-32.114-98.764,23.019-109.856l49.055-.7,20.1.016s20.1.912,20.268,1.883S893.709,1231.209,894.219,1230.766Z" transform="translate(-541.125 -101.878)" fill="#303030"/>
      <path id="Path_6614" data-name="Path 6614" d="M960.437,763.736s-17.077.928-26.091,6.426c-9.975,6.086-31.756,62.825-31.756,62.825l20.371,23.868,43.289.317s32.466,17.5,52.838.955,9.815-70.755-3.254-84.887c-10.291-11.126-35.531-10.823-35.531-10.823S968.394,775.193,960.437,763.736Z" transform="translate(-649.247 264.002)" fill="#d9f0f3"/>
      <path id="Path_6615" data-name="Path 6615" d="M1032.959,878.49q-1.547,4.05-2.807,8.143a71.418,71.418,0,0,0-2.035,8.288,39.909,39.909,0,0,0-.562,4.205,30.655,30.655,0,0,0-.1,4.227c.1,2.818,4.281,16.077,5.509,18.7-1.734-2.328-6.282-15.7-6.588-18.614a30.43,30.43,0,0,1,.382-8.762c.273-1.436.595-2.86.991-4.26.415-1.4.855-2.781,1.387-4.134A44.459,44.459,0,0,1,1032.959,878.49Z" transform="translate(-747.859 171.405)" fill="#fff"/>
      <path id="Path_6616" data-name="Path 6616" d="M1357.831,906.78a83.665,83.665,0,0,0-1.468,10.05c-.174,1.687-.247,3.38-.344,5.073-.051,1.695-.091,3.392-.067,5.089a67.087,67.087,0,0,0,.836,10.157,33.376,33.376,0,0,0,2.955,9.729,49.838,49.838,0,0,1-1.942-9.868c-.37-3.327-.5-6.685-.54-10.038-.069-3.355.012-6.717.119-10.083S1357.651,910.162,1357.831,906.78Z" transform="translate(-1010.907 148.837)" fill="#fff"/>
      <g id="Group_1259" data-name="Group 1259" transform="translate(224.383 1038.405)">
        <path id="Path_6617" data-name="Path 6617" d="M917.93,1011.181l.516,6.07s6.191,2.757,10-.615l-.4-6.8Z" transform="translate(-885.868 -971.783)" fill="#ffc0bb"/>
        <path id="Path_6618" data-name="Path 6618" d="M928.279,1013.829l-.235-3.989-10.115,1.341.293,3.447A12.527,12.527,0,0,0,928.279,1013.829Z" transform="translate(-885.868 -971.783)" fill="#f99893"/>
        <path id="Path_6619" data-name="Path 6619" d="M994.614,916.48c-.463,2.122.538,4.142,2.239,4.512s3.455-1.05,3.918-3.172-.538-4.142-2.239-4.512S995.079,914.358,994.614,916.48Z" transform="translate(-946.952 -894.729)" fill="#f99893"/>
        <path id="Path_6620" data-name="Path 6620" d="M856.5,868.89a52.516,52.516,0,0,0,.334-7.9c-.038-.516-.049-1.031-.047-1.547a16.824,16.824,0,1,0-33.4,2.852,3.636,3.636,0,0,0-3.27.31c-1.814,1.219-2.049,4.043-.522,6.306s4.233,3.113,6.049,1.893a3.265,3.265,0,0,0,.661-.6c2.239,7.961,11.907,11.822,19.862,10.307C850.05,879.768,855.786,877.424,856.5,868.89Z" transform="translate(-806.617 -838.376)" fill="#ffc0bb"/>
        <path id="Path_6621" data-name="Path 6621" d="M943.44,930.49a7.082,7.082,0,0,0,.107,1.98,5.416,5.416,0,0,0,.279.979,2.564,2.564,0,0,0,.591.924c.332.257.479.332.576.57a.89.89,0,0,1-.051.716,2.75,2.75,0,0,1-1.369,1.171,2.244,2.244,0,0,0,1.8-.928,1.347,1.347,0,0,0,.186-1.155c-.134-.409-.35-.548-.716-.84a2.489,2.489,0,0,1-.469-.7,8.1,8.1,0,0,1-.35-.866C943.819,931.744,943.639,931.123,943.44,930.49Z" transform="translate(-906.196 -908.482)" fill="#f99893"/>
        <path id="Path_6622" data-name="Path 6622" d="M904.39,943.117a1.469,1.469,0,1,1-1.42-.932A1.468,1.468,0,0,1,904.39,943.117Z" transform="translate(-872.803 -917.811)" fill="#333"/>
        <path id="Path_6623" data-name="Path 6623" d="M966.02,932.767a1.469,1.469,0,1,1-1.42-.932A1.468,1.468,0,0,1,966.02,932.767Z" transform="translate(-921.968 -909.555)" fill="#333"/>
        <path id="Path_6624" data-name="Path 6624" d="M890.31,926.233a15.259,15.259,0,0,0-2.206.095,7.472,7.472,0,0,0-1.974.518,6.875,6.875,0,0,0-1.743,1.04c-.429.279-1.377,1.278-1.636,1.491a4.933,4.933,0,0,1,2.939-3.6,4.974,4.974,0,0,1,2.409-.356A4.534,4.534,0,0,1,890.31,926.233Z" transform="translate(-857.803 -904.419)"/>
        <path id="Path_6625" data-name="Path 6625" d="M951.88,916.056a4.508,4.508,0,0,1,1.782-1.539,4.956,4.956,0,0,1,2.379-.52,4.938,4.938,0,0,1,4.025,2.324c-.324-.109-1.561-.706-2.059-.815a6.825,6.825,0,0,0-2-.354,7.516,7.516,0,0,0-2.029.214A14.96,14.96,0,0,0,951.88,916.056Z" transform="translate(-912.951 -895.323)"/>
        <path id="Path_6626" data-name="Path 6626" d="M929.108,965.563c-.975-1.487-2.233-1.8-4.943-.307l-.025.012a5.726,5.726,0,0,1-4.233.508l-.026-.006c-2.989-.815-4.136-.208-4.731,1.466-.542,1.525,1.919,7.5,7.085,6.731q.789-.118,1.58-.19C929.016,973.3,930,966.918,929.108,965.563Z" transform="translate(-883.591 -935.437)" fill="#ff5b7e"/>
        <path id="Path_6627" data-name="Path 6627" d="M945.253,979.923a2.406,2.406,0,0,1-2.874,3.525,2.125,2.125,0,0,1-1.179-.965,2.407,2.407,0,0,1,2.874-3.525A2.123,2.123,0,0,1,945.253,979.923Z" transform="translate(-904.148 -947.04)" fill="#fff"/>
        <g id="Group_1258" data-name="Group 1258" transform="translate(35.301 33.13)">
          <path id="Path_6628" data-name="Path 6628" d="M935.5,992.742a4.077,4.077,0,1,1,3,.839A4.037,4.037,0,0,1,935.5,992.742Zm2.1-6.622a3.458,3.458,0,1,0,2.551.714A3.436,3.436,0,0,0,937.6,986.12Z" transform="translate(-933.944 -985.481)" fill="#fff"/>
        </g>
        <path id="Path_6629" data-name="Path 6629" d="M981.031,1178.47s10.572,1.663,13.905,6.929c0,0,3.517-4.805,6.2-3.465a3.272,3.272,0,0,1,1.42,2.83,8.683,8.683,0,0,1-7.211,9.2,33.268,33.268,0,0,1-10.924-.235C969.031,1191.3,981.031,1178.47,981.031,1178.47Z" transform="translate(-932.653 -1106.307)" fill="#de8706"/>
        <path id="Path_6630" data-name="Path 6630" d="M982.032,962.67s6.962-2.158,17.94-10.4c.415-2.9,1.1-7.433,1.349-7.554.348-.17.6.044,1.384,3.392a.282.282,0,0,0,.477.131c1.2-1.252,4.98-5.164,5.368-4.933.461.275-2.836,3.855-2.6,4.294s3.361-3.133,3.807-2.759-2.516,3.535-2.383,3.758,3.295-2.5,3.689-2.441-2.625,3.384-2.542,3.7,2.933-1.284,3.1-1.056.313.352-5.063,5.787c0,0-.522.382-1.088.862-.455,1.319-5.694,15.818-17.242,20.644C977.584,977.58,982.032,962.67,982.032,962.67Z" transform="translate(-936.269 -918.695)" fill="#ffc0bb"/>
        <path id="Path_6631" data-name="Path 6631" d="M867.582,1037.076l.006-.053a25.159,25.159,0,0,0-3.315-.273l-.039.041c-4.579,4.664-10.24.356-10.24.356-2.154.174-3.893.356-4.668.441l-.473.014s-6.96,6.521-8.792,13.584c0,0-10.643,29.938,9.9,35.2s21.935-3.511,21.935-3.511,8.145-5.174,10.088-12.105S875.531,1043.667,867.582,1037.076Z" transform="translate(-821.55 -993.251)" fill="#de8706"/>
        <path id="Path_6632" data-name="Path 6632" d="M926.437,1212.81a3.5,3.5,0,0,0-.9-1.945,2.473,2.473,0,0,0-2.11-.6,5.04,5.04,0,0,0-1.976.837,10.8,10.8,0,0,0-1.606,1.343,15.906,15.906,0,0,0-1.112,1.234,10.58,10.58,0,0,0-2.648-2.512,19.071,19.071,0,0,0-3.557-1.883,29.475,29.475,0,0,0-3.8-1.258,32.04,32.04,0,0,0-3.914-.765c1.294.292,2.577.633,3.833,1.048a35.2,35.2,0,0,1,3.693,1.408,20.364,20.364,0,0,1,3.416,1.922,10,10,0,0,1,2.7,2.718l.235.368.269-.35a13.083,13.083,0,0,1,2.815-2.787,4.469,4.469,0,0,1,1.733-.787,2.019,2.019,0,0,1,1.695.423,3.119,3.119,0,0,1,.833,1.671,9.009,9.009,0,0,1,.17,1.986,21.245,21.245,0,0,1-.461,4.029,17.919,17.919,0,0,0,.489-1.984,17.614,17.614,0,0,0,.275-2.035A9.325,9.325,0,0,0,926.437,1212.81Z" transform="translate(-875.402 -1129.274)" fill="#fff"/>
        <path id="Path_6633" data-name="Path 6633" d="M786.525,949.271s-6.537-3.222-16.083-13.084c.046-2.925.081-7.514-.146-7.672-.318-.222-.6-.051-1.9,3.133a.281.281,0,0,1-.492.057c-.983-1.424-4.108-5.882-4.526-5.714-.5.2,2.194,4.249,1.9,4.648s-2.827-3.62-3.325-3.321,1.93,3.885,1.764,4.084-2.86-2.989-3.26-2.989,2.063,3.752,1.93,4.051-2.694-1.727-2.894-1.527-.366.3,4.092,6.509c0,0,.455.459.938,1.022.243,1.375,3.137,16.512,13.786,23.089C788.574,964.693,786.525,949.271,786.525,949.271Z" transform="translate(-759.408 -904.891)" fill="#ffc0bb"/>
        <path id="Path_6634" data-name="Path 6634" d="M883.715,833.316C894.759,833.1,894.7,826.4,894.7,826.4l-.3.3a6.973,6.973,0,0,1-2.559.682c1.9-4.749-3.8-5.7-3.8-5.7s3.8,3.8-4.757,3.8c-5.3,0-8.052,1.092-9.375,1.925-2.866,1.8-.261,4.492,1.167,5.4a10.8,10.8,0,0,0,3.681,1.491,18.2,18.2,0,0,0,5.863.233c.645-.1,1.286-.19,1.922-.326-.651-.069-1.292-.095-1.933-.125a41.27,41.27,0,0,1-5.651-.678,14.9,14.9,0,0,1-2.472-.736A26.393,26.393,0,0,0,883.715,833.316Z" transform="translate(-849.72 -821.68)"/>
      </g>
      <path id="Path_6635" data-name="Path 6635" d="M1018.794,1149.2c.127-1.007,7.777-2.132,10.59-2.277,2.13-.109,16.253-.583,21.057-.8l-.354,1.236.073,5.455.789,3.614c-4.215.267-14.518.67-16.662,1.094a52.666,52.666,0,0,0-7.838,2.727s-2.067-.469.56-1.6a12.591,12.591,0,0,0,4.217-3.022c.36-.4-.03-1.121-.293-1.052-7.154,1.875-7.888,2.184-7.888,2.184s-8.408-.047-.048-1.936c5.012-1.133,6.806-1.79,7.253-2.352.19-.239-.149-1.054-.455-1.072-4.34-.267-12.133,1.27-10,.261,1.742-.823,7.223-1.725,9.354-2.065.131-.02.342-.815-.241-.863C1024.776,1148.381,1018.676,1150.133,1018.794,1149.2Z" transform="translate(-741.947 -42.096)" fill="#ffc0bb"/>
      <path id="Path_6636" data-name="Path 6636" d="M1215.225,1100.91c-1.76.429-3.5.92-5.265,1.288-1.756.419-3.535.724-5.3,1.094q-5.321.971-10.677,1.711c-3.574.469-7.154.9-10.742,1.248s-7.21.66-10.748.858l-.475.026-.105.413a29.467,29.467,0,0,0-.653,3.57,28.549,28.549,0,0,0-.21,3.6,22.98,22.98,0,0,0,.313,3.608,16.618,16.618,0,0,0,1.048,3.481l.041.1.077.051,3.932,2.637c1.311.88,2.626,1.753,3.952,2.609q-1.848-1.48-3.728-2.92l-3.748-2.893.117.148a15.819,15.819,0,0,1-.823-3.345,23.046,23.046,0,0,1-.168-3.463,32.685,32.685,0,0,1,.316-3.465,28.157,28.157,0,0,1,.7-3.39l-.58.439c1.869-.049,3.641-.17,5.461-.3s3.614-.277,5.417-.467c3.606-.372,7.2-.821,10.784-1.393s7.14-1.276,10.669-2.11c1.758-.449,3.517-.882,5.247-1.428C1211.814,1102.128,1213.521,1101.517,1215.225,1100.91Z" transform="translate(-863.409 -6.03)" fill="#fff"/>
      <path id="Path_6637" data-name="Path 6637" d="M884.814,1407.434c.841-.037,1.681-.065,2.516-.146s1.667-.188,2.49-.317c.415-.071.831-.15,1.244-.241a9.322,9.322,0,0,1-1.159-.51,10.268,10.268,0,0,1-2.047-1.426,12.589,12.589,0,0,1-1.62-1.869,12.412,12.412,0,0,1-1.177-2.146l.7.995c.255.314.487.641.756.936a12.243,12.243,0,0,0,1.7,1.663,11.564,11.564,0,0,0,1.978,1.278,8.276,8.276,0,0,0,2.176.756l1.325.229-1.256.388a15.738,15.738,0,0,1-2.536.518,24.6,24.6,0,0,1-2.548.194c-.849.022-1.7.026-2.546-.026s-1.691-.125-2.528-.243C883.13,1407.463,883.973,1407.473,884.814,1407.434Z" transform="translate(-633.045 -245.249)" fill="#daeef7"/>
      <path id="Path_6638" data-name="Path 6638" d="M1330.52,1161.26h92.6c.356-.01.712-.01,1.072,0,9.911.291,18.114,8.517,18.69,18.761a20.107,20.107,0,0,1-10.076,18.755,6.985,6.985,0,0,0-3.584,6.09V1289.9a7.353,7.353,0,0,1-7.223,7.475H1324.11Z" transform="translate(-985.512 -54.167)" fill="#d9f0f3"/>
      <path id="Path_6639" data-name="Path 6639" d="M1277.5,1161.257c9.911.291,18.114,8.517,18.691,18.761a20.107,20.107,0,0,1-10.076,18.755,6.986,6.986,0,0,0-3.584,6.09v85.028a7.353,7.353,0,0,1-7.222,7.476h-10.436a7.353,7.353,0,0,1-7.223-7.476V1181.214C1257.654,1169.993,1266.594,1160.935,1277.5,1161.257Z" transform="translate(-932.494 -54.164)" fill="#b5e5ec"/>
      <path id="Path_6640" data-name="Path 6640" d="M1138.409,439.853s2.235-23.2-13.836-30.462c-14.069-6.359-35.13-.781-40.265,15.568s2.5,24.562,2.5,24.562,14.833,4.175,21.568,3.1,20.26-8.7,22.89-9.668S1138.409,439.853,1138.409,439.853Z" transform="translate(-792.795 547.67)"/>
      <path id="Path_6641" data-name="Path 6641" d="M1112.21,509.639a22.039,22.039,0,0,1-1.943-3.612,42.159,42.159,0,0,1-2.939-10.309c-.111-.692-.263-1.373-.427-2.055a22.769,22.769,0,1,1,44.856-6.788,4.922,4.922,0,0,1,4.4-.625c2.773,1.034,3.973,4.68,2.682,8.147s-4.587,5.437-7.36,4.4a4.363,4.363,0,0,1-1.058-.579c-.429,11.195-9,20.359-19.943,20.871a20.422,20.422,0,0,1-14.2-4.882,9.711,9.711,0,0,1-.813-.672A19.529,19.529,0,0,1,1112.21,509.639Z" transform="translate(-811.727 500.822)" fill="#ffc0bb"/>
      <path id="Path_6642" data-name="Path 6642" d="M1186.771,578.6c-.044,1.3-.054,2.577-.121,3.825a8.472,8.472,0,0,1-.7,3.384l-.1.138a1.768,1.768,0,0,1-.121.17,3.128,3.128,0,0,0-.344.492,2.544,2.544,0,0,0-.34,1.2,2.686,2.686,0,0,0,.993,2.107,4.389,4.389,0,0,0,3.918.765,5.424,5.424,0,0,1-3.2-1.495,1.721,1.721,0,0,1-.471-1.307,1.441,1.441,0,0,1,.222-.619,1.955,1.955,0,0,1,.21-.289l.164-.216.182-.253a5.1,5.1,0,0,0,.617-2.081,10.748,10.748,0,0,0-.008-2.006A13.611,13.611,0,0,0,1186.771,578.6Z" transform="translate(-874.572 410.64)" fill="#f99893"/>
      <path id="Path_6643" data-name="Path 6643" d="M1230.922,578.928a1.987,1.987,0,1,0,1.891-2.077A1.984,1.984,0,0,0,1230.922,578.928Z" transform="translate(-911.17 412.037)" fill="#333"/>
      <path id="Path_6644" data-name="Path 6644" d="M1146.891,588.4a1.987,1.987,0,1,0,1.891-2.077A1.984,1.984,0,0,0,1146.891,588.4Z" transform="translate(-844.135 404.483)" fill="#333"/>
      <path id="Path_6645" data-name="Path 6645" d="M1218.6,555.633a20.5,20.5,0,0,1,2.906-.7,10.055,10.055,0,0,1,2.761-.061,9.307,9.307,0,0,1,2.656.7c.457.141.858.414,1.323.607.447.222.861.506,1.363.726a8.417,8.417,0,0,0-.882-1.325,6.825,6.825,0,0,0-1.2-1.082,6.423,6.423,0,0,0-3.08-1.185,6.7,6.7,0,0,0-3.266.435A6.093,6.093,0,0,0,1218.6,555.633Z" transform="translate(-901.342 430.844)"/>
      <path id="Path_6646" data-name="Path 6646" d="M1133.7,564.064a6.118,6.118,0,0,0-2.892-1.343,6.716,6.716,0,0,0-3.289.208,6.409,6.409,0,0,0-2.791,1.76,6.788,6.788,0,0,0-.969,1.295,8.374,8.374,0,0,0-.609,1.472c.449-.314.8-.672,1.2-.977.416-.279.756-.625,1.179-.854a9.362,9.362,0,0,1,2.468-1.205,10.017,10.017,0,0,1,2.72-.475A20.732,20.732,0,0,1,1133.7,564.064Z" transform="translate(-825.197 423.398)"/>
      <path id="Path_6647" data-name="Path 6647" d="M1168.3,486.721s-.235-11.559-7.061-15.566-16.1,3.918-29.291-6.193c0,0,2.051-8.831,19.083-10.459s25.434,13.244,25.615,22.837C1176.648,477.339,1170.974,484.379,1168.3,486.721Z" transform="translate(-832.217 509.735)"/>
      <path id="Path_6648" data-name="Path 6648" d="M1127.513,485.326s-1.033-.548-.562-5.416c0,0-1.1,2.346-.219,6.412C1128.086,492.527,1127.513,485.326,1127.513,485.326Z" transform="translate(-827.781 489.369)" fill="#ffc0bb"/>
      <path id="Path_6649" data-name="Path 6649" d="M1287.7,447.729s-2.306-36.576-34.209-39.009l25.933,27.388,5.135,15.151Z" transform="translate(-929.175 546.161)"/>
      <rect id="Rectangle_509" data-name="Rectangle 509" width="4.342" height="62.075" transform="translate(487.728 1243.201) rotate(180)" fill="#de8706"/>
      <rect id="Rectangle_510" data-name="Rectangle 510" width="4.34" height="62.075" transform="translate(463.682 1243.201) rotate(180)" fill="#de8706"/>
      <rect id="Rectangle_511" data-name="Rectangle 511" width="4.34" height="62.075" transform="translate(394.302 1181.127)" fill="#de8706"/>
      <rect id="Rectangle_512" data-name="Rectangle 512" width="4.342" height="62.075" transform="translate(418.346 1181.127)" fill="#de8706"/>
      <rect id="Rectangle_513" data-name="Rectangle 513" width="107.123" height="13.383" transform="translate(494.598 1190.396) rotate(180)" fill="#feb546"/>
      <rect id="Rectangle_514" data-name="Rectangle 514" width="115.513" height="5.164" transform="translate(498.793 1178) rotate(180)" fill="#db962c"/>
      <path id="Path_6650" data-name="Path 6650" d="M1190.614,661.295a5.28,5.28,0,0,0-4.355.578s-2.281-1.428-4.079-.065a4.336,4.336,0,0,0,4.583,3.169A3.872,3.872,0,0,0,1190.614,661.295Z" transform="translate(-872.288 344.856)" fill="#f99893" opacity="0.3"/>
      <path id="Path_6651" data-name="Path 6651" d="M1186.77,656.19a11.364,11.364,0,0,1-1.331.937,11.176,11.176,0,0,1-1.426.756,9.7,9.7,0,0,1-3.076.823,8.276,8.276,0,0,1-3.149-.348,11.585,11.585,0,0,1-2.889-1.442,9.836,9.836,0,0,0,1.3,1,9.131,9.131,0,0,0,1.481.742,7.747,7.747,0,0,0,1.616.415,8.409,8.409,0,0,0,1.673.044,8.569,8.569,0,0,0,3.177-.949A9.364,9.364,0,0,0,1186.77,656.19Z" transform="translate(-866.48 348.743)" fill="#f99893"/>
      <path id="Path_6652" data-name="Path 6652" d="M1271.976,1294.243l-7.68-.132-1.919-.026a11.451,11.451,0,0,1-1.889-.115,6.889,6.889,0,0,1-3.357-1.578,7.248,7.248,0,0,1-2.1-3.1,7.36,7.36,0,0,1-.39-1.857c-.037-.623-.014-1.3-.009-1.955l.1-7.937.235-31.75c.1-10.584.083-21.166.121-31.75l.077-31.75-.008-3.969.087-1.9c.063-.629.178-1.252.261-1.879a19.414,19.414,0,0,1,2.792-6.976,18.471,18.471,0,0,1,11.986-8.147l1.828-.249c.615-.036,1.236-.036,1.852-.059l3.833-.014,7.68-.02q7.678-.006,15.359-.083l30.719-.245c10.24-.146,20.479-.23,30.717-.429-10.238-.2-20.477-.283-30.713-.429l-30.71-.242q-7.679-.07-15.355-.083l-7.678-.02-3.845-.006c-.661.018-1.323.016-1.984.055l-1.98.259a20.036,20.036,0,0,0-13.05,8.776,21.085,21.085,0,0,0-3.076,7.58c-.1.682-.224,1.361-.3,2.047l-.1,2.063-.008,3.969.077,31.75c.038,10.584.02,21.166.121,31.75l.235,31.75.1,7.937c.01.663,0,1.313.059,2.01a7.945,7.945,0,0,0,.469,2,7.72,7.72,0,0,0,2.324,3.266,7.262,7.262,0,0,0,3.586,1.578,11.4,11.4,0,0,0,1.942.069l1.919-.027Z" transform="translate(-929.159 -51.206)" fill="#fff"/>
      <g id="Group_1263" data-name="Group 1263" transform="translate(403.842 1134.331)">
        <g id="Group_1260" data-name="Group 1260" transform="translate(10.18)">
          <path id="Path_6654" data-name="Path 6654" d="M1747.529,1296.245h1.869a2.2,2.2,0,0,0-1.1-.285h-46.837c-2.451,0-4.438,1.5-4.438,3.356v2.132c0,1.853,1.986,3.355,4.438,3.355l46.313-.012Z" transform="translate(-1697.02 -1295.96)" fill="#de8706"/>
          <path id="Path_6655" data-name="Path 6655" d="M1798.553,1296c-2.344,0-4.243,1.436-4.243,3.21v2.409c0,1.772,1.9,3.21,4.243,3.21h29.157v-.538h-.121l-7.412-.53-1.5-4.446s2.893-2.455,3.08-2.52,5.831-.255,5.831-.255l.121,0V1296Z" transform="translate(-1774.632 -1295.992)" fill="#bc7710"/>
          <path id="Path_6656" data-name="Path 6656" d="M1829.545,1302.519a4.859,4.859,0,0,1,1.776-3.859h-28.443c-2.152,0-3.9,1.319-3.9,2.947v1.855c0,1.628,1.746,2.947,3.9,2.947h28.443S1829.545,1305.791,1829.545,1302.519Z" transform="translate(-1778.358 -1298.114)" fill="#daeef7"/>
          <path id="Path_6657" data-name="Path 6657" d="M1798.97,1301.609v1.855a2.272,2.272,0,0,0,.114.706c.958-1.776,2.8-3.485,6.3-4.035,8.171-1.284,25.929-1.474,25.929-1.474h-28.443C1800.716,1298.662,1798.97,1299.98,1798.97,1301.609Z" transform="translate(-1778.35 -1298.114)" fill="#daeef7"/>
        </g>
        <g id="Group_1261" data-name="Group 1261" transform="translate(2.753 17.602)">
          <path id="Path_6658" data-name="Path 6658" d="M1717.466,1383.348h2.116a2.314,2.314,0,0,0-1.25-.358h-53.009c-2.773,0-5.022,1.881-5.022,4.2v2.668c0,2.32,2.249,4.2,5.022,4.2l52.417-.014Z" transform="translate(-1660.3 -1382.99)" fill="#de8706"/>
          <path id="Path_6659" data-name="Path 6659" d="M1775.212,1383.032c-2.651,0-4.8,1.8-4.8,4.017v3.016c0,2.219,2.15,4.017,4.8,4.017h33v-.676h-.136l-8.39-.666-1.695-5.564s3.273-3.074,3.487-3.153,6.6-.32,6.6-.32l.135,0v-.672h-33Z" transform="translate(-1748.14 -1383.022)" fill="#bc7710"/>
          <path id="Path_6660" data-name="Path 6660" d="M1810.274,1391.21a6.285,6.285,0,0,1,2.01-4.83h-32.193c-2.435,0-4.411,1.653-4.411,3.689v2.32c0,2.037,1.974,3.689,4.411,3.689h32.193S1810.274,1395.306,1810.274,1391.21Z" transform="translate(-1752.343 -1385.694)" fill="#daeef7"/>
          <path id="Path_6661" data-name="Path 6661" d="M1775.68,1390.069v2.32a3.089,3.089,0,0,0,.129.886,9.155,9.155,0,0,1,7.127-5.05c9.249-1.606,29.347-1.845,29.347-1.845h-32.193C1777.654,1386.38,1775.68,1388.031,1775.68,1390.069Z" transform="translate(-1752.344 -1385.694)" fill="#daeef7"/>
        </g>
        <g id="Group_1262" data-name="Group 1262" transform="translate(0.752 8.82)">
          <path id="Path_6662" data-name="Path 6662" d="M1656.428,1339.853h-2.118a2.754,2.754,0,0,1,1.25-.283h53.03c2.775,0,5.024,1.492,5.024,3.333v2.118c0,1.841-2.249,3.333-5.024,3.333l-52.437-.012Z" transform="translate(-1653.521 -1339.57)" fill="#02ccc0"/>
          <path id="Path_6663" data-name="Path 6663" d="M1683.422,1339.61c2.654,0,4.8,1.428,4.8,3.188v2.393c0,1.759-2.15,3.188-4.8,3.188H1650.41v-.536h.135l8.392-.528,1.7-4.415s-3.274-2.439-3.487-2.5-6.6-.253-6.6-.253h-.135v-.532h33.012Z" transform="translate(-1650.41 -1339.602)" fill="#06bfad"/>
          <path id="Path_6664" data-name="Path 6664" d="M1653.07,1346.083a4.7,4.7,0,0,0-2.01-3.833h32.205c2.437,0,4.413,1.311,4.413,2.927v1.843c0,1.616-1.976,2.926-4.413,2.926H1651.06S1653.07,1349.333,1653.07,1346.083Z" transform="translate(-1650.928 -1341.708)" fill="#daeef7"/>
          <path id="Path_6665" data-name="Path 6665" d="M1687.67,1345.187v1.843a1.974,1.974,0,0,1-.129.7c-1.086-1.764-3.167-3.46-7.132-4.007-9.253-1.274-29.359-1.464-29.359-1.464h32.205C1685.694,1342.26,1687.67,1343.571,1687.67,1345.187Z" transform="translate(-1650.921 -1341.716)" fill="#daeef7"/>
          <path id="Path_6666" data-name="Path 6666" d="M1879.684,1345.021V1342.9c0-1.841-2.25-3.333-5.024-3.333h5.036c2.775,0,5.024,1.492,5.024,3.333v2.117c0,1.841-2.25,3.333-5.024,3.333l-4.969,0C1877.469,1348.328,1879.684,1346.845,1879.684,1345.021Z" transform="translate(-1829.304 -1339.57)" fill="#55769f" opacity="0.5"/>
        </g>
        <path id="Path_6667" data-name="Path 6667" d="M1653.191,1438.137h-2.282a2.9,2.9,0,0,1,1.349-.318h57.168c2.991,0,5.416,1.667,5.416,3.724v2.365c0,2.057-2.425,3.723-5.416,3.723l-56.529-.014Z" transform="translate(-1650.056 -1409.128)" fill="#02ccc0"/>
        <path id="Path_6668" data-name="Path 6668" d="M1682.281,1437.87c2.86,0,5.18,1.594,5.18,3.562v2.674c0,1.966-2.318,3.562-5.18,3.562h-35.589v-.6h.148l9.047-.588,1.828-4.933s-3.529-2.726-3.76-2.795-7.117-.283-7.117-.283l-.148,0v-.595h35.591Z" transform="translate(-1646.69 -1409.168)" fill="#06b8a6"/>
        <path id="Path_6669" data-name="Path 6669" d="M1649.568,1445.112a5.273,5.273,0,0,0-2.168-4.282h34.719c2.627,0,4.757,1.464,4.757,3.27v2.057c0,1.806-2.13,3.271-4.757,3.271H1647.4S1649.568,1448.742,1649.568,1445.112Z" transform="translate(-1647.256 -1411.529)" fill="#daeef7"/>
        <path id="Path_6670" data-name="Path 6670" d="M1686.876,1444.093v2.057a2.3,2.3,0,0,1-.139.785c-1.171-1.97-3.416-3.867-7.688-4.478-9.975-1.424-31.649-1.636-31.649-1.636h34.719C1684.745,1440.822,1686.876,1442.287,1686.876,1444.093Z" transform="translate(-1647.256 -1411.521)" fill="#daeef7"/>
      </g>
      <path id="Path_6671" data-name="Path 6671" d="M1258.9,454.37c7.524,1.915,22.586,9.106,22.586,9.106,5.983,12.141,10.7,31.194,9.838,46.719-20.733,9.941-37.838,3.216-37.838,3.216,11.678-14.247,14.447-40.32,6.112-48.912A50.139,50.139,0,0,0,1258.9,454.37Z" transform="translate(-929.175 509.744)"/>
    </g>
  </g>
</svg>
