<svg id="Component_29_1" data-name="Component 29 – 1" xmlns="http://www.w3.org/2000/svg" width="65.523" height="55.304" viewBox="0 0 65.523 55.304">
  <path id="Path_4858" data-name="Path 4858" d="M308.038,311.627c.722-1.468,1.421-2.883,2.115-4.3.473-.965.962-1.923,1.4-2.9a2.881,2.881,0,0,1,2.025-1.654,17.508,17.508,0,0,1,8.99.018,2.765,2.765,0,0,1,2.048,1.907q2.794,8.454,5.614,16.9a1.919,1.919,0,0,1-.467,2.215,1.63,1.63,0,0,1-2.03.294,2.726,2.726,0,0,1-1.063-1.3c-.964-2.713-1.847-5.455-2.76-8.186a.953.953,0,0,0-.217-.389c-.11,1.135-.505,2.239-.082,3.4a47.4,47.4,0,0,1,2.92,14.673c0,.1.025.191.053.4.62,0,1.243.007,1.867,0,1.271-.018,2.541-.046,3.813-.065a1.811,1.811,0,0,1,1.953,1.678,1.752,1.752,0,0,1-1.678,1.932q-5.662.511-11.325.976a1.568,1.568,0,0,1-.992-.144c-.793-.612-1.622-.333-2.45-.225-.8.1-1.6.241-2.393.363a2.365,2.365,0,0,1-2.019-.644,1.52,1.52,0,0,0-.872-.352c-.994-.043-1.992-.016-2.99-.016,0-1.1-.026-2.115,0-3.134a50.524,50.524,0,0,1,2.922-15.422,4.863,4.863,0,0,0,.175-1.853,23.149,23.149,0,0,0-.521-3.736c-.407.812-.815,1.621-1.218,2.434-.185.372-.347.756-.54,1.123a1.9,1.9,0,0,1-3.172.524c-1.359-1.3-2.689-2.637-4.033-3.958-.68-.669-1.374-1.324-2.038-2.01a1.913,1.913,0,0,1-.075-2.759,1.864,1.864,0,0,1,2.694.04c1.312,1.245,2.59,2.53,3.883,3.793C307.7,311.36,307.837,311.458,308.038,311.627Z" transform="translate(-268.704 -288.875)" fill="#de8706"/>
  <path id="Path_4859" data-name="Path 4859" d="M200.859,443.647c.975-.963,2.048-.258,3.052-.487a9.247,9.247,0,0,1,1.246-4.334,15.6,15.6,0,0,0,.941-3.606,1.12,1.12,0,0,0-.73-1.343c-1.5-.662-2.966-1.384-4.442-2.091-.75-.358-1-.913-.7-1.517.283-.572.85-.725,1.574-.39,1.4.648,2.779,1.321,4.183,1.954a1.228,1.228,0,0,0,.807.068,9.935,9.935,0,0,1,5.634-.109,1.236,1.236,0,0,0,.9-.154c1.148-.79,2.253-1.64,3.384-2.456a1.09,1.09,0,0,1,1.625.079c.405.524.269,1.13-.4,1.628-1.255.934-2.512,1.867-3.789,2.773a1.544,1.544,0,0,0-.653,1.791,18.139,18.139,0,0,0,1.423,4.05,18.839,18.839,0,0,1,1.122,3.475c.479,0,1.152,0,1.826,0,.837,0,1.28.316,1.307.95.025.612-.361,1-1.139,1.072-1.9.178-3.8.369-5.7.477a1.99,1.99,0,0,1-1.21-.464,1.51,1.51,0,0,0-1.966.151,1.393,1.393,0,0,1-1.5.661c-.944-.128-1.894-.223-2.838-.357a1.123,1.123,0,0,1-.571-.257A4.839,4.839,0,0,0,200.859,443.647Z" transform="translate(-183.088 -396.949)" fill="#de8706"/>
  <path id="Path_4860" data-name="Path 4860" d="M383.73,224.054a6.289,6.289,0,1,1,6.355-6.219A6.225,6.225,0,0,1,383.73,224.054Z" transform="translate(-334.448 -211.477)" fill="#de8706"/>
  <path id="Path_4861" data-name="Path 4861" d="M130.007,462.05l4.514,4.21-1.192.075v6.543h-2.274c0-.876.006-1.725,0-2.573-.009-.974-.484-1.515-1.305-1.506-.8.007-1.246.518-1.26,1.471-.012.851,0,1.7,0,2.6h-2.092v-6.536l-1-.06Z" transform="translate(-119.341 -425.264)" fill="#de8706"/>
  <path id="Path_4862" data-name="Path 4862" d="M181.362,540.36a4.115,4.115,0,1,1,4.1-4.111A4.171,4.171,0,0,1,181.362,540.36Z" transform="translate(-163.55 -485.056)" fill="#de8706"/>
  <path id="Path_4863" data-name="Path 4863" d="M238.72,392.219a4,4,0,0,1,3.976-4.05,4.053,4.053,0,0,1,4.058,4.061,4,4,0,0,1-3.956,3.99A3.96,3.96,0,0,1,238.72,392.219Z" transform="translate(-216.033 -362.229)" fill="#de8706"/>
  <path id="Path_4864" data-name="Path 4864" d="M86.766,534.012H83.234a1,1,0,0,0-1.437-.219c-.133.065-.2.215-.392.481-.06.1-.237.3-.665.03v-1.828c.618,0,1.2-.026,1.775.009.443.026.774-.072.89-.533.291-1.152,3.773-1.315,4.276.037.144.386.335.543.74.495a7.6,7.6,0,0,1,.843-.006v1.833c-.65.437-.5-.524-1.122-.6S87.135,533.417,86.766,534.012Z" transform="translate(-80.74 -483.804)" fill="#de8706"/>
  <circle id="Ellipse_155" data-name="Ellipse 155" cx="0.759" cy="0.759" r="0.759" transform="translate(0.924 49.874)" fill="#de8706"/>
  <circle id="Ellipse_156" data-name="Ellipse 156" cx="0.759" cy="0.759" r="0.759" transform="translate(5.987 49.874)" fill="#de8706"/>
</svg>
