<svg id="Component_35_1" data-name="Component 35 – 1" xmlns="http://www.w3.org/2000/svg" width="48.762" height="48.762" viewBox="0 0 48.762 48.762">
  <path id="Icon_awesome-check-circle" data-name="Icon awesome-check-circle" d="M49.324,24.943A24.381,24.381,0,1,1,24.943.563,24.381,24.381,0,0,1,49.324,24.943Zm-27.2,12.91L40.212,19.764a1.573,1.573,0,0,0,0-2.224l-2.224-2.224a1.573,1.573,0,0,0-2.225,0L21.011,30.067,14.124,23.18a1.573,1.573,0,0,0-2.225,0L9.674,25.4a1.573,1.573,0,0,0,0,2.224L19.9,37.853a1.573,1.573,0,0,0,2.225,0Z" transform="translate(-0.563 -0.563)" fill="#3d99a7"/>
  <path id="Icon_awesome-check" data-name="Icon awesome-check" d="M11.123,28.52.48,17.876a1.638,1.638,0,0,1,0-2.316L2.8,13.244a1.637,1.637,0,0,1,2.316,0l7.17,7.17L27.639,5.057a1.638,1.638,0,0,1,2.316,0L32.27,7.373a1.638,1.638,0,0,1,0,2.316L13.439,28.52A1.638,1.638,0,0,1,11.123,28.52Z" transform="translate(7.98 9.059)" fill="#fff"/>
</svg>
