<svg id="Component_20_1" data-name="Component 20 – 1" xmlns="http://www.w3.org/2000/svg" width="502.602" height="327.462" viewBox="0 0 502.602 327.462">
  <path id="Path_7150" data-name="Path 7150" d="M441.7,274.385q-.868,4.564-2.082,9.035c-.088.346-.186.687-.284,1.033H428.08a3.62,3.62,0,0,0-3.616,3.616v32.089c-.341.635-.687,1.266-1.033,1.9-1.787,3.254-3.647,6.473-5.548,9.65A366.84,366.84,0,0,1,292,457.515l3.058-6.9-3.368-.232c-24.408-1.669-48.9-3.518-72.733-9-24.935-5.739-49.327-15.693-68.869-32.2s-33.877-40.086-35.866-65.594a74.843,74.843,0,0,1,2.619-26.04c4.582-16.282,14.593-30.932,29.036-39.6,22.688-13.612,52.282-10.838,76.2.486s43.377,30.054,62.381,48.465a240.94,240.94,0,0,0-77.956-81.37c-10.621-6.8-21.892-12.852-30.922-21.66s-15.683-21.143-14.087-33.649c1.813-14.185,13.431-24.95,25.069-33.252,4.649-3.316,9.448-6.462,14.4-9.355,13.963-8.182,29.067-14.355,45.019-16.644,21.608-3.1,44.947,1.607,61.513,15.823,18.664,16.019,26.319,41.853,25.591,66.565,11.5-16.716,29.233-29.512,49.26-30.054,20.792-.558,40.556,12.579,50.97,30.586S445.592,253.955,441.7,274.385Z" transform="translate(-114.009 -130.052)" fill="#d9f0f3"/>
  <path id="Path_7151" data-name="Path 7151" d="M492.912,400.619c12.178-1.072,23.427-2.325,35.228-5.665,11.439-3.237,22.446-8.655,30.589-17.5,8.758-9.516,13.486-21.874,16.822-34.177,1.86-6.859,3.388-13.814,4.83-20.771q2.347-11.323,4.17-22.746,3.63-22.738,5.183-45.744.188-2.793.344-5.587c.065-1.149-1.723-1.146-1.787,0Q587.014,271.1,583.7,293.6c-2.18,14.738-4.97,29.412-8.509,43.885-3,12.262-6.881,24.714-14.57,34.922-7.211,9.572-17.626,15.827-28.872,19.566-11.443,3.806-23.509,5.325-35.467,6.455-1.467.139-1.9.271-3.369.4-1.137.1-1.148,1.888,0,1.787Z" transform="translate(-296.768 -186.861)" fill="#b5e5ec"/>
  <path id="Path_7152" data-name="Path 7152" d="M120.684,493.886a193.722,193.722,0,0,1,45.3,7.983,195.789,195.789,0,0,1,42.192,18.365,191.009,191.009,0,0,1,35.53,26.751,195.7,195.7,0,0,1,27.754,33.093,193.764,193.764,0,0,1,19.86,38.5q.944,2.485,1.818,5c.377,1.079,2.1.615,1.724-.475a195.6,195.6,0,0,0-18.973-39.459,198.148,198.148,0,0,0-27.224-34.3,193.178,193.178,0,0,0-34.755-27.736,197.287,197.287,0,0,0-87.6-29.122q-2.813-.236-5.632-.388c-1.149-.063-1.146,1.725,0,1.787Z" transform="translate(-116.82 -305.075)" fill="#b5e5ec"/>
  <path id="Path_7153" data-name="Path 7153" d="M282.684,166.438a105.275,105.275,0,0,1,27.637,13.505A129.786,129.786,0,0,1,333.914,200.9a173.7,173.7,0,0,1,19.537,26.924A229.7,229.7,0,0,1,368.984,259.4,285.745,285.745,0,0,1,380.3,293.75a322.952,322.952,0,0,1,10.347,71.981,285.915,285.915,0,0,1-1.022,34.623,220.54,220.54,0,0,1-5.2,31.876,150.608,150.608,0,0,1-9.378,27.562q-1.393,3.017-2.956,5.951c-.541,1.015,1,1.919,1.543.9a137.771,137.771,0,0,0,10.556-26.567,205.747,205.747,0,0,0,6.295-31.252,271.9,271.9,0,0,0,2.08-34.553,317.031,317.031,0,0,0-2.163-36.309,327.057,327.057,0,0,0-6.3-36.28,296.04,296.04,0,0,0-10.528-35.333,245.848,245.848,0,0,0-14.64-32.516A188.492,188.492,0,0,0,340.159,205.5a139.776,139.776,0,0,0-22.934-22.727,110.9,110.9,0,0,0-26.9-15.514q-3.537-1.408-7.171-2.546c-1.1-.346-1.57,1.379-.475,1.724Z" transform="translate(-195.251 -146.787)" fill="#b5e5ec"/>
  <path id="Path_7154" data-name="Path 7154" d="M675.859,442.822a5.45,5.45,0,0,0-.124.847l-22.191,12.8-5.394-3.105-5.75,7.528,11.539,8.224,25.316-19.972a5.422,5.422,0,1,0-3.4-6.323Z" transform="translate(-369.45 -279.232)" fill="#ffb8b8"/>
  <path id="Path_7155" data-name="Path 7155" d="M606.635,450.255l17.473,12.453,7.815-9.8-16.985-13.629a6.883,6.883,0,0,0-9.912,1.374h0a6.883,6.883,0,0,0,1.61,9.6Z" transform="translate(-350.762 -278.811)" fill="#d9f0f3"/>
  <path id="Path_7156" data-name="Path 7156" d="M425.519,584.843l6.127,1.605,9.107-22.865-9.042-2.37Z" transform="translate(-205.714 -271.307)" fill="#ffb8b8"/>
  <path id="Path_7157" data-name="Path 7157" d="M0,0H19.9V7.69H7.69A7.69,7.69,0,0,1,0,0H0Z" transform="matrix(-0.967, -0.253, 0.253, -0.967, 236.256, 323.927)"/>
  <path id="Path_7158" data-name="Path 7158" d="M526.922,591.359l6.234-1.114-1.329-24.577-9.2,1.644Z" transform="translate(-252.659 -273.461)" fill="#ffb8b8"/>
  <path id="Path_7159" data-name="Path 7159" d="M0,0H19.9V7.69H7.69A7.69,7.69,0,0,1,0,0H0Z" transform="translate(293.553 320.427) rotate(169.872)"/>
  <path id="Path_7160" data-name="Path 7160" d="M610.994,394.1c1.536.374,2.786,1.939,3.537,3.753a26.18,26.18,0,0,1,1.4,5.9c.59,3.749,1.156,7.807-.064,11.279-1.43,4.069-5.239,6.2-8.543,5.2s-5.933-4.761-6.83-9.089A22.011,22.011,0,0,1,602,398.185a10.535,10.535,0,0,1,3.952-5.073,3.9,3.9,0,0,1,5.2,1.084" transform="translate(-349.007 -256.951)"/>
  <path id="Path_7161" data-name="Path 7161" d="M589.417,526.948l11.869,106.307-9.8,3.722L573.4,565.691l-25.172,65.18-10.73.6s14.722-101.419,25.633-103.724Z" transform="translate(-318.738 -321.923)" fill="#de8706"/>
  <circle id="Ellipse_198" data-name="Ellipse 198" cx="12.687" cy="12.687" r="12.687" transform="translate(248.023 125.346)" fill="#ffb8b8"/>
  <path id="Path_7162" data-name="Path 7162" d="M607.208,430.454,593.5,428.666s-8.942,10.73-8.346,29.21-1.49,24.143-1.49,24.143l28.587.517C608.116,476.853,625.4,444.217,607.208,430.454Z" transform="translate(-341.053 -274.411)" fill="#d9f0f3"/>
  <path id="Path_7163" data-name="Path 7163" d="M614.852,511.338a5.429,5.429,0,0,0-.853.074l-17.54-18.672,1.788-5.961L589.6,482.9l-5.365,13.114,25.235,20.074a5.422,5.422,0,1,0,5.378-4.754Z" transform="translate(-341.331 -300.631)" fill="#ffb8b8"/>
  <path id="Path_7164" data-name="Path 7164" d="M598.709,442.187l-8.124,19.859,11.326,5.365,9.38-19.653a6.883,6.883,0,0,0-3.606-9.335h0a6.883,6.883,0,0,0-8.977,3.764Z" transform="translate(-344.4 -278.879)" fill="#d9f0f3"/>
  <path id="Path_7165" data-name="Path 7165" d="M593.291,394.168c1.988-1.147,2.2-3.913,1.93-6.193s-.722-4.82.618-6.683c1.6-2.224,4.811-2.268,7.549-2.341s6.073-.874,6.782-3.52a4.715,4.715,0,0,0-1.974-4.722,13.849,13.849,0,0,0-4.99-2.044c-3.915-1.031-7.958-2.072-11.967-1.5a15.257,15.257,0,0,0-13,17.037c.649,5.089,1.59,7.311.972,9.555-1.151,4.179-6.112,6.864-6.21,11.2-.077,3.39,2.917,6,5.838,7.726a19.6,19.6,0,0,0,7.488,2.843,9.548,9.548,0,0,0,7.535-2.1c2.566-2.334,3.2-6.234,2.465-9.624s-2.623-6.4-4.49-9.324" transform="translate(-335.9 -244.6)"/>
  <path id="Path_7166" data-name="Path 7166" d="M901.032,426.948H717.649A4.656,4.656,0,0,0,713,431.6V549.375a4.656,4.656,0,0,0,4.649,4.649H901.032a4.656,4.656,0,0,0,4.649-4.649V431.6A4.656,4.656,0,0,0,901.032,426.948Zm3.616,122.427a3.62,3.62,0,0,1-3.616,3.616H717.649a3.62,3.62,0,0,1-3.616-3.616V431.6a3.62,3.62,0,0,1,3.616-3.616H901.032a3.62,3.62,0,0,1,3.616,3.616Z" transform="translate(-403.579 -273.581)" fill="#d9f0f3" stroke="#de8706" stroke-width="1"/>
  <path id="Path_7167" data-name="Path 7167" d="M766.6,505.153H737.668a4.4,4.4,0,0,1-4.391-4.391V471.834a4.4,4.4,0,0,1,4.391-4.391H766.6a4.4,4.4,0,0,1,4.391,4.391v28.928A4.4,4.4,0,0,1,766.6,505.153Z" transform="translate(-413.381 -293.157)" fill="#d9f0f3"/>
  <path id="Path_7168" data-name="Path 7168" d="M901.639,593.668H737.371a3.358,3.358,0,0,1,0-6.715H901.64a3.358,3.358,0,0,1,0,6.716Z" transform="translate(-413.737 -350.931)" fill="#de8706"/>
  <path id="Path_7169" data-name="Path 7169" d="M901.857,562.168H737.588a3.358,3.358,0,1,1,0-6.715H901.857a3.358,3.358,0,1,1,0,6.715Z" transform="translate(-413.842 -335.704)" fill="#de8706"/>
  <path id="Path_7170" data-name="Path 7170" d="M875.864,519.158H851.585a3.358,3.358,0,0,1,0-6.715h24.279a3.358,3.358,0,0,1,0,6.715Z" transform="translate(-468.951 -314.911)" fill="#de8706"/>
  <path id="Path_7171" data-name="Path 7171" d="M956.968,487.168H851.588a3.358,3.358,0,1,1,0-6.715h105.38a3.358,3.358,0,1,1,0,6.715Z" transform="translate(-468.953 -299.446)" fill="#de8706"/>
  <path id="Path_7172" data-name="Path 7172" d="M816.517,625.668H737.371a3.358,3.358,0,0,1,0-6.715h79.146a3.358,3.358,0,1,1,0,6.715Z" transform="translate(-413.737 -366.401)" fill="#de8706"/>
</svg>
