<svg xmlns="http://www.w3.org/2000/svg" width="28.696" height="32.119" viewBox="0 0 28.696 32.119">
  <g id="Component_34_1" data-name="Component 34 – 1" transform="translate(0.5 0.5)">
    <g id="Icon_ionic-ios-document" data-name="Icon ionic-ios-document" transform="translate(3.68 3.424)">
      <path id="Path_6853" data-name="Path 6853" d="M22.1,10.792h7.189a.369.369,0,0,0,.4-.346h0a1.959,1.959,0,0,0-.845-1.585l-6.028-4.4a2.764,2.764,0,0,0-1.627-.512h0a.551.551,0,0,0-.585.512v5.02A1.417,1.417,0,0,0,22.1,10.792Z" transform="translate(-5.67 -3.938)" fill="none" stroke="#de8706" stroke-width="1"/>
      <path id="Path_6854" data-name="Path 6854" d="M20.19,9.476V3.938H9.841A2.394,2.394,0,0,0,7.313,6.153V29.416a2.394,2.394,0,0,0,2.528,2.216H28.8a2.394,2.394,0,0,0,2.528-2.216V12.592H23.745A3.362,3.362,0,0,1,20.19,9.476Z" transform="translate(-7.313 -3.938)" fill="none" stroke="#de8706" stroke-width="1"/>
    </g>
    <path id="Path_6855" data-name="Path 6855" d="M13524.38,7870.582h-15.687v28.925" transform="translate(-13508.692 -7870.582)" fill="none" stroke="#de8706" stroke-linecap="round" stroke-width="1"/>
  </g>
</svg>
