<svg id="Component_23_1" data-name="Component 23 – 1" xmlns="http://www.w3.org/2000/svg" width="413.664" height="332.119" viewBox="0 0 413.664 332.119">
  <circle id="Ellipse_208" data-name="Ellipse 208" cx="25.701" cy="25.701" r="25.701" transform="translate(177.33 280.472)" fill="#d9f0f3"/>
  <path id="Path_7199" data-name="Path 7199" d="M626.79,503.494c14.378-4.318,29.664-8.821,41.067-19.086,10.19-9.173,17.069-23.18,12.847-36.937-4.213-13.729-16.831-22.883-29.858-27.436A122.5,122.5,0,0,0,628,414.895c-8.4-1.223-16.837-2.226-25.271-3.19q-51.221-5.858-102.827-7.158c-16.976-.428-33.949-.417-50.928-.171-15.163.22-31.132.215-45.2-6.23-10.939-5.012-20.867-14.129-23.915-26.11-3.518-13.831,2.971-27.915,12.28-37.932a99.428,99.428,0,0,1,16.558-13.81c6.418-4.433,13.06-8.552,19.846-12.4a276.368,276.368,0,0,1,41.773-19.258c7.121-2.589,14.348-4.823,21.637-6.884a185.15,185.15,0,0,0,18.279-5.854c11.5-4.584,22.438-12.347,25.362-25.076,2.771-12.063-1.9-25.159-10.093-34.121-9.477-10.368-23.767-14.913-37.467-15.648-15.38-.826-30.406,3.024-44.863,7.909-15.419,5.211-30.5,11.2-46.249,15.422a311.176,311.176,0,0,1-47.6,8.848c-7.868.838-15.974,1.784-23.888,1.142-6.633-.538-13.233-2.488-18.121-7.2-4.192-4.037-6.689-9.584-5.83-15.438.156-1.063,1.771-.611,1.616.446-1.045,7.126,3.8,13.693,9.769,17.057,6.9,3.888,15.294,3.893,22.975,3.448a300.49,300.49,0,0,0,49.454-7.149c15.975-3.649,31.379-8.865,46.766-14.437,14.614-5.292,29.554-10.457,45.166-11.6,13.547-.995,27.8.979,39.6,8.058a43.806,43.806,0,0,1,20.429,28.5c2.375,11.635-.914,23.346-9.722,31.465-9.119,8.406-21.622,12-33.275,15.311a304.85,304.85,0,0,0-43.24,15.478,271.438,271.438,0,0,0-40.674,22.867c-12.429,8.494-24.7,19.181-28.626,34.333a31.629,31.629,0,0,0,1.571,21.211,38.762,38.762,0,0,0,12.438,14.76c12.471,9.176,28.188,11.061,43.252,11.248,16.918.21,33.838-.361,50.762-.083q51.736.849,103.26,6.3,12.911,1.367,25.789,3.021a233.171,233.171,0,0,1,23.063,3.74c13.5,3.133,26.636,9.158,35.026,20.6a32.582,32.582,0,0,1,2.775,35.627c-6.443,12.677-18.512,20.741-31.329,26.039a222.284,222.284,0,0,1-21.092,7.121.839.839,0,0,1-.446-1.616Z" transform="translate(-270.223 -173.064)" fill="#f2f2f2"/>
  <circle id="Ellipse_209" data-name="Ellipse 209" cx="13.409" cy="13.409" r="13.409" transform="translate(18.935 25.421)" fill="#f2f2f2"/>
  <circle id="Ellipse_210" data-name="Ellipse 210" cx="13.409" cy="13.409" r="13.409" transform="translate(111.961 50.843)" fill="#f2f2f2"/>
  <circle id="Ellipse_211" data-name="Ellipse 211" cx="13.409" cy="13.409" r="13.409" transform="translate(190.739)" fill="#f2f2f2"/>
  <circle id="Ellipse_212" data-name="Ellipse 212" cx="13.409" cy="13.409" r="13.409" transform="translate(239.905 56.988)" fill="#f2f2f2"/>
  <circle id="Ellipse_213" data-name="Ellipse 213" cx="13.409" cy="13.409" r="13.409" transform="translate(173.419 122.916)" fill="#f2f2f2"/>
  <circle id="Ellipse_214" data-name="Ellipse 214" cx="13.409" cy="13.409" r="13.409" transform="translate(89.053 154.763)" fill="#f2f2f2"/>
  <circle id="Ellipse_215" data-name="Ellipse 215" cx="13.409" cy="13.409" r="13.409" transform="translate(178.447 204.488)" fill="#f2f2f2"/>
  <circle id="Ellipse_216" data-name="Ellipse 216" cx="13.409" cy="13.409" r="13.409" transform="translate(274.545 232.423)" fill="#f2f2f2"/>
  <circle id="Ellipse_217" data-name="Ellipse 217" cx="13.409" cy="13.409" r="13.409" transform="translate(386.846 226.277)" fill="#f2f2f2"/>
  <path id="Path_7200" data-name="Path 7200" d="M545.97,220.371a74.374,74.374,0,0,0-73.625,73.088c-.005.371-.008,2.978-.007,6.388A18.855,18.855,0,0,0,491.19,318.7h0a18.866,18.866,0,0,0,18.863-18.879c0-2.324,0-3.93,0-4.028a35.758,35.758,0,1,1,55.044,30.1l.007.008s-26.834,17.275-35.015,40.973l.007,0a52.523,52.523,0,0,0-2.164,14.956c0,2.081.122,20.293.359,35.074a19.436,19.436,0,0,0,19.438,19.12h0a19.441,19.441,0,0,0,19.44-19.561c-.082-13.537-.127-29.3-.127-30.444,0-14.551,14.038-29.05,25.569-38.5a77.551,77.551,0,0,0,26.671-42.461,48.481,48.481,0,0,0,1.4-10.522,74.169,74.169,0,0,0-74.7-74.167Z" transform="translate(-345.693 -182.377)" fill="#d9f0f3"/>
  <circle id="Ellipse_218" data-name="Ellipse 218" cx="16.761" cy="16.761" r="16.761" transform="translate(296.366 119.003)" fill="#2f2e41"/>
  <path id="Path_7202" data-name="Path 7202" d="M565.028,561.261h-6.849l-3.259-26.42h10.11Z" transform="translate(-282.874 -236.02)" fill="#f6d3a0"/>
  <path id="Path_7203" data-name="Path 7203" d="M545.426,578.626h13.21v8.317H537.109a8.317,8.317,0,0,1,8.318-8.317Z" transform="translate(-275.014 -255.342)" fill="#2f2e41"/>
  <path id="Path_7204" data-name="Path 7204" d="M660.028,561.261h-6.849l-3.259-26.42h10.11Z" transform="translate(-324.797 -236.02)" fill="#f6d3a0"/>
  <path id="Path_7205" data-name="Path 7205" d="M640.427,578.626h13.21v8.317H632.109A8.317,8.317,0,0,1,640.427,578.626Z" transform="translate(-316.937 -255.342)" fill="#2f2e41"/>
  <circle id="Ellipse_219" data-name="Ellipse 219" cx="13.722" cy="13.722" r="13.722" transform="translate(296.858 125.178)" fill="#f6d3a0"/>
  <path id="Path_7206" data-name="Path 7206" d="M777.439,473.845l6.14-14.107a17.534,17.534,0,0,0-3.883-19.89,17.8,17.8,0,0,0-1.715-1.492,17.284,17.284,0,0,0-10.61-3.671,17.978,17.978,0,0,0-7.487,1.665c-.2.089-.4.184-.6.279-.385.184-.765.385-1.134.592a17.7,17.7,0,0,0-8.772,13.342l-2.71,22.706c-.681,1.782-25,66.146-16.493,115.284a2.5,2.5,0,0,0,2.134,2.05l8.621,1.173a2.512,2.512,0,0,0,2.8-1.972l14.465-68.95a1.957,1.957,0,0,1,3.8-.128l20.438,72.509a2.5,2.5,0,0,0,2.408,1.833,2.867,2.867,0,0,0,.486-.045L795.86,593a2.5,2.5,0,0,0,2.028-2.687C796.34,573.049,788.116,486.6,777.439,473.845Z" transform="translate(-458.68 -276.952)" fill="#d9f0f3"/>
  <path id="Path_7207" data-name="Path 7207" d="M706.072,417.446a5.618,5.618,0,0,0,5.919,6.259l7.67,18.433,5.8-8.6-8.174-16.186a5.649,5.649,0,0,0-11.218.094Z" transform="translate(-448.821 -267.125)" fill="#f6d3a0"/>
  <path id="Path_7208" data-name="Path 7208" d="M795.17,520.14a5.618,5.618,0,0,0,4.708-7.215l16.138-11.754-9.716-3.638-13.836,11.72a5.649,5.649,0,0,0,2.706,10.888Z" transform="translate(-485.351 -304.686)" fill="#f6d3a0"/>
  <path id="Path_7209" data-name="Path 7209" d="M737.436,465.89a9.53,9.53,0,0,1-1.843-.182,9.11,9.11,0,0,1-6.675-5.373l-10.746-13.1a2.515,2.515,0,0,1,.621-3.733l7.646-4.733a2.514,2.514,0,0,1,3.473.833l7.574,12.478,14.5-10.72a5.431,5.431,0,0,1,6.319,8.695l-14.477,13.206a9.081,9.081,0,0,1-6.4,2.631Z" transform="translate(-453.925 -278.587)" fill="#d9f0f3"/>
  <path id="Path_7210" data-name="Path 7210" d="M815.9,488.833h-.059a2.518,2.518,0,0,1-1.85-.877l-6.8-7.93a2.514,2.514,0,0,1,.514-3.728l12.728-8.485L808.9,453.949a5.431,5.431,0,0,1,8.318-6.807l14.014,13.7a9.233,9.233,0,0,1-2.053,15.052l-11.454,12.154A2.519,2.519,0,0,1,815.9,488.833Z" transform="translate(-493.193 -281.824)" fill="#d9f0f3"/>
  <path id="Path_7211" data-name="Path 7211" d="M789.311,453.639a2.584,2.584,0,0,1-.326-.021,2.492,2.492,0,0,1-2.074-1.715l-5.108-15.66a1.722,1.722,0,0,1,.891-2.081l.166-.078c.15-.071.3-.142.451-.21a18.2,18.2,0,0,1,7.6-1.689,17.5,17.5,0,0,1,9.588,2.881,1.749,1.749,0,0,1,.5,2.4l-9.582,15.011A2.489,2.489,0,0,1,789.311,453.639Z" transform="translate(-480.92 -280.087)" fill="#f6d3a0"/>
  <circle id="Ellipse_220" data-name="Ellipse 220" cx="5.485" cy="5.485" r="5.485" transform="translate(320.857 117.312)" fill="#2f2e41"/>
  <path id="Path_7212" data-name="Path 7212" d="M784.637,361.365h0a14.526,14.526,0,0,0-14.526,14.526v6.146h7.559l3.615-6.146,1.085,6.146h22.94l-6.146-6.146a14.526,14.526,0,0,0-14.526-14.526Z" transform="translate(-477.097 -244.597)" fill="#2f2e41"/>
  <path id="Path_7213" data-name="Path 7213" d="M834.809,360.781a8.464,8.464,0,0,1,9.208-5.808c3.5.584,6.259,3.394,7.906,6.532s2.407,6.65,3.514,10.016,2.677,6.751,5.471,8.93,7.083,2.77,9.828.529a11.24,11.24,0,0,1-20.939,4.012c-1.448-2.577-1.822-5.6-2.252-8.521s-.987-5.95-2.716-8.347-4.966-3.963-7.712-2.871Z" transform="translate(-505.648 -241.742)" fill="#2f2e41"/>
  <path id="Path_7214" data-name="Path 7214" d="M496.305,334.033h0a18.855,18.855,0,0,1-18.853-18.852c0-3.412,0-6.02.007-6.391a73.473,73.473,0,0,1,8.581-33.472,73.64,73.64,0,0,0-14.168,42.411c-.005.371-.008,2.978-.007,6.388a18.855,18.855,0,0,0,18.852,18.854h0a18.869,18.869,0,0,0,18.151-13.739,18.785,18.785,0,0,1-12.564,4.8Z" transform="translate(-345.484 -206.626)" fill="#b5e5ec"/>
  <path id="Path_7215" data-name="Path 7215" d="M583.571,284.385a35.76,35.76,0,0,1,31.1,49.956,35.756,35.756,0,1,0-60.02-37.425,35.685,35.685,0,0,1,28.923-12.531Z" transform="translate(-382.016 -206.664)" fill="#b5e5ec"/>
  <path id="Path_7216" data-name="Path 7216" d="M596.748,530.184h0a19.437,19.437,0,0,1-19.438-19.125c-.236-14.777-.359-32.989-.359-35.07a52.523,52.523,0,0,1,2.164-14.956l-.007,0a53.1,53.1,0,0,1,3.07-7.1,61.487,61.487,0,0,0-8.657,16.035l.007,0a52.525,52.525,0,0,0-2.164,14.955c0,2.081.123,20.293.359,35.074a19.436,19.436,0,0,0,19.438,19.12h0a19.444,19.444,0,0,0,18.661-13.992A19.365,19.365,0,0,1,596.748,530.184Z" transform="translate(-389.393 -285.448)" fill="#b5e5ec"/>
  <path id="Path_7217" data-name="Path 7217" d="M126.54,561.717h6.849l3.259-26.42h-10.11Z" transform="translate(-93.833 -236.221)" fill="#f6d3a0"/>
  <path id="Path_7218" data-name="Path 7218" d="M0,0H21.528V8.318H8.318A8.317,8.317,0,0,1,0,0Z" transform="translate(52.764 331.856) rotate(179.997)" fill="#2f2e41"/>
  <path id="Path_7219" data-name="Path 7219" d="M82.54,561.717h6.849l3.259-26.42H82.538Z" transform="translate(-74.416 -236.221)" fill="#f6d3a0"/>
  <path id="Path_7220" data-name="Path 7220" d="M0,0H21.528V8.318H8.318A8.317,8.317,0,0,1,0,0Z" transform="translate(28.181 331.856) rotate(179.997)" fill="#2f2e41"/>
  <path id="Path_7221" data-name="Path 7221" d="M263.678,648.012l-6.691-.352a2.611,2.611,0,0,1-2.469-2.775l8-88.536,36.825,9.937,3.548-.968-11.1,78.378a2.624,2.624,0,0,1-2.435,2.2l-7.212.336a2.611,2.611,0,0,1-2.755-2.679l1.307-47.041a.871.871,0,0,0-1.723-.2l-12.6,49.62a2.6,2.6,0,0,1-2.553,2.081C263.773,648.016,263.726,648.014,263.678,648.012Z" transform="translate(-249.569 -330.641)" fill="#de8706"/>
  <circle id="Ellipse_221" data-name="Ellipse 221" cx="13.722" cy="13.722" r="13.722" transform="translate(20.214 125.82)" fill="#f6d3a0"/>
  <path id="Path_7222" data-name="Path 7222" d="M265.493,457.115,267,489.67l.545,11.844a2.594,2.594,0,0,0,1.718,2.333l35.386,12.819a2.5,2.5,0,0,0,.894.157,2.594,2.594,0,0,0,2.606-2.675L306.7,455.612a20.633,20.633,0,0,0-17.177-19.933c-.342-.052-.691-.1-1.039-.151A20.253,20.253,0,0,0,272.19,440.8a20.8,20.8,0,0,0-6.7,16.312Z" transform="translate(-254.404 -277.256)" fill="#d9f0f3"/>
  <path id="Path_7223" data-name="Path 7223" d="M354.008,549.416a5.623,5.623,0,0,1-3-8.507l-12-15.957,10.355-.641,9.808,15.251a5.649,5.649,0,0,1-5.164,9.854Z" transform="translate(-286.856 -316.504)" fill="#fefbf8"/>
  <path id="Path_7224" data-name="Path 7224" d="M334.922,506.088a2.6,2.6,0,0,1-1.42-1.407l-18.079-43.073a6.963,6.963,0,1,1,12.842-5.39l18.079,43.074a2.614,2.614,0,0,1-1.4,3.418l-8.026,3.368a2.593,2.593,0,0,1-2,.01Z" transform="translate(-276.208 -284.57)" fill="#d9f0f3"/>
  <path id="Path_7225" data-name="Path 7225" d="M298.264,518.716l17.364-33.248a2.725,2.725,0,0,1,3.673-1.153l25.2,13.163a2.725,2.725,0,0,1,1.153,3.673L328.294,534.4a2.726,2.726,0,0,1-3.673,1.153l-25.2-13.163A2.726,2.726,0,0,1,298.264,518.716Z" transform="translate(-268.74 -298.717)" fill="#4bb2c2"/>
  <path id="Path_7226" data-name="Path 7226" d="M299.34,508.257a5.623,5.623,0,0,0-8.669-2.492l-16.638-11.037L274,505.1l15.8,8.89a5.649,5.649,0,0,0,9.532-5.736Z" transform="translate(-258.171 -303.449)" fill="#f6d3a0"/>
  <path id="Path_7227" data-name="Path 7227" d="M265.8,488.224l-13.6-10.771a9.589,9.589,0,0,1-4.371-15.161l12.346-16.18a5.641,5.641,0,0,1,9.57,5.746l-9.768,15.979,14.355,6.809a2.611,2.611,0,0,1,1.088,3.754l-5.795,9.171a2.616,2.616,0,0,1-1.769,1.179l-.043.007A2.624,2.624,0,0,1,265.8,488.224Z" transform="translate(-245.664 -281.082)" fill="#d9f0f3"/>
  <path id="Path_7228" data-name="Path 7228" d="M282.516,396.05a1.193,1.193,0,0,1,1.037-1.575,2.755,2.755,0,0,1,1.942.958,7.731,7.731,0,0,0,1.716,1.473,1.476,1.476,0,0,0,1.943-.351,2.7,2.7,0,0,0-.1-2.1A20.62,20.62,0,0,1,288.14,389a9.611,9.611,0,0,1,1.374-5.837c1.477-2.081,4.118-2.871,6.618-2.814a44.478,44.478,0,0,1,7.435,1.317,2.5,2.5,0,0,0,2.431-.408c.608-.7.385-1.844.126-2.8-.671-2.468-1.383-5.02-2.942-7.013a10.559,10.559,0,0,0-6.738-3.794,16.168,16.168,0,0,0-7.522.854,20.167,20.167,0,0,0-9.88,6.883,16.334,16.334,0,0,0-3.117,12.068,14.9,14.9,0,0,0,5.523,9.417Z" transform="translate(-258.949 -247.318)" fill="#2f2e41"/>
  <path id="Path_7229" data-name="Path 7229" d="M583.057,703.6a25.7,25.7,0,0,1-9.537-39.942,25.7,25.7,0,1,0,34.958,37.134,25.683,25.683,0,0,1-25.42,2.807Z" transform="translate(-385.69 -377.997)" fill="#b5e5ec"/>
  <path id="Path_7294" data-name="Path 7294" d="M1756.643,273.769l1.642-6.869s9.222.6,10.619,0c1.261-2.625-2,7.079-2,7.079a17.838,17.838,0,0,0-4.8-.876A20.66,20.66,0,0,0,1756.643,273.769Z" transform="translate(-1730 -115)" fill="#f6d3a0"/>
</svg>
