<svg id="Component_30_1" data-name="Component 30 – 1" xmlns="http://www.w3.org/2000/svg" xmlns:xlink="http://www.w3.org/1999/xlink" width="66.762" height="53.626" viewBox="0 0 66.762 53.626">
  <defs>
    <clipPath id="clip-path">
      <rect id="Rectangle_1866" data-name="Rectangle 1866" width="24.674" height="23.687" transform="translate(0 0)" fill="#fff"/>
    </clipPath>
  </defs>
  <path id="Path_6845" data-name="Path 6845" d="M2639.328,4477.5l-24.873,19.4v26.927h50.2v-26.927Z" transform="translate(-2606.943 -4470.195)" fill="#de8706"/>
  <path id="Path_4852" data-name="Path 4852" d="M2598.914,4487.992l14.287-11.377v-9.128h7.074v3.652l11.637-8.9,33.763,25.753h-7.031l-26.732-21.084-27.182,21.084Z" transform="translate(-2598.914 -4462.239)" fill="#de8706"/>
  <g id="settings" transform="matrix(0.391, -0.921, 0.921, 0.391, 9.203, 49.769)">
    <path id="Path_4854" data-name="Path 4854" d="M6.915,1a.4.4,0,0,0-.58,0l-.442.44a2.935,2.935,0,0,0-.375-.2,3.9,3.9,0,0,0-.4-.156V.408A.393.393,0,0,0,5,.118.392.392,0,0,0,4.711,0h-.85a.4.4,0,0,0-.286.118.39.39,0,0,0-.121.29v.62a3.065,3.065,0,0,0-.412.127,3.186,3.186,0,0,0-.38.176L2.172.848A.374.374,0,0,0,1.889.726.4.4,0,0,0,1.6.848L1,1.445a.4.4,0,0,0,0,.58l.44.442a2.939,2.939,0,0,0-.2.375,3.921,3.921,0,0,0-.156.4H.408a.393.393,0,0,0-.29.118A.394.394,0,0,0,0,3.649V4.5a.4.4,0,0,0,.118.286.391.391,0,0,0,.29.121h.62a3.063,3.063,0,0,0,.127.412,3.794,3.794,0,0,0,.176.389l-.482.481a.374.374,0,0,0-.123.283.4.4,0,0,0,.123.29l.6.6a.424.424,0,0,0,.58,0l.442-.449a2.974,2.974,0,0,0,.375.2,3.932,3.932,0,0,0,.4.156v.677a.4.4,0,0,0,.408.408H4.5a.4.4,0,0,0,.286-.119.39.39,0,0,0,.121-.29v-.62A3.04,3.04,0,0,0,5.318,7.2a3.74,3.74,0,0,0,.389-.176l.481.482a.4.4,0,0,0,.573,0l.6-.6a.424.424,0,0,0,0-.58l-.449-.442a2.954,2.954,0,0,0,.2-.375,3.957,3.957,0,0,0,.156-.4h.677a.4.4,0,0,0,.408-.408v-.85a.4.4,0,0,0-.119-.286.39.39,0,0,0-.29-.121h-.62A3.427,3.427,0,0,0,7.2,3.046a3.052,3.052,0,0,0-.176-.385l.482-.489a.375.375,0,0,0,.123-.283.4.4,0,0,0-.123-.29L6.915,1Zm4.7,4.565a.217.217,0,0,0-.169-.039.215.215,0,0,0-.145.094l-.2.281a1.624,1.624,0,0,0-.223-.075,2.08,2.08,0,0,0-.232-.047l-.064-.367a.223.223,0,0,0-.26-.183l-.461.08a.219.219,0,0,0-.144.091.214.214,0,0,0-.038.169l.059.336a1.65,1.65,0,0,0-.211.108,1.711,1.711,0,0,0-.19.131l-.311-.215a.207.207,0,0,0-.165-.04.221.221,0,0,0-.146.094l-.266.38a.222.222,0,0,0,.055.314l.281.2a1.605,1.605,0,0,0-.075.223,2.085,2.085,0,0,0-.047.232L8.3,7.4a.223.223,0,0,0-.183.26l.08.461a.218.218,0,0,0,.091.144.214.214,0,0,0,.169.038L8.8,8.242a1.687,1.687,0,0,0,.108.212,2.063,2.063,0,0,0,.132.194l-.216.306a.206.206,0,0,0-.04.165.22.22,0,0,0,.094.146l.38.271a.233.233,0,0,0,.314-.055l.2-.285a1.588,1.588,0,0,0,.223.075,2.063,2.063,0,0,0,.232.047l.064.368a.223.223,0,0,0,.26.183L11,9.787a.219.219,0,0,0,.144-.091.214.214,0,0,0,.038-.169l-.059-.336a1.654,1.654,0,0,0,.212-.108,2.132,2.132,0,0,0,.194-.132l.306.216a.218.218,0,0,0,.311-.054l.271-.38a.234.234,0,0,0-.055-.314l-.285-.2A1.588,1.588,0,0,0,12.156,8a2.13,2.13,0,0,0,.047-.232L12.57,7.7a.223.223,0,0,0,.183-.26l-.08-.461a.219.219,0,0,0-.091-.144.214.214,0,0,0-.169-.038l-.336.059a1.874,1.874,0,0,0-.107-.209,1.7,1.7,0,0,0-.132-.192l.215-.311a.205.205,0,0,0,.039-.165A.219.219,0,0,0,12,5.836l-.379-.266ZM10.295,6.741a.813.813,0,0,1,.327.008.813.813,0,0,1,.506.356.835.835,0,0,1,.11.632.814.814,0,0,1-.356.506.834.834,0,0,1-.632.11A.814.814,0,0,1,9.744,8a.836.836,0,0,1-.11-.632.811.811,0,0,1,.356-.506.817.817,0,0,1,.3-.118ZM4.18,2.515a1.653,1.653,0,0,1,.649.13,1.641,1.641,0,0,1,.886.886,1.692,1.692,0,0,1,0,1.3,1.641,1.641,0,0,1-.886.886,1.691,1.691,0,0,1-1.3,0,1.643,1.643,0,0,1-.886-.886,1.692,1.692,0,0,1,0-1.3,1.644,1.644,0,0,1,.886-.886,1.654,1.654,0,0,1,.649-.13Z" transform="translate(0 0)" fill="#fff"/>
  </g>
  <g id="telephone" transform="translate(26.831 41.047)">
    <path id="Path_4855" data-name="Path 4855" d="M11.344,10.3H1.426V8.847c.052-1.7,1.551-2.987,2.456-4.454V3.1H5.391v.926H7.42V3.1H8.929v1.29c.978,1.571,2.414,2.591,2.414,4.433V10.3Zm1.4-5.911a5.3,5.3,0,0,0,.01-.708A3.947,3.947,0,0,1,9.5,3.363a2.089,2.089,0,0,0,.167,1.082c.375.833,3.049,1.114,3.08-.052Zm-12.717,0a5.3,5.3,0,0,1-.01-.708,3.947,3.947,0,0,0,3.257-.323,2.089,2.089,0,0,1-.167,1.082c-.375.833-3.06,1.114-3.08-.052ZM0,3.332c.9-4.173,12.01-4.673,12.79.01A4.746,4.746,0,0,1,9.5,2.967a.681.681,0,0,0-.135-.541c-.656-.822-5.349-.853-5.953.031a.767.767,0,0,0-.125.489A3.538,3.538,0,0,1,0,3.332ZM4.912,4.976a.448.448,0,1,1-.448.448.465.465,0,0,1,.448-.448Zm2.872,2.5a.448.448,0,1,1-.448.448.451.451,0,0,1,.448-.448Zm-1.436,0a.448.448,0,1,1-.448.448.451.451,0,0,1,.448-.448Zm-1.436,0a.448.448,0,1,1-.448.448.465.465,0,0,1,.448-.448ZM7.784,6.225a.448.448,0,1,1-.448.448.451.451,0,0,1,.448-.448Zm-1.436,0a.448.448,0,1,1-.448.448.451.451,0,0,1,.448-.448Zm-1.436,0a.448.448,0,1,1-.448.448.465.465,0,0,1,.448-.448ZM7.784,4.976a.448.448,0,1,1-.448.448.451.451,0,0,1,.448-.448Zm-1.436,0a.448.448,0,1,1-.448.448.451.451,0,0,1,.448-.448Z" transform="translate(0 -0.013)" fill="#fff"/>
  </g>
  <g id="info" transform="translate(13.922 25.26)">
    <path id="Path_4856" data-name="Path 4856" d="M3.246,0A1.415,1.415,0,0,1,4.292.381,1.418,1.418,0,0,1,4.67,1.428a1.536,1.536,0,0,1-.651,1.21,2.355,2.355,0,0,1-1.524.531A1.478,1.478,0,0,1,1.449,2.8a1.253,1.253,0,0,1-.4-.963A1.656,1.656,0,0,1,1.7.544,2.322,2.322,0,0,1,3.246,0ZM5.722,12.273H0V11.31H1.075V5.429H0V4.663H2.674a8.127,8.127,0,0,0,2-.247V11.31H5.722v.963Z" transform="translate(0 0)" fill="#fff"/>
  </g>
  <path id="mail" d="M.37,0,6.078,4.655,11.542,0ZM0,7.833,4.066,3.756,0,.441V7.834ZM4.515,4.122.322,8.324H11.6l-4.009-4.2L6.269,5.247h0a.292.292,0,0,1-.368,0Zm3.514-.374,3.925,4.118V.4Z" transform="translate(44.432 29.701)" fill="#fff"/>
  <g id="Mask_Group_21" data-name="Mask Group 21" transform="translate(20.275 14.194)" clip-path="url(#clip-path)">
    <path id="man-toilet" d="M7.681,0A3.367,3.367,0,1,1,4.314,3.367,3.367,3.367,0,0,1,7.681,0Zm4.256,12.676V38.149a1.869,1.869,0,0,1-1.863,1.863h0a1.866,1.866,0,0,1-1.863-1.863V23.171H7.2V38.149a1.869,1.869,0,0,1-1.863,1.863h0a1.869,1.869,0,0,1-1.863-1.863V12.676H2.823v9.362a1.412,1.412,0,0,1-2.823,0V11.963A4.148,4.148,0,0,1,1.553,8.42c1.726-1.3,10.527-1.3,12.253,0a4.129,4.129,0,0,1,1.556,3.543V22.038a1.413,1.413,0,0,1-2.826,0V12.676Z" transform="translate(4.559 0)" fill="#fff"/>
  </g>
  <g id="lab-tube" transform="translate(43.67 40.846)">
    <path id="Path_4857" data-name="Path 4857" d="M3.548,1.539V7.807a2.005,2.005,0,0,1-.442,1.28,1.387,1.387,0,0,1-1.063.532A1.385,1.385,0,0,1,.981,9.087a2.008,2.008,0,0,1-.442-1.28V1.539H.222a.205.205,0,0,1-.157-.078.265.265,0,0,1-.017-.023A.3.3,0,0,1,0,1.271v-1A.3.3,0,0,1,.065.08v0A.2.2,0,0,1,.222,0H3.866a.2.2,0,0,1,.156.078h0a.3.3,0,0,1,.065.189v1a.3.3,0,0,1-.065.189A.213.213,0,0,1,4,1.483a.2.2,0,0,1-.136.056ZM3.2,4.719H2.717a.213.213,0,0,1,0-.418H3.2V3.708H2.335a.213.213,0,0,1,0-.418H3.2V2.7H2.717a.194.194,0,0,1-.174-.209.194.194,0,0,1,.174-.209H3.2V1.33a.194.194,0,0,1,.174-.209h.367v-.7H.347v.7H.714a.194.194,0,0,1,.174.209V7.807a1.543,1.543,0,0,0,.34.984,1.066,1.066,0,0,0,.817.409,1.066,1.066,0,0,0,.817-.409,1.543,1.543,0,0,0,.34-.984V4.719Zm-.363.652V7.629a.89.89,0,0,1-.795.957h0a.89.89,0,0,1-.795-.957V5.371Z" transform="translate(0 0)" fill="#fff"/>
  </g>
  <g id="lab-tube-2" data-name="lab-tube" transform="translate(48.364 40.846)">
    <path id="Path_4857-2" data-name="Path 4857" d="M3.548,1.539V7.807a2.005,2.005,0,0,1-.442,1.28,1.387,1.387,0,0,1-1.063.532A1.385,1.385,0,0,1,.981,9.087a2.008,2.008,0,0,1-.442-1.28V1.539H.222a.205.205,0,0,1-.157-.078.265.265,0,0,1-.017-.023A.3.3,0,0,1,0,1.271v-1A.3.3,0,0,1,.065.08v0A.2.2,0,0,1,.222,0H3.866a.2.2,0,0,1,.156.078h0a.3.3,0,0,1,.065.189v1a.3.3,0,0,1-.065.189A.213.213,0,0,1,4,1.483a.2.2,0,0,1-.136.056ZM3.2,4.719H2.717a.213.213,0,0,1,0-.418H3.2V3.708H2.335a.213.213,0,0,1,0-.418H3.2V2.7H2.717a.194.194,0,0,1-.174-.209.194.194,0,0,1,.174-.209H3.2V1.33a.194.194,0,0,1,.174-.209h.367v-.7H.347v.7H.714a.194.194,0,0,1,.174.209V7.807a1.543,1.543,0,0,0,.34.984,1.066,1.066,0,0,0,.817.409,1.066,1.066,0,0,0,.817-.409,1.543,1.543,0,0,0,.34-.984V4.719Zm-.363.652V7.629a.89.89,0,0,1-.795.957h0a.89.89,0,0,1-.795-.957V5.371Z" transform="translate(0 0)" fill="#fff"/>
  </g>
</svg>
