<svg xmlns="http://www.w3.org/2000/svg" xmlns:xlink="http://www.w3.org/1999/xlink" width="89" height="89" viewBox="0 0 89 89">
  <defs>
    <filter id="Rectangle_2146" x="0" y="0" width="89" height="89" filterUnits="userSpaceOnUse">
      <feOffset dy="3" input="SourceAlpha"/>
      <feGaussianBlur stdDeviation="1.5" result="blur"/>
      <feFlood flood-opacity="0.102"/>
      <feComposite operator="in" in2="blur"/>
      <feComposite in="SourceGraphic"/>
    </filter>
  </defs>
  <g id="Component_7_1" data-name="Component 7 – 1" transform="translate(4.5 1.5)">
    <g transform="matrix(1, 0, 0, 1, -4.5, -1.5)" filter="url(#Rectangle_2146)">
      <rect id="Rectangle_2146-2" data-name="Rectangle 2146" width="80" height="80" rx="39" transform="translate(4.5 1.5)" fill="#fff"/>
    </g>
    <g id="whatsapp_1_" data-name="whatsapp (1)" transform="translate(18.161 18.005)">
      <path id="Path_4822" data-name="Path 4822" d="M255.384,27.91h2.7c.514.062,1.03.109,1.54.187a21.5,21.5,0,0,1,18.132,17.561c.134.773.216,1.555.323,2.331v2.7A3.6,3.6,0,0,0,278,51.1a20.617,20.617,0,0,1-1.749,6.9,21.654,21.654,0,0,1-29.645,10.312,1.026,1.026,0,0,0-.664-.075q-3.813.964-7.618,1.969c-1.094.287-2.183.6-3.276.9l-.17-.17a2.954,2.954,0,0,0,.143-.339q1.408-5.114,2.8-10.23a1.038,1.038,0,0,0-.093-.7,21.342,21.342,0,0,1,15.242-31.423C253.772,28.11,254.581,28.022,255.384,27.91ZM240.076,65.919c.194-.041.3-.059.411-.086,1.969-.511,3.941-1.016,5.906-1.542a.959.959,0,0,1,.819.127,17.488,17.488,0,0,0,13.207,2.213,17.8,17.8,0,0,0-5.851-35.073,17.926,17.926,0,0,0-15.736,19.8,17.406,17.406,0,0,0,2.827,7.674.807.807,0,0,1,.118.739c-.252.848-.482,1.7-.716,2.554C240.737,63.5,240.417,64.675,240.076,65.919Z" transform="translate(-234.88 -27.91)" fill="#1bd741"/>
      <path id="Path_4823" data-name="Path 4823" d="M257.7,82.133c.341-1.244.66-2.419.983-3.593.234-.853.464-1.706.716-2.554a.8.8,0,0,0-.118-.739,17.839,17.839,0,0,1,12.909-27.474,17.8,17.8,0,0,1,5.851,35.073,17.491,17.491,0,0,1-13.207-2.213.965.965,0,0,0-.819-.127c-1.965.527-3.938,1.032-5.907,1.542C258,82.074,257.89,82.091,257.7,82.133Zm22.178-6.421a5.7,5.7,0,0,0,3.62-1.208A4.117,4.117,0,0,0,285.1,70.85a.649.649,0,0,0-.43-.66c-.344-.134-.708-.221-1.048-.371-.475-.209-.926-.468-1.4-.684-.687-.316-1.374-.639-2.081-.907-.512-.195-.723-.086-1.055.334q-.744.942-1.508,1.869c-.462.561-.687.6-1.351.334a14.59,14.59,0,0,1-7.172-6.192c-.364-.605-.343-.766.1-1.312.423-.523.827-1.062,1.226-1.6a1.094,1.094,0,0,0,.086-1.191c-.28-.612-.527-1.241-.787-1.86-.327-.776-.646-1.555-.987-2.324a.933.933,0,0,0-.787-.677c-.477-.023-.955-.03-1.432-.013a1.662,1.662,0,0,0-1.326.637,12.815,12.815,0,0,0-1.417,2.172,6.232,6.232,0,0,0,.289,5.371,20.74,20.74,0,0,0,3.059,4.471,19.742,19.742,0,0,0,8.825,6.526A10.71,10.71,0,0,0,279.874,75.712Z" transform="translate(-252.499 -44.123)" fill="#fff"/>
      <path id="Path_4824" data-name="Path 4824" d="M311.722,112.226a10.612,10.612,0,0,1-3.966-.944,19.743,19.743,0,0,1-8.825-6.526,20.586,20.586,0,0,1-3.059-4.471,6.233,6.233,0,0,1-.289-5.371A12.843,12.843,0,0,1,297,92.741a1.664,1.664,0,0,1,1.326-.637c.477-.018.955-.011,1.432.012a.933.933,0,0,1,.787.677c.341.769.66,1.548.987,2.324.262.621.507,1.249.787,1.86a1.1,1.1,0,0,1-.086,1.191c-.4.541-.8,1.08-1.226,1.6-.443.546-.464.707-.1,1.312a14.589,14.589,0,0,0,7.172,6.192c.664.268.889.227,1.351-.334q.763-.926,1.508-1.869c.332-.419.543-.53,1.055-.334.707.27,1.392.593,2.081.907.471.216.925.475,1.4.684.337.148.7.236,1.048.371a.646.646,0,0,1,.43.66,4.119,4.119,0,0,1-1.608,3.654A5.679,5.679,0,0,1,311.722,112.226Z" transform="translate(-284.347 -80.637)" fill="#1bd741"/>
    </g>
  </g>
</svg>
