<svg xmlns="http://www.w3.org/2000/svg" width="43.328" height="57.565" viewBox="0 0 43.328 57.565">
  <g id="Logo" transform="translate(0.709 0.992)">
    <path id="Path_243" data-name="Path 243" d="M106.9,304.031a53.02,53.02,0,0,1,10.794-15.416,6.676,6.676,0,0,1,1.732-1.439c.279-.1.573.045.871.447a3.275,3.275,0,0,1,.557,1.3,2.706,2.706,0,0,1,0,1.3,1.652,1.652,0,0,1-.64.884,5.482,5.482,0,0,1-.775.528q-.606.4-1.2.851c-10.364,8.328-17.664,27.073-19.268,42.25q-.1.9-.184,1.775c-.134,1.56-.175,2.442-.2,2.718s-.081.4-.163.4c-.131-.007-.233-.342-.308-1.018a11.274,11.274,0,0,1,.022-1.834,76.841,76.841,0,0,1,1.8-12.712q-.173-.756-.363-1.485c-2.83-10.537-7.2-12.942-9.663-13.387-2.529-.419-6.076.335-10.834,5.987,5.569-16.174,12.567-26.631,19.631-31.374C102.588,288.3,105.357,295.527,106.9,304.031Z" transform="translate(-79.061 -283.809)" fill="#3d99a7" stroke="#de8706" stroke-width="1.5"/>
  </g>
</svg>
