<svg id="Component_1_1" data-name="Component 1 – 1" xmlns="http://www.w3.org/2000/svg" width="573.386" height="481.938" viewBox="0 0 573.386 481.938">
  <path id="Path_7292" data-name="Path 7292" d="M288.505,131.563c137.888,127.768,275.9-10.536,275.9,145.32s-126.346,282.2-282.2,282.2S0,432.74,0,276.883,150.617,3.8,288.505,131.563Z" transform="translate(4 -77.148)" fill="#de8706"/>
  <g id="shadow" transform="translate(0 428.935)">
    <path id="Path_6939" data-name="Path 6939" d="M912.746,1740.3H346.077a3.358,3.358,0,0,1-3.357-3.357h0a3.358,3.358,0,0,1,3.357-3.357H912.749a3.358,3.358,0,0,1,3.357,3.357h0A3.359,3.359,0,0,1,912.746,1740.3Z" transform="translate(-342.72 -1733.59)" fill="#033e47"/>
  </g>
  <g id="Group_6237" data-name="Group 6237" transform="translate(49.924 107.477)">
    <path id="Path_6940" data-name="Path 6940" d="M971.29,990.429h-454.8a11.082,11.082,0,0,1-11.081-11.081V697.111a11.082,11.082,0,0,1,11.081-11.081h454.8a11.082,11.082,0,0,1,11.081,11.081V979.348A11.08,11.08,0,0,1,971.29,990.429Z" transform="translate(-505.41 -686.03)" fill="#b3d1ff"/>
  </g>
  <path id="Path_6941" data-name="Path 6941" d="M521.142,993.024A9.033,9.033,0,0,1,512.12,984V701.762a9.033,9.033,0,0,1,9.022-9.022h454.8a9.033,9.033,0,0,1,9.022,9.022V984a9.035,9.035,0,0,1-9.022,9.025Z" transform="translate(-460.137 -583.204)"/>
  <g id="Group_6238" data-name="Group 6238" transform="translate(66.034 119.785)">
    <rect id="Rectangle_2405" data-name="Rectangle 2405" width="445.222" height="278.371" fill="#fefbf8"/>
  </g>
  <path id="Path_6942" data-name="Path 6942" d="M927.418,1677.99v7.414a8.962,8.962,0,0,1-.068,1.117,9.643,9.643,0,0,1-9.58,8.531H388.7a9.64,9.64,0,0,1-9.577-8.531,8.95,8.95,0,0,1-.068-1.117v-7.414Z" transform="translate(-367.908 -1266.117)" fill="#00778a"/>
  <path id="Path_6943" data-name="Path 6943" d="M927.5,1705.79a9.643,9.643,0,0,1-9.58,8.531H388.857a9.64,9.64,0,0,1-9.577-8.531Z" transform="translate(-368.061 -1285.386)" fill="#046372"/>
  <path id="Path_6944" data-name="Path 6944" d="M1077.456,1067.846H857.4a10.9,10.9,0,0,1-10.894-10.894v-127.5A10.9,10.9,0,0,1,857.4,918.56h220.052a10.9,10.9,0,0,1,10.894,10.894v127.5A10.894,10.894,0,0,1,1077.456,1067.846Z" transform="translate(-698.316 -730.727)" fill="#b5e5ec"/>
  <g id="Group_6247" data-name="Group 6247" transform="translate(247.193 233.833)">
    <path id="Path_6965" data-name="Path 6965" d="M991.43,1140.62v31.76c0,3.529,43.185,3.529,43.185,0v-31.76Z" transform="translate(-991.43 -1118.412)" fill="#fff"/>
    <g id="Group_6246" data-name="Group 6246" transform="translate(16.264 28.873)">
      <circle id="Ellipse_164" data-name="Ellipse 164" cx="5.33" cy="5.33" r="5.33" fill="#1b94a7"/>
      <path id="Path_6966" data-name="Path 6966" d="M1056.865,1199.473h0a2.186,2.186,0,0,1-2.185-2.185V1185.06h4.37v12.229A2.184,2.184,0,0,1,1056.865,1199.473Z" transform="translate(-1051.535 -1178.088)" fill="#1b94a7"/>
    </g>
    <path id="Path_6967" data-name="Path 6967" d="M1039.385,1088.2h-4.37v-2.139a13.438,13.438,0,0,0-26.875,0v2.139h-4.37v-2.139a17.807,17.807,0,1,1,35.615,0Z" transform="translate(-999.983 -1068.25)" fill="#fff"/>
  </g>
  <g id="people" transform="translate(88.224 46.289)">
    <g id="female_2_" transform="translate(255.1 171.621)">
      <path id="Path_6968" data-name="Path 6968" d="M1667.05,1131l2.065,8.3.374,1.543c.417,1.961,13.361,1.126,12.446-1.166l-.77-1.688-3.98-8.733Z" transform="translate(-1603.985 -1103.676)" fill="#f7a58e"/>
      <g id="Group_6250" data-name="Group 6250" transform="translate(52.762)">
        <g id="Group_6249" data-name="Group 6249" transform="translate(2.73 2.473)">
          <path id="Path_6969" data-name="Path 6969" d="M1642.373,1066.511c-.132,9,4.044,16.313,10.581,16.279s12.857-5.576,13.088-16.4a12.059,12.059,0,0,0-11.894-12.425C1647.611,1054,1642.474,1059.616,1642.373,1066.511Z" transform="translate(-1642.37 -1053.97)" fill="#f7a58e"/>
        </g>
        <path id="Path_6970" data-name="Path 6970" d="M1647.785,1045.91s-13.02.641-14.1,10.5c-1.445,8.657,5.048,2.292,7.7,8.1,3.038,6.653-.058,11.523-4,12.845,3.507,4.9,23.573,4.723,28.738-3.873C1669.646,1062.708,1664.644,1046.508,1647.785,1045.91Z" transform="translate(-1633.474 -1045.91)"/>
        <circle id="Ellipse_165" data-name="Ellipse 165" cx="2.427" cy="2.427" r="2.427" transform="translate(4.193 18.178) rotate(-40.352)" fill="#f7a58e"/>
      </g>
      <path id="Path_6971" data-name="Path 6971" d="M1646.182,1649.769c-.611-.648-3.489-.657-3.753.3s.246,1.639-.97,3.154a12.279,12.279,0,0,0,3.937,0C1646.158,1653,1646.793,1650.413,1646.182,1649.769Z" transform="translate(-1586.248 -1464.15)" fill="#fff"/>
      <path id="Path_6972" data-name="Path 6972" d="M1655.412,1410.09h-7.018c-.657-29.692-.531-62.014-.295-86.354.086-8.718.325-13.127,1.906-18.36,3.194-10.568,18.206-7.315,19.274,2.265.445,5.315.77,15.687-9.059,50.924C1664.477,1374.08,1657.051,1392.682,1655.412,1410.09Z" transform="translate(-1590.718 -1221.207)" fill="#de8706"/>
      <path id="Path_6973" data-name="Path 6973" d="M1628.7,1658.085c1.034-.055,3.446-1.05,3.9-1.737.672.749,2.068.958,3.753.706,1.992-.3,2.252-1.221,3.682-1.1.6,1.676,2.068,5.432.654,6.3h-14.751C1624.62,1661.055,1624.657,1658.487,1628.7,1658.085Z" transform="translate(-1574.953 -1468.747)" fill="#fff"/>
      <g id="Group_6251" data-name="Group 6251" transform="translate(72.109 78.34)">
        <path id="Path_6974" data-name="Path 6974" d="M1764.291,1652.374c-.512-.543-2.934-.552-3.154.252s.206,1.378-.816,2.651a10.413,10.413,0,0,0,3.311,0C1764.269,1655.093,1764.8,1652.92,1764.291,1652.374Z" transform="translate(-1740.743 -1544.346)" fill="#fff"/>
        <path id="Path_6975" data-name="Path 6975" d="M1696.948,1309.026c1.436-10.946,20.91-9.823,22.2-.264.466,5.143,1.9,12.885-1.764,51.083,7.721,14.579,5.539,35.495,7.844,50.893.255,2.341-6.383,2.906-6.9.816-7.073-28.569-16.954-60.621-20.63-84.387C1696.371,1318.554,1696.236,1314.448,1696.948,1309.026Z" transform="translate(-1696.522 -1301.201)" fill="#de8706"/>
        <path id="Path_6976" data-name="Path 6976" d="M1747.253,1656.726a5.435,5.435,0,0,0,3.013-2.087,4.145,4.145,0,0,0,3.637,1.507c1.991-.3,2.252-1.221,3.682-1.1.6,1.675,2.068,5.432.654,6.3H1743.89C1742.57,1660.151,1743.208,1657.132,1747.253,1656.726Z" transform="translate(-1728.925 -1546.183)" fill="#fff"/>
      </g>
      <g id="Group_6253" data-name="Group 6253" transform="translate(0 37.737)">
        <path id="Path_6977" data-name="Path 6977" d="M1494.077,1260.449l-.727-3.649c1.783-.693,4.483-2.136,7.625-3.36l1.724,5.913C1499.223,1259.872,1496.139,1260.249,1494.077,1260.449Z" transform="translate(-1483.588 -1227.494)" fill="#f7a58e"/>
        <path id="Path_6978" data-name="Path 6978" d="M1518.21,1194.833c6.057-2.817,16.436-8.939,18.823-10.053l25.608-15.721c5.524-1.676,11.961,9.255,4.98,14.186,0,0-39.595,16.3-47.683,17.5Z" transform="translate(-1500.819 -1168.886)" fill="#d9f0f3"/>
        <g id="Group_6252" data-name="Group 6252" transform="translate(0 29.153)">
          <path id="Path_6979" data-name="Path 6979" d="M1479.6,1270.625c-2.476-.743-3.336-4.391-3.4-4.667l5.125-1.869c2.492-1.006,3.922,2.007,2.348,4.182C1483.672,1268.268,1481.96,1271.174,1479.6,1270.625Z" transform="translate(-1471.7 -1263.889)" fill="#f7a58e"/>
          <path id="Path_6980" data-name="Path 6980" d="M1467.226,1270.975c-5.919,1.27-5.689-.178-5.689-.178s2-.663,5.6-1.648C1469.224,1268.683,1468.65,1270.512,1467.226,1270.975Z" transform="translate(-1461.536 -1267.483)" fill="#f7a58e"/>
        </g>
      </g>
      <path id="XMLID_1_" d="M1647.189,1178.848c-1.231-5.99-1.89-11.9,4.284-15.622,3.661-2.2,15.426-3.781,20.925-1.958,5.542,2.476,4.345,13.281,5.382,30.343,3.82,8.516,5.48,11.311,6.61,19.605,0,0-2.044,6.248-16.439,6.257-6.536,0-16.166-.577-20.544-3.913.436-5.655,2.8-11.105,3.787-19.111C1651.194,1194.449,1647.278,1179.536,1647.189,1178.848Z" transform="translate(-1589.654 -1125.316)" fill="#d9f0f3"/>
      <g id="Group_6256" data-name="Group 6256" transform="translate(75.249 35.706)">
        <g id="Group_6254" data-name="Group 6254">
          <path id="Path_6981" data-name="Path 6981" d="M1717.207,1163.719c6.757,5.158,13.349,13.272,16.463,17.577s11.182,21.622,11.182,21.622l-5.134,3.787-13.889-18.924-16.967-13.916C1702.975,1167.853,1710.628,1158.693,1717.207,1163.719Z" transform="translate(-1706.757 -1162.267)" fill="#d9f0f3"/>
          <path id="Path_6982" data-name="Path 6982" d="M1817.546,1293.517l-3.329-6.877c-.783,2.068-4.594,3.956-5.686,3.916,0,0,3.578,5.149,4.453,6.024S1817.472,1295.972,1817.546,1293.517Z" transform="translate(-1777.3 -1248.474)" fill="#f7a58e"/>
        </g>
        <g id="Group_6255" data-name="Group 6255" transform="translate(34.599 44.213)">
          <path id="Path_6983" data-name="Path 6983" d="M1820.295,1309.255c.012.052,0,.12.012.172a4.941,4.941,0,0,0,2.611,3.968.281.281,0,0,0,.135.052c-1.81-.362-2.35,2.062-1.43,2.621,2.664,1.8,6.457-.678,6.779-2.179.325-1.525-2.707-6.576-2.707-6.576C1824.146,1306.064,1820.184,1306.257,1820.295,1309.255Z" transform="translate(-1820.052 -1306.514)" fill="#f7a58e"/>
          <path id="Path_6984" data-name="Path 6984" d="M1820.34,1314.377a4.762,4.762,0,0,0,2.7,4c1.491-.04,2.022-.132,3.446-.129-.93-.454-2.832-1.657-2.1-4C1822.933,1313.138,1820.739,1314.113,1820.34,1314.377Z" transform="translate(-1820.085 -1311.465)" fill="#f7a58e"/>
          <path id="Path_6985" data-name="Path 6985" d="M1819.724,1308.942a17.235,17.235,0,0,0,.328,7.125s1.43.074,1.3-2.627c-.034-.7.068-2.231.764-2.74,2.142-1.415,2.489-2.716,1.7-3.781C1822.768,1305.5,1819.807,1306.938,1819.724,1308.942Z" transform="translate(-1819.509 -1306.349)" fill="#f7a58e"/>
          <path id="Path_6986" data-name="Path 6986" d="M1831.005,1332.367c-1.163.807-4.241,2.369-4.726,1.982s1.976-3,3.563-3.351S1831.6,1331.953,1831.005,1332.367Z" transform="translate(-1824.159 -1323.394)" fill="#f7a58e"/>
        </g>
      </g>
    </g>
    <g id="male_02_2_" transform="translate(209.159)">
      <path id="Path_6987" data-name="Path 6987" d="M1447.207,628.976c3.323-4.815.264-19.8-13.928-24.1-11.989-3.093-18.231.7-34.448,5.115l2.421,18.983h45.956Z" transform="translate(-1372.13 -567.81)" fill="#d9f0f3"/>
      <path id="Path_6988" data-name="Path 6988" d="M1357.967,609.974s-29.054,6-39.779,9.945c-6.15,2.262-7.675,7.349-5.306,11.262,3.51,5.8,45.192,1.685,45.192,1.685C1372.454,628.843,1364.844,609.723,1357.967,609.974Z" transform="translate(-1311.822 -572.124)" fill="#d9f0f3"/>
      <path id="Path_6989" data-name="Path 6989" d="M1485.656,604.625s18.553,6.294,28.99,10.952c10.126.8,9.464,13.373,4.667,14.183-11.022,2.992-35.308-2.3-35.308-2.3C1469.929,622.475,1478.813,603.913,1485.656,604.625Z" transform="translate(-1425.987 -568.404)" fill="#d9f0f3"/>
      <path id="Path_6990" data-name="Path 6990" d="M1407.77,604.784s-5.849-8.9,8.669-15.8,24.282,0,21.864,8.344-10.977,13.913-10.977,13.913S1412.851,611.318,1407.77,604.784Z" transform="translate(-1377.52 -555.623)" fill="#d9f0f3"/>
      <path id="Path_6991" data-name="Path 6991" d="M1435.824,589.8c6.987-4.848,4.18-14.287,4.18-14.287l-2.645-5.048-2.2-4.2-11.655,4.489,2.12,8.629a22.258,22.258,0,0,0,1.844,4.281C1429.07,586.525,1431.782,589.784,1435.824,589.8Z" transform="translate(-1389.23 -541.826)" fill="#f7a28a"/>
      <path id="Path_6992" data-name="Path 6992" d="M1427.462,583.656a25.377,25.377,0,0,0,9.9-13.2l-2.2-4.2-11.655,4.489,2.12,8.629A21.9,21.9,0,0,0,1427.462,583.656Z" transform="translate(-1389.23 -541.826)" fill="#f0896c"/>
      <g id="Group_6257" data-name="Group 6257" transform="translate(17.753)">
        <path id="Path_6993" data-name="Path 6993" d="M1372.775,529.761a4.521,4.521,0,0,0-3.069,3.919c-.387,3.2,2.8,4.511,2.8,4.511s-2.084,4,2.317,5.616C1383.791,547.105,1382.917,527.76,1372.775,529.761Z" transform="translate(-1369.674 -516.426)" fill="#3d3d3d"/>
        <path id="Path_6994" data-name="Path 6994" d="M1385.06,521.151c2.749,8.11,8.469,15.705,13.072,13.815,7.807-3.207,14.358-11.928,11.118-21.112s-10.2-13.4-17.586-10.8S1381.933,511.927,1385.06,521.151Z" transform="translate(-1379.402 -497.49)" fill="#f7a28a"/>
        <path id="Path_6995" data-name="Path 6995" d="M1372.621,499.821c1.648,1.4,7.758,3.774,20.388-2.344a14.769,14.769,0,0,1,4.729,6.386c1.191-.282,1.672-.9,2.492.117,1.132,1.409,1.731,4.489.322,5.625a3.231,3.231,0,0,1-1.172.6c-.506,2.16-.025,4.535,1.715,5.063,2.688-2.163,2.363-2.664,3.354-5.152,3.136-2.2,3.142-7.03.617-8.35,2.4-2.246-.5-7.168-4.044-7.334.025-2.722-3.44-7.586-7.8-4.741.126-2.927-5.189-4.848-8.062-.537-2.317-3.161-9.347-1.249-9.077,2.952C1371.839,491.367,1369.5,497.084,1372.621,499.821Z" transform="translate(-1370.723 -486.633)" fill="#3d3d3d"/>
      </g>
      <g id="Group_6258" data-name="Group 6258" transform="translate(1.063 51.067)">
        <path id="Path_6996" data-name="Path 6996" d="M1315.293,658.859s-.736,7.052,12.259,8.184a262.2,262.2,0,0,0,27.289.911l1.332-5.588s-26.252-8.905-32.678-9.292C1315.842,652.611,1315.293,658.859,1315.293,658.859Z" transform="translate(-1315.285 -653.05)" fill="#f7a28a"/>
        <path id="Path_6997" data-name="Path 6997" d="M1442.939,679.151l8.292-1.731s5.342,2.556,7,5.879c-1.215,1.363-4.532-1.51-4.532-1.51s.335,5.557-.479,6.613-4.885,1.758-6.22.614.988-2.51.988-2.51l-6.063-1.657S1439.1,680.615,1442.939,679.151Z" transform="translate(-1402.371 -669.942)" fill="#f7a28a"/>
      </g>
      <path id="Path_6998" data-name="Path 6998" d="M1461.2,528.357a.227.227,0,1,0-.227.227A.226.226,0,0,0,1461.2,528.357Z" transform="translate(-1415.049 -515.396)" fill="#f7a28a"/>
      <g id="Group_6259" data-name="Group 6259" transform="translate(56.514 50.456)">
        <path id="Path_6999" data-name="Path 6999" d="M1543.832,653.447s4.376,5.579-6.024,13.453a262.246,262.246,0,0,1-22.616,15.3l-4.1-4.023s17.485-21.511,22.717-25.258C1540.043,648.448,1543.832,653.447,1543.832,653.447Z" transform="translate(-1506.456 -651.059)" fill="#f7a28a"/>
        <path id="Path_7000" data-name="Path 7000" d="M1500.617,736.157l-4.627,7.095s.439,5.9,2.931,8.66c1.712-.638.239-4.772.239-4.772s5.054,2.332,6.333,1.958,3.416-3.912,2.833-5.573-2.7.009-2.7.009l1-5.281C1507.454,735.31,1502.557,733.187,1500.617,736.157Z" transform="translate(-1495.99 -709.052)" fill="#f7a28a"/>
      </g>
    </g>
    <g id="male_01_2_" transform="translate(0 168.167)">
      <path id="Path_7001" data-name="Path 7001" d="M711.264,1056.935c.8,7.573-3.013,15.644-7.813,15.586-6.585-.08-15.1-5.5-15.9-13.072s3.854-14.272,10.406-14.969S710.46,1049.365,711.264,1056.935Z" transform="translate(-669.892 -1041.424)" fill="#f7b28a"/>
      <g id="Group_6260" data-name="Group 6260">
        <path id="Path_7002" data-name="Path 7002" d="M630.778,1652.474a58.432,58.432,0,0,1,12.308,0c4.471,2.952,6.4,2.78,6.4,2.78,1.912.5,2.762,3.124,1.1,3.124H630.22Z" transform="translate(-630.22 -1462.649)" fill="#fff"/>
        <path id="Path_7003" data-name="Path 7003" d="M739.56,1652.474a58.118,58.118,0,0,1,12.308,0c4.925,2.952,6.828,2.78,6.828,2.78,1.988.5,3.244,3.124,1.583,3.124H739.91Z" transform="translate(-706.008 -1462.649)" fill="#fff"/>
        <path id="Path_7004" data-name="Path 7004" d="M689.985,1111.8l-12.805-4.321,9.276-19.32,9,4.324Z" transform="translate(-662.77 -1071.741)" fill="#f7b28a"/>
        <path id="Path_7005" data-name="Path 7005" d="M737.526,1208.335s9.933,7.279,5.085,15c-3.615,5.757-15.18-.479-15.18-7.174C727.433,1210.127,732.079,1206.568,737.526,1208.335Z" transform="translate(-697.6 -1154.724)" fill="#d9f0f3"/>
        <path id="Path_7006" data-name="Path 7006" d="M639.46,1307s-2.387,4.14-3.986,12.388c-.568,2.931.1,16.187-.092,38.514a467.917,467.917,0,0,0-5.161,57.785l12.867-2.437,19.7-105.048Z" transform="translate(-630.22 -1223.427)" fill="#de8706"/>
        <path id="Path_7007" data-name="Path 7007" d="M697.824,1315.73c2.529,19.82,4.357,37.612,4.52,50.59l2.973,52.983-12.235,2.339c-2.507-16.442-6.683-36.977-7.343-56.024L672.4,1315.883Z" transform="translate(-659.456 -1229.478)" fill="#de8706"/>
        <path id="Path_7008" data-name="Path 7008" d="M647.316,1193.024c.847,5.125,1.31,5.468,1.31,5.468l32.595.721s-.97-5.174-.15-7.85a16.083,16.083,0,0,0-.028-4.357c-.31-3.317-1.013-8.156-1.958-13.456-2.035-11.388-5.183-24.893-7.954-29.965L656.9,1140.17s-6.346,6.435-7.742,12.133S646.466,1187.906,647.316,1193.024Z" transform="translate(-641.882 -1107.791)" fill="#b5e5ec"/>
        <path id="Path_7009" data-name="Path 7009" d="M722.64,1236.76l10.8,17.2c-.31-3.317-1.013-8.156-1.958-13.456Z" transform="translate(-694.28 -1174.741)" fill="#d9f0f3"/>
        <path id="Path_7010" data-name="Path 7010" d="M706.215,1222.79s-3.827,8.245.147,10.452,7.951-4.858,7.951-4.858Z" transform="translate(-681.746 -1165.058)" fill="#f7b28a"/>
        <path id="Path_7011" data-name="Path 7011" d="M699.688,1151.2l-2.756,17.789-8.574-10.093s-7.705-7.813-13.892-.761,3.474,14.106,3.474,14.106,14.107,11.483,23.113,10.289,3.385-31,3.385-31Z" transform="translate(-659.455 -1115.436)" fill="#d9f0f3"/>
        <path id="Path_7012" data-name="Path 7012" d="M758.19,1123.4l-1.39-6.776,3.541-5.379s1.32-.973,1.8,2.013c.97,1.39,2.154,2.418,2.013,3.986s-1.218,6.49-1.218,6.49Z" transform="translate(-717.957 -1087.639)" fill="#f7b28a"/>
        <path id="Path_7013" data-name="Path 7013" d="M679.17,1134.305l1.007-2.605,15.073,5.984,1.184,6.545Z" transform="translate(-664.149 -1101.92)" fill="#b5e5ec"/>
        <path id="Path_7014" data-name="Path 7014" d="M684.666,1060.432s-4.916-7.076-3.379-15.54,14.076-10.231,14.076-10.231,13.075-.77,16,12.538c-1.384,1.771-7.076-1.154-7.076-1.154l-9.356,8.537s.11-6.693-3.188-5-2.314,7.076-2.314,7.076S686.351,1059.895,684.666,1060.432Z" transform="translate(-665.41 -1034.653)"/>
      </g>
    </g>
  </g>
</svg>
