<svg id="Icon_awesome-wallet" data-name="Icon awesome-wallet" xmlns="http://www.w3.org/2000/svg" width="48.775" height="42.678" viewBox="0 0 48.775 42.678">
  <path id="Icon_awesome-wallet-2" data-name="Icon awesome-wallet" d="M43.935,11.4H7.621a1.524,1.524,0,0,1,0-3.048H44.2a1.524,1.524,0,0,0,1.524-1.524A4.573,4.573,0,0,0,41.154,2.25H6.1A6.1,6.1,0,0,0,0,8.347V38.831a6.1,6.1,0,0,0,6.1,6.1H43.935a4.716,4.716,0,0,0,4.839-4.573V15.968A4.716,4.716,0,0,0,43.935,11.4ZM39.629,31.21a3.048,3.048,0,1,1,3.048-3.048A3.049,3.049,0,0,1,39.629,31.21Z" transform="translate(0 -2.25)" fill="#de8706"/>
</svg>
