<svg id="cleaning" xmlns="http://www.w3.org/2000/svg" width="54.148" height="57.765" viewBox="0 0 54.148 57.765">
  <path id="Path_4865" data-name="Path 4865" d="M124.16,418.435c2.475-.394,4.878-.765,6.97-2.206-.4.041-.808.092-1.212.119-.435.029-.873.061-1.308.048-1.813-.057-3.626-.109-5.435-.214a1.516,1.516,0,0,1-.956-.431,11.516,11.516,0,0,1-2.937-5.492,1.979,1.979,0,0,1-.032-.359c0-.042.033-.086.05-.125,1.574.22,3.14.533,4.719.637,2.826.185,5.659.354,8.488.326a35.356,35.356,0,0,0,8.98-1.106c1.432-.39,2.813-.968,4.28-1.481-.557-1.378.134-2.232.873-3.057a1.293,1.293,0,0,1,1.879-.329c1.762,1.237,3.478,2.544,5.191,3.849a1.154,1.154,0,0,1,.285,1.508c-.528,1.232-1.065,1.852-1.919,2.1.13,1.206.281,2.426.387,3.648a52.532,52.532,0,0,1-.082,13.617,11.6,11.6,0,0,1-.765,2.4,1.74,1.74,0,0,1-1.7,1.163c-1.109-.029-2.216-.138-3.322-.245-.557-.054-.675-.323-.5-.9.611-2.028,1.224-4.063,1.681-6.129a25.119,25.119,0,0,0,.3-3.562l-.22-.031c-.284.875-.5,1.78-.864,2.619-.939,2.168-1.94,4.31-2.921,6.46-.224.492-.54.61-1.1.421a29.552,29.552,0,0,1-7.918-4.018c-.15-.108-.279-.245-.444-.39a18.9,18.9,0,0,0,6.477-6.518c-.141.086-.288.162-.421.258a22.9,22.9,0,0,1-6.835,3.74,10.306,10.306,0,0,1-1.267.3,2.04,2.04,0,0,1-1.935-.467c-1.892-1.806-3.842-3.551-5.761-5.329A9.055,9.055,0,0,1,124.16,418.435Z" transform="translate(-119.25 -375.283)" fill="#de8706"/>
  <path id="Path_4866" data-name="Path 4866" d="M340.4,233.978l-3.674-2.666c1.135-1.572,2.247-3.116,3.363-4.657q7.814-10.792,15.634-21.579a4.91,4.91,0,0,1,.757-.876,1.553,1.553,0,0,1,1.886-.18,1.5,1.5,0,0,1,.812,1.768,3.338,3.338,0,0,1-.435,1.134q-9.063,13.413-18.155,26.81C340.55,233.791,340.5,233.847,340.4,233.978Z" transform="translate(-305.083 -203.783)" fill="#de8706"/>
  <path id="Path_4867" data-name="Path 4867" d="M158.507,336.43a5.932,5.932,0,0,0,4.686,4.59,5.82,5.82,0,0,0-4.707,4.534,5.47,5.47,0,0,0-4.795-4.476A5.6,5.6,0,0,0,158.507,336.43Z" transform="translate(-148.678 -317.127)" fill="#de8706"/>
  <path id="Path_4868" data-name="Path 4868" d="M218.584,254.764c-2.277.531-3.767,1.64-4.3,3.9a4.756,4.756,0,0,0-3.8-3.836,4.874,4.874,0,0,0,3.813-3.962A5.054,5.054,0,0,0,218.584,254.764Z" transform="translate(-197.204 -244.018)" fill="#de8706"/>
  <path id="Path_4869" data-name="Path 4869" d="M278.98,319.636a3.519,3.519,0,0,0-2.83-2.74,3.6,3.6,0,0,0,2.826-2.956,3.89,3.89,0,0,0,2.821,2.9A3.925,3.925,0,0,0,278.98,319.636Z" transform="translate(-253.319 -297.91)" fill="#de8706"/>
</svg>
