<svg id="cooking" xmlns="http://www.w3.org/2000/svg" width="49.603" height="51.649" viewBox="0 0 49.603 51.649">
  <path id="Path_4910" data-name="Path 4910" d="M328.711,27.282a3.316,3.316,0,0,1-.629,1.314,3.026,3.026,0,0,1-2.049,1.147,2.958,2.958,0,0,1-2.876-1.377A3.032,3.032,0,0,1,325,23.818a2.922,2.922,0,0,1,3.286,1.377,8.292,8.292,0,0,1,.425.992C328.711,26.552,328.711,26.917,328.711,27.282Z" transform="translate(-279.11 -23.727)" fill="#de8706"/>
  <path id="Path_4911" data-name="Path 4911" d="M179.364,122.528v29.8H167.678v-.3c0-2.7.006-5.4-.009-8.1a2.643,2.643,0,0,1,.251-1.164q.7-1.495,1.372-3c.743-1.654,1.478-3.314,2.221-4.968.359-.8.73-1.6,1.091-2.4q.925-2.049,1.845-4.1a.759.759,0,0,0,.024-.118c-.4-.114-.782-.223-1.211-.348l-6.282,13.931c-.268-.241-.518-.462-.767-.683-.013-.011-.024-.024-.036-.036q-4.672-4.646-9.347-9.294c-.243-.243-.507-.464-.769-.7,1.149-1.085,2.275-2.144,3.434-3.239h-9.053c0,.174,0,.346,0,.518a4.817,4.817,0,0,1-1.214,3.108,7.889,7.889,0,0,1-2.9,2.156,20.051,20.051,0,0,1-2.079.672.751.751,0,0,1-.2-.009,6.461,6.461,0,0,0,2.524-1.422,9.225,9.225,0,0,0,.962-.814,5.212,5.212,0,0,0,1.493-2.61c.1-.52.144-1.05.215-1.6-.129-.013-.2-.024-.262-.024-.357,0-.717.028-1.07-.009a.857.857,0,0,0-1.044.58,2.568,2.568,0,0,1-1.168,1.093,5.587,5.587,0,0,1-2.339.745,6.466,6.466,0,0,1-3.106-.378,3.641,3.641,0,0,1-2.116-1.789,2.049,2.049,0,0,1-.178-1.319c.036-.168.137-.183.281-.183,1.089,0,2.176,0,3.265,0h7.38a4.327,4.327,0,0,0-.836-1.372,7.84,7.84,0,0,0-4.459-2.393,11.718,11.718,0,0,0-2.777-.2,9.655,9.655,0,0,0-3.771.84.513.513,0,0,1-.095.039.263.263,0,0,1-.187,0c.271-.172.53-.361.812-.511A8.162,8.162,0,0,1,140.2,122a13.884,13.884,0,0,1,2.307-.2,9.067,9.067,0,0,1,3.986.906,9.934,9.934,0,0,1,2.015,1.347,5.76,5.76,0,0,1,1.675,2.358.274.274,0,0,0,.161.125.673.673,0,0,0,.208,0q4.91,0,9.82,0c.176,0,.348-.019.425.2.017.045.071.075.107.112q1.92,1.92,3.84,3.842a2.415,2.415,0,0,1,.185.251c.206-.455.384-.842.556-1.229.253-.567.5-1.138.754-1.705q.822-1.83,1.647-3.658c.249-.552.49-1.106.752-1.652a.36.36,0,0,1,.266-.17q5.171-.013,10.342-.006C179.28,122.518,179.312,122.524,179.364,122.528Z" transform="translate(-133.117 -100.732)" fill="#de8706"/>
  <path id="Path_4912" data-name="Path 4912" d="M278.408,51.931a7.765,7.765,0,1,1-15.524-.352,7.765,7.765,0,0,1,15.524.352Z" transform="translate(-232.149 -39.72)" fill="#de8706"/>
  <path id="Path_4913" data-name="Path 4913" d="M129.437,183.9a4.452,4.452,0,0,0-1.592,6.368c-.361-.125-.685-.232-1.005-.348a12.067,12.067,0,0,1-2.631-1.345,10.5,10.5,0,0,1-3.256-3.252,6.9,6.9,0,0,1-1.018-2.919c-.045-.488-.09-.973-.135-1.482h24.227a10.2,10.2,0,0,1-.077,1.31,14.441,14.441,0,0,1-.466,1.877,6.451,6.451,0,0,1-1.209,2.118,13.172,13.172,0,0,1-3.475,2.867,3.684,3.684,0,0,0-.535-3.488,2.686,2.686,0,0,1,.054.292c.009.112-.011.228.006.339a3.793,3.793,0,0,1-.152,1.589,3.916,3.916,0,0,1-1.531,2.191,2.108,2.108,0,0,1-.558.23c-.095.034-.215.017-.3.064-.337.2-.558.011-.775-.21a4.25,4.25,0,0,1-1.276-3.479,3.721,3.721,0,0,1,.962-2.268c.382-.41.795-.788,1.145-1.132a7.649,7.649,0,0,0-3.312,1.469,4.087,4.087,0,0,0-1.456,2.01,3.44,3.44,0,0,0,.561,3.2c.221.3.485.569.722.84a3.546,3.546,0,0,1-2.412-1.394A4.65,4.65,0,0,1,129.437,183.9Z" transform="translate(-119.8 -147.158)" fill="#de8706"/>
  <path id="Path_4914" data-name="Path 4914" d="M146.632,247.7H121.49V243.19h25.142Z" transform="translate(-121.127 -196.054)" fill="#de8706"/>
  <path id="Path_4915" data-name="Path 4915" d="M163.952,228.1v1.954H151.92V228.1Z" transform="translate(-145.021 -184.205)" fill="#de8706"/>
  <path id="Path_4916" data-name="Path 4916" d="M133.82,149.67a8.393,8.393,0,0,1,1.349,2.835,3.453,3.453,0,0,1,.03.988.948.948,0,0,1-.973.874,2.8,2.8,0,0,1-.986-.114.758.758,0,0,1-.466-1.057,9.155,9.155,0,0,1,.49-1.141,5.278,5.278,0,0,0,.528-2.272A.694.694,0,0,1,133.82,149.67Z" transform="translate(-129.943 -122.62)" fill="#de8706"/>
</svg>
