<svg id="Component_19_1" data-name="Component 19 – 1" xmlns="http://www.w3.org/2000/svg" width="336.212" height="349.886" viewBox="0 0 336.212 349.886">
  <path id="Path_7289" data-name="Path 7289" d="M122.577,100.267C181.161,154.552,239.8,95.791,239.8,162.009a119.9,119.9,0,0,1-239.8,0C0,95.791,63.992,45.983,122.577,100.267Z" transform="translate(96.415 -77.148)" fill="#de8706" opacity="0.2"/>
  <g id="Group_6481" data-name="Group 6481" transform="translate(-158.58 -1928.977)">
    <g id="Group_3628" data-name="Group 3628" transform="translate(158.58 2207.908)">
      <g id="Group_1406" data-name="Group 1406">
        <g id="Group_1400" data-name="Group 1400" transform="translate(12.028)">
          <path id="Path_6702" data-name="Path 6702" d="M112.041,380.53c-.328.076,2.13,12.458,2.13,12.458h6.313l2.786-11.962A19.829,19.829,0,0,0,112.041,380.53Z" transform="translate(-112.01 -379.982)" fill="#e0e0e0"/>
        </g>
        <g id="Group_1404" data-name="Group 1404" transform="translate(0 4.827)">
          <g id="Group_1401" data-name="Group 1401" transform="translate(0.148 0.2)">
            <path id="Path_6703" data-name="Path 6703" d="M104.556,451.793s-9.283-26-7.985-33.054,4.084-8.542,6.313-10.771,4.084-4.084,4.641-6.313,0-11.145,0-11.145-1.672-2.6-1.115-3.527,14.3,0,14.3,0a6.261,6.261,0,0,1-1.115,3.16s-.374,10.4.183,11.512,9.1,10.588,10.4,15.413-5.13,34.726-5.13,34.726Z" transform="translate(-96.447 -386.568)" fill="#f5f5f5"/>
          </g>
          <g id="Group_1403" data-name="Group 1403">
            <g id="Group_1402" data-name="Group 1402">
              <path id="Path_6704" data-name="Path 6704" d="M104.511,451.73s.122-.008.359-.015c.252,0,.6-.008,1.046-.015.931-.008,2.282-.015,4.031-.031,3.519-.015,8.626-.038,15.061-.069l-.122.1c.794-3.779,1.641-8.061,2.511-12.779.855-4.718,1.779-9.855,2.4-15.374.145-1.382.282-2.786.313-4.206a7.077,7.077,0,0,0-.878-4.122,49.3,49.3,0,0,0-4.954-7.5c-.931-1.221-1.908-2.435-2.893-3.657-.489-.618-.992-1.221-1.473-1.87a5.587,5.587,0,0,1-.351-.519,2.662,2.662,0,0,1-.16-.634c-.061-.412-.084-.809-.107-1.214-.137-3.214-.046-6.466.053-9.771V390l.031-.046a7.406,7.406,0,0,0,.427-.733,5.894,5.894,0,0,0,.657-2.313l.183.2c-3.13-.2-6.229-.359-9.26-.4a28.623,28.623,0,0,0-4.458.176,1,1,0,0,0-.389.13.775.775,0,0,0-.092.4,3.255,3.255,0,0,0,.229,1.008,11.455,11.455,0,0,0,.962,1.908l.031.046v.046c.137,2.374.229,4.71.244,7.008a32,32,0,0,1-.13,3.428,6.9,6.9,0,0,1-1.237,3.153,20.6,20.6,0,0,1-2.115,2.527c-.756.771-1.5,1.534-2.275,2.252a24.686,24.686,0,0,0-2.2,2.176,11.713,11.713,0,0,0-1.634,2.5,20.021,20.021,0,0,0-1.672,5.489,13.023,13.023,0,0,0-.031,2.725c.061.9.183,1.779.313,2.641.55,3.45,1.344,6.6,2.084,9.435,1.519,5.68,2.962,10.153,3.954,13.229.5,1.519.886,2.7,1.153,3.519.13.389.229.687.3.908s.084.321.084.321-.046-.1-.122-.3c-.076-.214-.191-.511-.328-.9-.282-.794-.7-1.97-1.221-3.5-1.031-3.061-2.5-7.519-4.061-13.206a94.411,94.411,0,0,1-2.137-9.458c-.13-.87-.26-1.756-.321-2.664a12.682,12.682,0,0,1,.023-2.794,20.331,20.331,0,0,1,1.687-5.588,12.382,12.382,0,0,1,1.672-2.573,25.34,25.34,0,0,1,2.221-2.214c.763-.71,1.511-1.473,2.26-2.244a18.96,18.96,0,0,0,2.069-2.481,6.383,6.383,0,0,0,1.176-2.992,32.9,32.9,0,0,0,.122-3.382c-.015-2.29-.115-4.618-.252-6.985l.031.092a11.266,11.266,0,0,1-1.008-1.985,3.482,3.482,0,0,1-.252-1.137.775.775,0,0,1,.794-.924,29.139,29.139,0,0,1,4.542-.191c3.046.046,6.138.206,9.283.4l.2.015-.008.183a6.264,6.264,0,0,1-.7,2.5,8.2,8.2,0,0,1-.45.771l.031-.107c-.092,3.29-.191,6.55-.053,9.733.023.4.046.794.107,1.176a2.358,2.358,0,0,0,.122.519,5.115,5.115,0,0,0,.321.466c.466.626.969,1.244,1.458,1.855.985,1.229,1.954,2.443,2.893,3.672a49.054,49.054,0,0,1,4.985,7.573,10.59,10.59,0,0,1,.779,2.092,10.219,10.219,0,0,1,.13,2.2c-.031,1.443-.168,2.855-.321,4.237-.649,5.535-1.588,10.672-2.458,15.39-.886,4.71-1.763,8.993-2.573,12.771l-.023.1h-.1c-6.458-.031-11.588-.053-15.123-.069-1.741-.015-3.084-.023-4.008-.031-.443-.008-.779-.015-1.031-.015C104.625,451.738,104.511,451.73,104.511,451.73Z" transform="translate(-96.254 -386.305)" fill="#e0e0e0"/>
            </g>
          </g>
        </g>
        <g id="Group_1405" data-name="Group 1405" transform="translate(3.155 36.835)">
          <path id="Path_6705" data-name="Path 6705" d="M124.207,458.957a148.572,148.572,0,0,0,4.664-26.543,3.413,3.413,0,0,0-.695-2.886c-.947-.824-2.4-.382-3.6,0a21.7,21.7,0,0,1-10.893.58c-3.519-.725-7.008-2.336-10.558-1.748a3.364,3.364,0,0,0-2.328,1.229,4.2,4.2,0,0,0-.275,3,209.6,209.6,0,0,0,6.557,26.367Z" transform="translate(-100.387 -428.234)" fill="#e0e0e0"/>
        </g>
      </g>
      <g id="Group_1408" data-name="Group 1408" transform="translate(6.18 39.196)">
        <g id="Group_1407" data-name="Group 1407">
          <path id="Path_6706" data-name="Path 6706" d="M127.48,431.329a4.432,4.432,0,0,1-.672.725,16.807,16.807,0,0,1-2.1,1.695,18.767,18.767,0,0,1-17.077,2.145,16.207,16.207,0,0,1-2.45-1.122,4.2,4.2,0,0,1-.832-.542c.038-.069,1.237.679,3.374,1.389a19.471,19.471,0,0,0,16.825-2.115C126.45,432.3,127.427,431.276,127.48,431.329Z" transform="translate(-104.35 -431.327)" fill="#fff"/>
        </g>
      </g>
    </g>
    <g id="Group_3623" data-name="Group 3623" transform="translate(375.015 1998.448)">
      <g id="Group_1315" data-name="Group 1315" transform="translate(0 3.677)">
        <path id="Path_6678" data-name="Path 6678" d="M399.314,115.159a10.65,10.65,0,0,0-18.672,1.748,12.23,12.23,0,0,0,.153,9.4,16.923,16.923,0,0,0,6.153,7.267c6.97,4.741,17.069,4.534,23.543-.863a12.946,12.946,0,0,0,4.779-7.84,9.758,9.758,0,0,0-14.435-9.893" transform="translate(-379.775 -110.413)" fill="#f24646"/>
      </g>
      <g id="Group_1316" data-name="Group 1316" transform="translate(15.015 5.672)">
        <path id="Path_6679" data-name="Path 6679" d="M404,115.77a3.717,3.717,0,0,0-3.939-2.718c.779.924,1.557,1.855,2.328,2.779a3.6,3.6,0,0,0-2.863,2.244c-.107.282-.145.687.13.824a.731.731,0,0,0,.588-.061c.947-.389,1.886-.786,2.832-1.176a9.765,9.765,0,0,0,1.687,4.4,11.674,11.674,0,0,0,1.069-4.428c1.046.466,2.084.924,3.13,1.389a4.694,4.694,0,0,0-1.473-2.321,7.743,7.743,0,0,0,2.618-1.023c.244-.153.5-.4.4-.672-.084-.2-.336-.26-.557-.275a10.358,10.358,0,0,0-5.97,1.237" transform="translate(-399.445 -113.027)" fill="#018424"/>
      </g>
      <g id="Group_1317" data-name="Group 1317" transform="translate(18.584)">
        <path id="Path_6680" data-name="Path 6680" d="M404.9,115.18a20.348,20.348,0,0,0-.779-9.451c.748-.168,1.664-.275,2.145.313a1.939,1.939,0,0,1,.313,1.26,22.119,22.119,0,0,1-1.672,8.71" transform="translate(-404.12 -105.597)" fill="#018424"/>
      </g>
      <g id="Group_1319" data-name="Group 1319" transform="translate(1.512 5.864)">
        <g id="Group_1318" data-name="Group 1318">
          <path id="Path_6681" data-name="Path 6681" d="M384.408,128.341a2.283,2.283,0,0,1-.489-.489,8.518,8.518,0,0,1-1.046-1.573,9.658,9.658,0,0,1,1.908-11.542,8.8,8.8,0,0,1,1.5-1.153,2.292,2.292,0,0,1,.618-.305,20.856,20.856,0,0,0-1.947,1.634,9.841,9.841,0,0,0-1.863,11.267A20.3,20.3,0,0,0,384.408,128.341Z" transform="translate(-381.756 -113.278)" fill="#fff"/>
        </g>
      </g>
      <g id="Group_1321" data-name="Group 1321" transform="translate(5.579 22.072)">
        <g id="Group_1320" data-name="Group 1320">
          <path id="Path_6682" data-name="Path 6682" d="M388.806,135.739c-.031.084-.527-.023-1.023-.374s-.763-.786-.687-.847.427.244.885.565S388.844,135.647,388.806,135.739Z" transform="translate(-387.083 -134.51)" fill="#fff"/>
        </g>
      </g>
    </g>
    <g id="Group_3625" data-name="Group 3625" transform="translate(232.147 2049.104)">
      <g id="Group_1353" data-name="Group 1353">
        <g id="Group_1352" data-name="Group 1352">
          <g id="Group_1351" data-name="Group 1351">
            <g id="Group_1350" data-name="Group 1350">
              <g id="Group_1349" data-name="Group 1349">
                <path id="Path_6685" data-name="Path 6685" d="M192.628,171.959A13.523,13.523,0,0,1,195.01,174c1.4,1.328,3.29,3.191,5.351,5.275s3.886,4.008,5.191,5.42a13.677,13.677,0,0,1,2,2.4,13.6,13.6,0,0,1-2.374-2.038c-1.4-1.328-3.3-3.191-5.359-5.29s-3.9-4.015-5.2-5.435A12.386,12.386,0,0,1,192.628,171.959Z" transform="translate(-192.623 -171.955)" fill="#e0e0e0"/>
              </g>
            </g>
          </g>
        </g>
      </g>
    </g>
    <g id="Group_1414" data-name="Group 1414" transform="translate(377.659 2227.831)">
      <path id="Path_6709" data-name="Path 6709" d="M385.026,414.286c3.718-2.68,7.5-5.382,11.81-6.947s9.283-1.87,13.359.229a16.2,16.2,0,0,1,7.283,8.611,22.6,22.6,0,0,1,.84,13.932c-.649,2.489-1.939,5.061-4.305,6.069s-5.092.137-7.443-.908a48.806,48.806,0,0,1-19.39-15.71,3.264,3.264,0,0,1,3.6-.321,12.783,12.783,0,0,1,3.015,2.359,24.722,24.722,0,0,0,10.489,5.634c2.886.733,6.771.412,7.733-2.4.634-1.84-.374-3.8-1.343-5.489-1.115-1.931-2.389-4-4.481-4.771a9.725,9.725,0,0,0-4.954-.015l-17.993,3.092c.374-.114.741-.221,1.115-.336" transform="translate(-383.24 -406.08)" fill="#3d99a7"/>
    </g>
    <g id="Group_1418" data-name="Group 1418" transform="translate(249.365 1992.192)">
      <g id="Group_1415" data-name="Group 1415">
        <path id="Path_6710" data-name="Path 6710" d="M300.319,98.461c-11.871-3.313-29.459,1.3-36.176,11.626s-3.756,25.65-4.283,37.963-.038,24.8-2.985,36.772c-1.878,7.611-5.473,15.29-12.084,19.5-7.55,4.809-18.886,5.283-22.459,13.5-2.985,6.855,1.641,15.268-1.366,22.115-1.336,3.031-4.023,5.336-5.183,8.435-1.6,4.29.153,9.283,3.305,12.6s7.466,5.267,11.764,6.847a104.9,104.9,0,0,0,40.94,6.3c10.13-.473,20.993-2.87,27.634-10.527,5.214-6.015,6.931-14.26,7.878-22.161,5.817-48.734,6.847-102.27-6.985-142.973" transform="translate(-215.179 -97.401)" fill="#263238"/>
      </g>
      <g id="Group_1417" data-name="Group 1417" transform="translate(16.73 85.672)">
        <g id="Group_1416" data-name="Group 1416">
          <path id="Path_6711" data-name="Path 6711" d="M239.328,272.883c.1-.046-.45-.969-.985-2.794a18.92,18.92,0,0,1-.45-7.924,27.755,27.755,0,0,1,4.3-10.962,56.786,56.786,0,0,1,9.832-10.756c3.886-3.481,7.725-6.687,10.832-10.038a39.4,39.4,0,0,0,6.916-9.924,23.191,23.191,0,0,0,2.183-7.863,14.444,14.444,0,0,0,.015-2.221,2.173,2.173,0,0,0-.1-.771c-.237-.061.382,4.428-2.687,10.565a40.42,40.42,0,0,1-6.954,9.626c-3.084,3.267-6.924,6.443-10.825,9.932a55.589,55.589,0,0,0-9.932,10.985,27.7,27.7,0,0,0-4.229,11.336,18.13,18.13,0,0,0,.748,8.122,12.253,12.253,0,0,0,.916,2.031A2.87,2.87,0,0,0,239.328,272.883Z" transform="translate(-237.094 -209.629)" fill="#455a64"/>
        </g>
      </g>
    </g>
    <g id="Group_1419" data-name="Group 1419" transform="translate(294.199 2228.388)">
      <path id="Path_6712" data-name="Path 6712" d="M277.88,406.81,273.91,456.7l119.263.588L360.752,411.7Z" transform="translate(-273.91 -406.81)" fill="#de8706"/>
    </g>
    <g id="Group_1459" data-name="Group 1459" transform="translate(187.36 2058.399)">
      <g id="Group_1420" data-name="Group 1420" transform="translate(5.542 50.001)">
        <path id="Path_6713" data-name="Path 6713" d="M152.2,249.63c.336.29-6.985,39.36-10.672,58.91a17.789,17.789,0,0,0,6.825,17.542h0a17.8,17.8,0,0,0,19.336,1.283l49.658-25.84L202.121,269.7l-31.314,17.764,2.053-33.123Z" transform="translate(-141.215 -249.63)" fill="#ffbe9d"/>
      </g>
      <g id="Group_1454" data-name="Group 1454">
        <g id="Group_1421" data-name="Group 1421" transform="translate(19.881 17.162)">
          <path id="Path_6714" data-name="Path 6714" d="M173.6,208.389c-.359-1.4-2.122-2.038-3.519-1.679a8.3,8.3,0,0,0-3.542,2.4l-4.015,2.435a5.6,5.6,0,0,0-2.5,4.573,16.638,16.638,0,0,0,.84,5.344c.412,1.527,1.008,3.26,2.489,3.817,1.634.611,3.45-.657,4.229-2.221s.847-3.374,1.252-5.076a13.259,13.259,0,0,1,2.817-5.535C172.649,211.259,173.985,209.916,173.6,208.389Z" transform="translate(-159.998 -206.612)" fill="#eb996e"/>
        </g>
        <g id="Group_1440" data-name="Group 1440" transform="translate(0 17.251)">
          <g id="Group_1422" data-name="Group 1422">
            <path id="Path_6715" data-name="Path 6715" d="M134.073,209.974a2.492,2.492,0,0,1,2.58-3.237c8.153.672,27.52,3.382,39.009,6.687,16.29,4.687,27.016,7.718,27.016,7.718l34.6-.771s-4.153,11.924-17.336,11.985c-9.977.046-20.436-6.367-20.436-6.367s-44.337-15.1-62.956-14.283a2.463,2.463,0,0,1-2.473-1.733Z" transform="translate(-133.955 -206.729)" fill="#455a64"/>
          </g>
          <g id="Group_1423" data-name="Group 1423" transform="translate(74.762 13.765)">
            <path id="Path_6716" data-name="Path 6716" d="M253.975,224.76c.42,1.206-.985,2.283-2.244,2.519s-2.7.168-3.611,1.076a3.5,3.5,0,0,0-.763,2.817,26.423,26.423,0,0,1,.351,2.992,2.71,2.71,0,0,1-.664,1.863,2.507,2.507,0,0,1-3.458-.336,5.847,5.847,0,0,1-1.244-3.6,10.3,10.3,0,0,0-.4-2.741,2.592,2.592,0,0,0-1.947-1.786c-1.1-.137-2.053.687-3.1,1.053a3.958,3.958,0,0,1-5-3.321Z" transform="translate(-231.89 -224.76)" fill="#e8505b"/>
          </g>
          <g id="Group_1425" data-name="Group 1425" transform="translate(0.248 1.36)">
            <g id="Group_1424" data-name="Group 1424">
              <path id="Path_6717" data-name="Path 6717" d="M146.616,208.51a15.051,15.051,0,0,1-1.679.794,18.909,18.909,0,0,1-8.817,1.313,14.3,14.3,0,0,1-1.84-.275s.176.015.5.069.779.107,1.351.153a20.042,20.042,0,0,0,4.473-.153,19.812,19.812,0,0,0,4.321-1.16c.534-.214.962-.4,1.252-.534S146.616,208.51,146.616,208.51Z" transform="translate(-134.28 -208.51)" fill="#263238"/>
            </g>
          </g>
          <g id="Group_1427" data-name="Group 1427" transform="translate(13.905 3.176)">
            <g id="Group_1426" data-name="Group 1426">
              <path id="Path_6718" data-name="Path 6718" d="M166.025,211.264a.525.525,0,0,1-.145-.008l-.412-.046c-.359-.046-.878-.1-1.527-.137a22.555,22.555,0,0,0-9.863,1.641c-.6.244-1.076.458-1.4.618l-.374.176a1.1,1.1,0,0,1-.137.053c0-.008.038-.031.122-.084.115-.069.237-.13.366-.206.313-.176.786-.412,1.382-.672a20.942,20.942,0,0,1,9.909-1.649c.649.053,1.168.122,1.527.183.145.023.282.053.412.076A1.152,1.152,0,0,1,166.025,211.264Z" transform="translate(-152.17 -210.889)" fill="#263238"/>
            </g>
          </g>
          <g id="Group_1429" data-name="Group 1429" transform="translate(19.547 5.45)">
            <g id="Group_1428" data-name="Group 1428">
              <path id="Path_6719" data-name="Path 6719" d="M179.118,217.717s-.573-.16-1.6-.473c-.527-.16-1.153-.351-1.863-.565a2.062,2.062,0,0,1-1.053-.6.7.7,0,0,1-.115-.649.774.774,0,0,1,.511-.473,2.621,2.621,0,0,1,1.5-.023c.511.1,1.046.221,1.588.374a19.3,19.3,0,0,1,3.351,1.29c.565.282,1.137.6,1.695.947a2.428,2.428,0,0,1,.786.641.548.548,0,0,1,.061.519.807.807,0,0,1-.382.366,8.388,8.388,0,0,1-4.206.466c-2.931-.374-5.42-1.786-7.641-2.954a21.683,21.683,0,0,0-6.206-2.473,9.249,9.249,0,0,0-4.473.168,7.032,7.032,0,0,0-1.137.466c-.244.137-.374.206-.374.206s.122-.076.366-.221a6.689,6.689,0,0,1,1.13-.481,9.165,9.165,0,0,1,4.489-.191,21.673,21.673,0,0,1,6.229,2.466c2.229,1.16,4.7,2.565,7.618,2.939a8.273,8.273,0,0,0,4.16-.458.722.722,0,0,0,.351-.321.5.5,0,0,0-.053-.45,2.521,2.521,0,0,0-.763-.618c-.557-.351-1.122-.664-1.687-.947a19.8,19.8,0,0,0-3.336-1.29c-.542-.153-1.069-.275-1.58-.374a2.651,2.651,0,0,0-1.466.015.735.735,0,0,0-.481.443.653.653,0,0,0,.107.6,2.028,2.028,0,0,0,1.023.588c.71.221,1.336.412,1.863.573C178.553,217.534,179.118,217.717,179.118,217.717Z" transform="translate(-159.56 -213.868)" fill="#263238"/>
            </g>
          </g>
          <g id="Group_1431" data-name="Group 1431" transform="translate(45.165 8.62)">
            <g id="Group_1430" data-name="Group 1430">
              <path id="Path_6720" data-name="Path 6720" d="M195.1,218.02a2.236,2.236,0,0,1,.267.725,2.908,2.908,0,0,1-1.519,3.183,2.323,2.323,0,0,1-.733.252,4.878,4.878,0,0,0,.71-.3,2.943,2.943,0,0,0,1.489-3.122A4.966,4.966,0,0,0,195.1,218.02Z" transform="translate(-193.12 -218.02)" fill="#263238"/>
            </g>
          </g>
          <g id="Group_1433" data-name="Group 1433" transform="translate(48.211 11.824)">
            <g id="Group_1432" data-name="Group 1432">
              <path id="Path_6721" data-name="Path 6721" d="M210.1,222.67s-.748.008-1.954-.076c-1.206-.069-2.87-.26-4.718-.282a11.612,11.612,0,0,0-4.618.733,6,6,0,0,0-.733.351,3.18,3.18,0,0,0-.527.321c-.275.191-.435.29-.435.29s.145-.115.42-.321a3.229,3.229,0,0,1,.519-.336,4.68,4.68,0,0,1,.733-.366,11.4,11.4,0,0,1,4.641-.763c1.847.023,3.512.221,4.718.305.6.046,1.092.084,1.428.1Z" transform="translate(-197.11 -222.217)" fill="#263238"/>
            </g>
          </g>
          <g id="Group_1435" data-name="Group 1435" transform="translate(52.143 14.676)">
            <g id="Group_1434" data-name="Group 1434">
              <path id="Path_6722" data-name="Path 6722" d="M225.963,235.073s-.275-.237-.771-.679c-.244-.221-.542-.489-.908-.779s-.771-.641-1.252-.985a33.68,33.68,0,0,0-3.458-2.267,33.615,33.615,0,0,0-9.42-3.611,34.46,34.46,0,0,0-4.084-.626c-.588-.069-1.122-.076-1.588-.107s-.87-.031-1.2-.031c-.656,0-1.023-.008-1.023-.008s.366-.015,1.023-.023c.328-.008.733-.008,1.2.015s1,.023,1.588.092a32.639,32.639,0,0,1,4.1.611,37.233,37.233,0,0,1,4.863,1.443,35.568,35.568,0,0,1,4.58,2.176,33.594,33.594,0,0,1,3.458,2.282c.481.344.878.695,1.244.992a11.927,11.927,0,0,1,.9.794C225.7,234.821,225.963,235.073,225.963,235.073Z" transform="translate(-202.26 -225.954)" fill="#263238"/>
            </g>
          </g>
          <g id="Group_1437" data-name="Group 1437" transform="translate(68.746 14.727)">
            <g id="Group_1436" data-name="Group 1436">
              <path id="Path_6723" data-name="Path 6723" d="M241.117,235.348a4.284,4.284,0,0,1-.748.305,6.214,6.214,0,0,1-2.191.267,8.536,8.536,0,0,1-3.168-.817,13.977,13.977,0,0,1-3.3-2.29c-1.061-.962-1.985-1.954-2.84-2.84a30.907,30.907,0,0,0-2.374-2.26,15.093,15.093,0,0,0-1.786-1.29c-.221-.13-.4-.237-.519-.3s-.183-.107-.183-.107a11.383,11.383,0,0,1,2.527,1.657,30.627,30.627,0,0,1,2.389,2.252c.863.886,1.786,1.878,2.84,2.832a13.829,13.829,0,0,0,3.275,2.283,8.631,8.631,0,0,0,3.137.832,6.3,6.3,0,0,0,2.183-.244,3.9,3.9,0,0,0,.565-.206C241.049,235.371,241.117,235.348,241.117,235.348Z" transform="translate(-224.01 -226.02)" fill="#263238"/>
            </g>
          </g>
          <g id="Group_1439" data-name="Group 1439" transform="translate(92.449 20.294)">
            <g id="Group_1438" data-name="Group 1438">
              <path id="Path_6724" data-name="Path 6724" d="M261.572,233.4a1.772,1.772,0,0,1-.267-.008c-.168-.015-.42-.023-.725-.023a10.85,10.85,0,0,0-4.634,1c-.275.13-.5.237-.649.321a1.085,1.085,0,0,1-.237.115,6.724,6.724,0,0,1,.863-.489,10.337,10.337,0,0,1,2.267-.779,9.883,9.883,0,0,1,2.389-.221A7.024,7.024,0,0,1,261.572,233.4Z" transform="translate(-255.06 -233.313)" fill="#263238"/>
            </g>
          </g>
        </g>
        <g id="Group_1441" data-name="Group 1441" transform="translate(3.328 17.003)">
          <path id="Path_6725" data-name="Path 6725" d="M138.685,230.088l-.366-7.138a3.531,3.531,0,0,1,.6-2.168l.046-.069a15.557,15.557,0,0,1,4.7-4.527l15.382-9.535a1.636,1.636,0,0,1,2.481,1.092c.2,1.26-.359,4.13-1.473,5.267a36.828,36.828,0,0,1-6.458,4.718l15.436-2.992a4.382,4.382,0,0,1-2.023,5.374l6.344-1.344s2.069,2.954-.756,4.9a39.563,39.563,0,0,1-7.886,3.634s7.878,3.321,7.687,5.97-.29,11.13-.29,11.13l-21.146-1.557Z" transform="translate(-138.314 -206.403)" fill="#ffbe9d"/>
        </g>
        <g id="Group_1443" data-name="Group 1443" transform="translate(34.036 25.169)">
          <g id="Group_1442" data-name="Group 1442">
            <path id="Path_6726" data-name="Path 6726" d="M178.54,217.1" transform="translate(-178.54 -217.1)" fill="none" stroke="#4e585d" stroke-width="0.02"/>
          </g>
        </g>
        <g id="Group_1445" data-name="Group 1445" transform="translate(10.498 27.87)">
          <g id="Group_1444" data-name="Group 1444">
            <path id="Path_6727" data-name="Path 6727" d="M156.374,220.64a.442.442,0,0,1-.145.084c-.137.069-.282.145-.443.221-.382.191-.939.466-1.611.832s-1.443.847-2.283,1.4c-.832.573-1.817,1.122-2.725,1.832a3.607,3.607,0,0,0-1.038,1.282,3.546,3.546,0,0,0-.275,1.519,11.073,11.073,0,0,0,.5,2.618,9.638,9.638,0,0,1,.351,1.779,3.193,3.193,0,0,1-.008.664c-.015,0-.008-.237-.053-.664a11.183,11.183,0,0,0-.4-1.756,10.444,10.444,0,0,1-.542-2.641,3.625,3.625,0,0,1,.275-1.58,3.8,3.8,0,0,1,1.076-1.344,14.542,14.542,0,0,1,1.412-.969c.458-.3.908-.58,1.336-.863.847-.55,1.626-1.031,2.313-1.382s1.244-.611,1.634-.786c.16-.069.313-.137.45-.2A.7.7,0,0,1,156.374,220.64Z" transform="translate(-147.707 -220.638)" fill="#eb996e"/>
          </g>
        </g>
        <g id="Group_1447" data-name="Group 1447" transform="translate(17.781 29.199)">
          <g id="Group_1446" data-name="Group 1446">
            <path id="Path_6728" data-name="Path 6728" d="M160.066,237.075s-.069-.076-.191-.237c-.153-.191-.321-.42-.527-.679q-.366-.47-.847-1.076a8.182,8.182,0,0,1-.97-1.534,4.07,4.07,0,0,1,.97-4.4,8.482,8.482,0,0,1,2.374-1.458c.87-.412,1.786-.809,2.733-1.2a73.3,73.3,0,0,1,9.97-3.183c1.3-.321,2.359-.55,3.092-.71.328-.069.6-.122.847-.168a2.661,2.661,0,0,1,.3-.046s-.1.031-.29.076c-.237.053-.511.122-.84.2-.725.176-1.786.42-3.076.756a79.939,79.939,0,0,0-9.939,3.221q-1.42.584-2.725,1.191a8.608,8.608,0,0,0-2.344,1.42,3.972,3.972,0,0,0-.962,4.26,7.929,7.929,0,0,0,.931,1.527c.305.412.58.771.824,1.092.221.3.4.534.5.7S160.066,237.075,160.066,237.075Z" transform="translate(-157.247 -222.38)" fill="#eb996e"/>
          </g>
        </g>
        <g id="Group_1449" data-name="Group 1449" transform="translate(27.394 34.412)">
          <g id="Group_1448" data-name="Group 1448">
            <path id="Path_6729" data-name="Path 6729" d="M179.413,229.21a2.315,2.315,0,0,1-.351.214c-.313.168-.641.343-.985.519-.832.427-2,1.015-3.313,1.588a33.4,33.4,0,0,1-3.451,1.275c-.45.137-.817.237-1.076.305a2.8,2.8,0,0,1-.4.084,2.816,2.816,0,0,1,.382-.145c.336-.114.687-.229,1.053-.351.886-.3,2.107-.74,3.42-1.313s2.481-1.137,3.328-1.542c.351-.168.687-.321,1.008-.473A2.1,2.1,0,0,1,179.413,229.21Z" transform="translate(-169.84 -229.209)" fill="#eb996e"/>
          </g>
        </g>
        <g id="Group_1451" data-name="Group 1451" transform="translate(80.637 0.366)">
          <g id="Group_1450" data-name="Group 1450">
            <path id="Path_6730" data-name="Path 6730" d="M241.3,184.61c.023.015-.26.351-.611,1.061a7.469,7.469,0,0,0-.695,3.229,7.068,7.068,0,0,0,1.657,4.527c.6.71,1.344,1.351,2.076,2.053a6.97,6.97,0,0,1,1.855,2.55,4.476,4.476,0,0,1-.092,3.137,10.016,10.016,0,0,1-1.519,2.527c-.58.733-1.206,1.374-1.756,1.992a15.56,15.56,0,0,0-1.42,1.809,6.084,6.084,0,0,0-1.145,3.076,5.528,5.528,0,0,0,.107,1.214s-.031-.107-.084-.305a3.438,3.438,0,0,1-.084-.908,6.119,6.119,0,0,1,1.115-3.137,15.029,15.029,0,0,1,1.412-1.84c.557-.626,1.168-1.267,1.741-2a9.966,9.966,0,0,0,1.489-2.489,4.33,4.33,0,0,0,.084-3.023,6.94,6.94,0,0,0-1.817-2.5c-.725-.7-1.473-1.351-2.084-2.076a7.132,7.132,0,0,1-1.656-4.626,7.266,7.266,0,0,1,.756-3.252A5.6,5.6,0,0,1,241.3,184.61Z" transform="translate(-239.586 -184.61)" fill="#263238"/>
          </g>
        </g>
        <g id="Group_1453" data-name="Group 1453" transform="translate(87.637)">
          <g id="Group_1452" data-name="Group 1452">
            <path id="Path_6731" data-name="Path 6731" d="M250.469,184.13c.023.015-.26.351-.611,1.061a7.468,7.468,0,0,0-.695,3.229,7.067,7.067,0,0,0,1.656,4.527c.6.71,1.344,1.351,2.076,2.053a6.97,6.97,0,0,1,1.855,2.55,4.474,4.474,0,0,1-.092,3.137,10.017,10.017,0,0,1-1.519,2.527c-.58.733-1.206,1.374-1.756,1.992a15.559,15.559,0,0,0-1.42,1.809,6.084,6.084,0,0,0-1.145,3.076,5.521,5.521,0,0,0,.107,1.214s-.031-.107-.084-.305a3.437,3.437,0,0,1-.084-.908,6.12,6.12,0,0,1,1.115-3.138,15.039,15.039,0,0,1,1.412-1.84c.557-.626,1.168-1.267,1.741-2a9.966,9.966,0,0,0,1.489-2.489,4.33,4.33,0,0,0,.084-3.023,6.94,6.94,0,0,0-1.817-2.5c-.725-.7-1.473-1.351-2.084-2.076a7.132,7.132,0,0,1-1.657-4.626,7.265,7.265,0,0,1,.756-3.252A6.627,6.627,0,0,1,250.469,184.13Z" transform="translate(-248.756 -184.13)" fill="#263238"/>
          </g>
        </g>
      </g>
      <g id="Group_1456" data-name="Group 1456" transform="translate(34.503 86.697)">
        <g id="Group_1455" data-name="Group 1455">
          <path id="Path_6732" data-name="Path 6732" d="M179.158,323.487c-.046,0,.176-5.779.5-12.893s.611-12.893.657-12.893-.176,5.779-.5,12.9S179.2,323.487,179.158,323.487Z" transform="translate(-179.152 -297.7)" fill="#eb996e"/>
        </g>
      </g>
      <g id="Group_1458" data-name="Group 1458" transform="translate(17.103 53.589)">
        <g id="Group_1457" data-name="Group 1457">
          <path id="Path_6733" data-name="Path 6733" d="M160.49,258.757a28.923,28.923,0,0,1-2.122-2.16,27.958,27.958,0,0,1-2.008-2.267,28.96,28.96,0,0,1,2.122,2.16A29.9,29.9,0,0,1,160.49,258.757Z" transform="translate(-156.359 -254.329)" fill="#eb996e"/>
        </g>
      </g>
    </g>
    <g id="Group_1460" data-name="Group 1460" transform="translate(291.497 2226.754)">
      <path id="Path_6734" data-name="Path 6734" d="M276.584,404.67l-6.214,52.1H357.1l-14.451-37.054L362.533,415s-1.336-3.741-2.618-3.809S276.584,404.67,276.584,404.67Z" transform="translate(-270.37 -404.67)" fill="#3d99a7"/>
    </g>
    <g id="Group_1461" data-name="Group 1461" transform="translate(253.175 2100.262)">
      <path id="Path_6735" data-name="Path 6735" d="M220.17,265.849s33.642-21.787,42.49-24.756c5.443-1.824,21.787-2.122,21.787-2.122l-30.634,52.36L236.4,299.8Z" transform="translate(-220.17 -238.97)" fill="#d9f0f3"/>
    </g>
    <g id="Group_1462" data-name="Group 1462" transform="translate(283.55 2097.43)">
      <path id="Path_6736" data-name="Path 6736" d="M398.223,301.582c-10.275-24.81-26.909-52.841-31.825-57.65s-35.108-8.672-35.108-8.672l-39.589,4.3L259.96,283.04,273.853,350.9l-.473.908a12.508,12.508,0,0,0,.733,12.787h0l83.33,6.519.107-64.254Z" transform="translate(-259.96 -235.26)" fill="#d9f0f3"/>
    </g>
    <g id="Group_1464" data-name="Group 1464" transform="translate(308.818 2200.12)">
      <g id="Group_1463" data-name="Group 1463">
        <path id="Path_6737" data-name="Path 6737" d="M353.909,369.78a4.618,4.618,0,0,1-.412.55c-.29.344-.679.878-1.252,1.512a48.161,48.161,0,0,1-5.153,5.054,50.986,50.986,0,0,1-21.107,10.664,51.076,51.076,0,0,1-23.657-.153,48.429,48.429,0,0,1-6.863-2.229c-.794-.305-1.382-.611-1.794-.794a5.732,5.732,0,0,1-.611-.305,3.755,3.755,0,0,1,.641.237c.42.16,1.015.435,1.817.725a51.415,51.415,0,0,0,6.87,2.1,51.951,51.951,0,0,0,10.558,1.351,51.306,51.306,0,0,0,33.97-11.809,52.963,52.963,0,0,0,5.222-4.939c.588-.611,1-1.13,1.305-1.458A4.653,4.653,0,0,1,353.909,369.78Z" transform="translate(-293.06 -369.78)" fill="#263238"/>
      </g>
    </g>
    <g id="Group_1466" data-name="Group 1466" transform="translate(373.903 2106.766)">
      <g id="Group_1465" data-name="Group 1465">
        <path id="Path_6738" data-name="Path 6738" d="M385.564,307.354a3.205,3.205,0,0,1-.153-.611c-.092-.443-.214-1.031-.366-1.779-.305-1.58-.74-3.809-1.275-6.542-1.046-5.565-2.481-13.191-4.061-21.611-.2-1.053-.389-2.1-.58-3.13-.168-1.031-.427-2.038-.534-3.054a29.4,29.4,0,0,1-.214-5.863,32.713,32.713,0,0,1,.8-5.244,30.027,30.027,0,0,1,1.473-4.382,25.9,25.9,0,0,1,3.336-5.779c.458-.649.885-1.084,1.145-1.412a2.346,2.346,0,0,1,.435-.458,5.049,5.049,0,0,1-.374.511c-.237.336-.649.794-1.084,1.45a27.842,27.842,0,0,0-3.2,5.8A31,31,0,0,0,379.5,259.6a32.268,32.268,0,0,0-.756,5.191,29.832,29.832,0,0,0,.237,5.786c.107,1,.359,2,.534,3.031.191,1.031.382,2.069.58,3.13,1.542,8.435,2.931,16.061,3.954,21.634.481,2.741.87,4.977,1.153,6.565.122.748.221,1.344.29,1.786A4.091,4.091,0,0,1,385.564,307.354Z" transform="translate(-378.319 -247.489)" fill="#263238"/>
      </g>
    </g>
    <g id="Group_1468" data-name="Group 1468" transform="translate(282.503 2136.317)">
      <g id="Group_1467" data-name="Group 1467">
        <path id="Path_6739" data-name="Path 6739" d="M263.719,315.017a6.16,6.16,0,0,1-.275-1.122c-.16-.8-.366-1.832-.611-3.076-.5-2.6-1.16-6.2-1.87-10.176s-1.328-7.588-1.756-10.2c-.2-1.252-.359-2.3-.489-3.1a5.717,5.717,0,0,1-.122-1.145,6.165,6.165,0,0,1,.275,1.122c.16.8.366,1.832.611,3.076.5,2.6,1.16,6.2,1.87,10.184s1.328,7.588,1.756,10.2c.2,1.252.359,2.3.489,3.1A7.537,7.537,0,0,1,263.719,315.017Z" transform="translate(-258.588 -286.2)" fill="#263238"/>
      </g>
    </g>
    <g id="Group_1470" data-name="Group 1470" transform="translate(383.996 2120.919)">
      <g id="Group_1469" data-name="Group 1469">
        <path id="Path_6740" data-name="Path 6740" d="M391.555,274.626a25.6,25.6,0,0,1,1.046-4.351,26.525,26.525,0,0,1,1.427-4.244,25.6,25.6,0,0,1-1.046,4.351A24.54,24.54,0,0,1,391.555,274.626Z" transform="translate(-391.54 -266.03)" fill="#3d99a7"/>
      </g>
    </g>
    <g id="Group_1472" data-name="Group 1472" transform="translate(382.032 2140.616)">
      <g id="Group_1471" data-name="Group 1471">
        <path id="Path_6741" data-name="Path 6741" d="M395.412,296.044a18.969,18.969,0,0,1-3.328-1.939,19.253,19.253,0,0,1-3.115-2.267,19.278,19.278,0,0,1,3.328,1.939A18.842,18.842,0,0,1,395.412,296.044Z" transform="translate(-388.968 -291.831)" fill="#3d99a7"/>
      </g>
    </g>
    <g id="Group_1474" data-name="Group 1474" transform="translate(396.804 2131.08)">
      <g id="Group_1473" data-name="Group 1473">
        <path id="Path_6742" data-name="Path 6742" d="M408.419,287.172a18.8,18.8,0,0,1,1.015-7.832c.115.031-.252,1.756-.527,3.916S408.533,287.172,408.419,287.172Z" transform="translate(-408.319 -279.339)" fill="#3d99a7"/>
      </g>
    </g>
    <g id="Group_1476" data-name="Group 1476" transform="translate(395.939 2146.599)">
      <g id="Group_1475" data-name="Group 1475">
        <path id="Path_6743" data-name="Path 6743" d="M409.838,306.807a31.969,31.969,0,0,1-1.344-3.557,30.561,30.561,0,0,1-1.3-3.58,12.981,12.981,0,0,1,1.672,3.443A13.213,13.213,0,0,1,409.838,306.807Z" transform="translate(-407.185 -299.669)" fill="#3d99a7"/>
      </g>
    </g>
    <g id="Group_1478" data-name="Group 1478" transform="translate(386.32 2157.634)">
      <g id="Group_1477" data-name="Group 1477">
        <path id="Path_6744" data-name="Path 6744" d="M400.322,319.381a38.424,38.424,0,0,1-5.733-5.252,18.787,18.787,0,0,1,3,2.481A19.128,19.128,0,0,1,400.322,319.381Z" transform="translate(-394.586 -314.124)" fill="#3d99a7"/>
      </g>
    </g>
    <g id="Group_1480" data-name="Group 1480" transform="translate(407.674 2152.222)">
      <g id="Group_1479" data-name="Group 1479">
        <path id="Path_6745" data-name="Path 6745" d="M426.949,307.039c.084.084-1.122,1.412-2.321,3.26-1.214,1.84-1.954,3.473-2.061,3.428a11.151,11.151,0,0,1,1.733-3.649A10.9,10.9,0,0,1,426.949,307.039Z" transform="translate(-422.558 -307.036)" fill="#3d99a7"/>
      </g>
    </g>
    <g id="Group_1482" data-name="Group 1482" transform="translate(386.037 2110.814)">
      <g id="Group_1481" data-name="Group 1481">
        <path id="Path_6746" data-name="Path 6746" d="M398.425,256.607a10.006,10.006,0,0,1-2.237-1.756,10.2,10.2,0,0,1-1.97-2.054,10,10,0,0,1,2.237,1.756A10.427,10.427,0,0,1,398.425,256.607Z" transform="translate(-394.214 -252.792)" fill="#3d99a7"/>
      </g>
    </g>
    <g id="Group_1484" data-name="Group 1484" transform="translate(359.711 2115.217)">
      <g id="Group_1483" data-name="Group 1483">
        <path id="Path_6747" data-name="Path 6747" d="M365.653,258.567a15.337,15.337,0,0,1-2.863,1.916,15.128,15.128,0,0,1-3.061,1.58,30.411,30.411,0,0,1,5.924-3.5Z" transform="translate(-359.728 -258.559)" fill="#3d99a7"/>
      </g>
    </g>
    <g id="Group_1486" data-name="Group 1486" transform="translate(357.408 2131.246)">
      <g id="Group_1485" data-name="Group 1485">
        <path id="Path_6748" data-name="Path 6748" d="M360.634,285.086a14.673,14.673,0,0,1-2.122-2.649,14.361,14.361,0,0,1-1.794-2.878,28.767,28.767,0,0,1,3.916,5.527Z" transform="translate(-356.711 -279.557)" fill="#3d99a7"/>
      </g>
    </g>
    <g id="Group_1488" data-name="Group 1488" transform="translate(366.517 2143.789)">
      <g id="Group_1487" data-name="Group 1487">
        <path id="Path_6749" data-name="Path 6749" d="M372.778,295.99a15.816,15.816,0,0,1-4.13,6.145c-.084-.076.969-1.359,2.1-3.054S372.671,295.936,372.778,295.99Z" transform="translate(-368.644 -295.988)" fill="#3d99a7"/>
      </g>
    </g>
    <g id="Group_1490" data-name="Group 1490" transform="translate(344.157 2138.216)">
      <g id="Group_1489" data-name="Group 1489">
        <path id="Path_6750" data-name="Path 6750" d="M343.2,295.842c-.115.038-.748-1.672-1.809-3.634s-2.122-3.443-2.031-3.519a11.792,11.792,0,0,1,2.382,3.328A11.556,11.556,0,0,1,343.2,295.842Z" transform="translate(-339.353 -288.687)" fill="#3d99a7"/>
      </g>
    </g>
    <g id="Group_1492" data-name="Group 1492" transform="translate(352.718 2153.019)">
      <g id="Group_1491" data-name="Group 1491">
        <path id="Path_6751" data-name="Path 6751" d="M350.577,315.088a19.847,19.847,0,0,1,1.626-3.6,20.1,20.1,0,0,1,1.985-3.412,19.852,19.852,0,0,1-1.626,3.6A19.367,19.367,0,0,1,350.577,315.088Z" transform="translate(-350.568 -308.079)" fill="#3d99a7"/>
      </g>
    </g>
    <g id="Group_1494" data-name="Group 1494" transform="translate(366.983 2162.63)">
      <g id="Group_1493" data-name="Group 1493">
        <path id="Path_6752" data-name="Path 6752" d="M370.808,329.052a23.449,23.449,0,0,1-.962-4.153,22.323,22.323,0,0,1-.565-4.229,44.986,44.986,0,0,1,1.527,8.382Z" transform="translate(-369.254 -320.67)" fill="#3d99a7"/>
      </g>
    </g>
    <g id="Group_1496" data-name="Group 1496" transform="translate(334.388 2157.755)">
      <g id="Group_1495" data-name="Group 1495">
        <path id="Path_6753" data-name="Path 6753" d="M331.994,319.495a28.358,28.358,0,0,1-2.756-2.565,26.689,26.689,0,0,1-2.68-2.641,12.925,12.925,0,0,1,2.954,2.351A13.609,13.609,0,0,1,331.994,319.495Z" transform="translate(-326.556 -314.283)" fill="#3d99a7"/>
      </g>
    </g>
    <g id="Group_1498" data-name="Group 1498" transform="translate(321.395 2141.74)">
      <g id="Group_1497" data-name="Group 1497">
        <path id="Path_6754" data-name="Path 6754" d="M315.241,293.308a18.472,18.472,0,0,1-2.718,2.7,18.767,18.767,0,0,1-2.985,2.4,18.472,18.472,0,0,1,2.718-2.7A18.777,18.777,0,0,1,315.241,293.308Z" transform="translate(-309.536 -293.304)" fill="#3d99a7"/>
      </g>
    </g>
    <g id="Group_1500" data-name="Group 1500" transform="translate(317.956 2129.177)">
      <g id="Group_1499" data-name="Group 1499">
        <path id="Path_6755" data-name="Path 6755" d="M309.16,283.231a18.171,18.171,0,0,1-2.229-3.084,18.39,18.39,0,0,1-1.893-3.3,36.346,36.346,0,0,1,4.122,6.382Z" transform="translate(-305.031 -276.847)" fill="#3d99a7"/>
      </g>
    </g>
    <g id="Group_1502" data-name="Group 1502" transform="translate(297.476 2138.644)">
      <g id="Group_1501" data-name="Group 1501">
        <path id="Path_6756" data-name="Path 6756" d="M283.422,296.822a52.891,52.891,0,0,1-5.214-7.573,26.874,26.874,0,0,1,2.771,3.672A25.9,25.9,0,0,1,283.422,296.822Z" transform="translate(-278.203 -289.248)" fill="#3d99a7"/>
      </g>
    </g>
    <g id="Group_1504" data-name="Group 1504" transform="translate(297.253 2158.797)">
      <g id="Group_1503" data-name="Group 1503">
        <path id="Path_6757" data-name="Path 6757" d="M289.07,315.81c0,.115-2.5.153-5.58.305s-5.565.366-5.58.252a6.321,6.321,0,0,1,1.618-.305c1.008-.13,2.4-.267,3.947-.344s2.947-.084,3.962-.053A6.366,6.366,0,0,1,289.07,315.81Z" transform="translate(-277.91 -315.648)" fill="#3d99a7"/>
      </g>
    </g>
    <g id="Group_1506" data-name="Group 1506" transform="translate(308.332 2122.003)">
      <g id="Group_1505" data-name="Group 1505">
        <path id="Path_6758" data-name="Path 6758" d="M293.917,267.45c.115.031-.328,1.916-.718,4.267-.4,2.351-.611,4.275-.725,4.267a16.056,16.056,0,0,1,.336-4.336A15.856,15.856,0,0,1,293.917,267.45Z" transform="translate(-292.423 -267.449)" fill="#3d99a7"/>
      </g>
    </g>
    <g id="Group_1508" data-name="Group 1508" transform="translate(302.089 2103.306)">
      <g id="Group_1507" data-name="Group 1507">
        <path id="Path_6759" data-name="Path 6759" d="M284.249,250.456a29.789,29.789,0,0,1,2.9-3.87,30.212,30.212,0,0,1,3.206-3.626,59.87,59.87,0,0,1-6.107,7.5Z" transform="translate(-284.245 -242.957)" fill="#3d99a7"/>
      </g>
    </g>
    <g id="Group_1510" data-name="Group 1510" transform="translate(285.724 2113.64)">
      <g id="Group_1509" data-name="Group 1509">
        <path id="Path_6760" data-name="Path 6760" d="M271.42,264.1c-.084.076-1.893-1.756-4.267-3.847s-4.412-3.664-4.344-3.756a6.538,6.538,0,0,1,1.427.908c.847.611,1.985,1.5,3.176,2.557s2.221,2.069,2.931,2.84A6.08,6.08,0,0,1,271.42,264.1Z" transform="translate(-262.808 -256.495)" fill="#3d99a7"/>
      </g>
    </g>
    <g id="Group_1512" data-name="Group 1512" transform="translate(272.311 2124.876)">
      <g id="Group_1511" data-name="Group 1511">
        <path id="Path_6761" data-name="Path 6761" d="M254.354,271.218c.053.107-2.214,1.313-4.725,3.229-2.519,1.9-4.3,3.756-4.389,3.672a6,6,0,0,1,1.084-1.3,27.1,27.1,0,0,1,3.061-2.695,27.982,27.982,0,0,1,3.42-2.214A6.04,6.04,0,0,1,254.354,271.218Z" transform="translate(-245.237 -271.213)" fill="#3d99a7"/>
      </g>
    </g>
    <g id="Group_1514" data-name="Group 1514" transform="translate(263.718 2126.355)">
      <g id="Group_1513" data-name="Group 1513">
        <path id="Path_6762" data-name="Path 6762" d="M234.37,282.395c-.114-.008-.1-2.076-.2-4.618s-.267-4.611-.153-4.626a28.775,28.775,0,0,1,.351,9.245Z" transform="translate(-233.981 -273.15)" fill="#3d99a7"/>
      </g>
    </g>
    <g id="Group_1516" data-name="Group 1516" transform="translate(270.035 2141.008)">
      <g id="Group_1515" data-name="Group 1515">
        <path id="Path_6763" data-name="Path 6763" d="M249.1,298.234a25.724,25.724,0,0,1-3.55-2.794,25.084,25.084,0,0,1-3.29-3.092,25.721,25.721,0,0,1,3.55,2.794A24.508,24.508,0,0,1,249.1,298.234Z" transform="translate(-242.256 -292.345)" fill="#3d99a7"/>
      </g>
    </g>
    <g id="Group_1518" data-name="Group 1518" transform="translate(288.176 2130.694)">
      <g id="Group_1517" data-name="Group 1517">
        <path id="Path_6764" data-name="Path 6764" d="M274.913,278.854a25.847,25.847,0,0,1-4.4,1.168,26.677,26.677,0,0,1-4.489.779,26.721,26.721,0,0,1,4.4-1.168A25.773,25.773,0,0,1,274.913,278.854Z" transform="translate(-266.02 -278.835)" fill="#3d99a7"/>
      </g>
    </g>
    <g id="Group_1520" data-name="Group 1520" transform="translate(333.346 2132.456)">
      <g id="Group_1519" data-name="Group 1519">
        <path id="Path_6765" data-name="Path 6765" d="M328.511,284.637a14.773,14.773,0,0,1-3.313-3.489,14.778,14.778,0,0,1,3.313,3.489Z" transform="translate(-325.191 -281.143)" fill="#3d99a7"/>
      </g>
    </g>
    <g id="Group_1522" data-name="Group 1522" transform="translate(349.548 2125.632)">
      <g id="Group_1521" data-name="Group 1521">
        <path id="Path_6766" data-name="Path 6766" d="M351.3,272.208a26.85,26.85,0,0,1-4.878,4.359,27.533,27.533,0,0,1,4.878-4.359Z" transform="translate(-346.415 -272.203)" fill="#3d99a7"/>
      </g>
    </g>
    <g id="Group_1524" data-name="Group 1524" transform="translate(369.605 2122.004)">
      <g id="Group_1523" data-name="Group 1523">
        <path id="Path_6767" data-name="Path 6767" d="M372.7,275.29c-.107-.031.336-1.763.718-3.916s.572-3.931.687-3.924a13.278,13.278,0,0,1-.29,4A13.132,13.132,0,0,1,372.7,275.29Z" transform="translate(-372.689 -267.45)" fill="#3d99a7"/>
      </g>
    </g>
    <g id="Group_1526" data-name="Group 1526" transform="translate(289.61 2150.574)">
      <g id="Group_1525" data-name="Group 1525">
        <path id="Path_6768" data-name="Path 6768" d="M269.861,308.7a5.9,5.9,0,0,1-1.153-1.824,5.98,5.98,0,0,1-.794-2,5.9,5.9,0,0,1,1.153,1.825A6.119,6.119,0,0,1,269.861,308.7Z" transform="translate(-267.898 -304.877)" fill="#3d99a7"/>
      </g>
    </g>
    <g id="Group_1528" data-name="Group 1528" transform="translate(317.037 2150.278)">
      <g id="Group_1527" data-name="Group 1527">
        <path id="Path_6769" data-name="Path 6769" d="M305.715,309.681a9.631,9.631,0,0,1-1.122-2.527,9.817,9.817,0,0,1-.748-2.664,9.63,9.63,0,0,1,1.122,2.527A9.491,9.491,0,0,1,305.715,309.681Z" transform="translate(-303.827 -304.489)" fill="#3d99a7"/>
      </g>
    </g>
    <g id="Group_1530" data-name="Group 1530" transform="translate(333.831 2145.348)">
      <g id="Group_1529" data-name="Group 1529">
        <path id="Path_6770" data-name="Path 6770" d="M325.837,300.641c-.084-.069.359-.718.992-1.435s1.206-1.244,1.29-1.168-.359.718-.992,1.435S325.921,300.71,325.837,300.641Z" transform="translate(-325.827 -298.03)" fill="#3d99a7"/>
      </g>
    </g>
    <g id="Group_1532" data-name="Group 1532" transform="translate(300.668 2188.456)">
      <g id="Group_1531" data-name="Group 1531">
        <path id="Path_6771" data-name="Path 6771" d="M284.908,361.813a15.512,15.512,0,0,1-2.5-7.313c.115-.023.473,1.672,1.168,3.687C284.259,360.2,285.014,361.76,284.908,361.813Z" transform="translate(-282.384 -354.5)" fill="#3d99a7"/>
      </g>
    </g>
    <g id="Group_1534" data-name="Group 1534" transform="translate(314.817 2190.18)">
      <g id="Group_1533" data-name="Group 1533">
        <path id="Path_6772" data-name="Path 6772" d="M300.935,363.218a14.945,14.945,0,0,1,.939-3.3,15.217,15.217,0,0,1,1.313-3.16,14.933,14.933,0,0,1-.939,3.3A14.712,14.712,0,0,1,300.935,363.218Z" transform="translate(-300.918 -356.759)" fill="#3d99a7"/>
      </g>
    </g>
    <g id="Group_1536" data-name="Group 1536" transform="translate(308.068 2203.439)">
      <g id="Group_1535" data-name="Group 1535">
        <path id="Path_6773" data-name="Path 6773" d="M295.446,380.557a16.135,16.135,0,0,1-1.855-3.122,16.374,16.374,0,0,1-1.5-3.305,16.131,16.131,0,0,1,1.855,3.122A17.713,17.713,0,0,1,295.446,380.557Z" transform="translate(-292.077 -374.128)" fill="#3d99a7"/>
      </g>
    </g>
    <g id="Group_1538" data-name="Group 1538" transform="translate(325.672 2203.088)">
      <g id="Group_1537" data-name="Group 1537">
        <path id="Path_6774" data-name="Path 6774" d="M322.468,376.647a14.013,14.013,0,0,1-3.8-1.145,14.293,14.293,0,0,1-3.527-1.824,34.833,34.833,0,0,1,3.672,1.45A32.876,32.876,0,0,1,322.468,376.647Z" transform="translate(-315.139 -373.668)" fill="#3d99a7"/>
      </g>
    </g>
    <g id="Group_1540" data-name="Group 1540" transform="translate(326.022 2193.681)">
      <g id="Group_1539" data-name="Group 1539">
        <path id="Path_6775" data-name="Path 6775" d="M315.6,365.883c-.061-.1,1.3-.977,2.825-2.221s2.672-2.389,2.756-2.313a14.491,14.491,0,0,1-5.58,4.534Z" transform="translate(-315.597 -361.345)" fill="#3d99a7"/>
      </g>
    </g>
    <g id="Group_1542" data-name="Group 1542" transform="translate(337.368 2200.646)">
      <g id="Group_1541" data-name="Group 1541">
        <path id="Path_6776" data-name="Path 6776" d="M337.086,373.622c-.069.1-1.45-.794-3.275-1.649-1.824-.87-3.382-1.374-3.351-1.489a10.082,10.082,0,0,1,3.519,1.13A9.951,9.951,0,0,1,337.086,373.622Z" transform="translate(-330.459 -370.468)" fill="#3d99a7"/>
      </g>
    </g>
    <g id="Group_1544" data-name="Group 1544" transform="translate(347.823 2205.714)">
      <g id="Group_1543" data-name="Group 1543">
        <path id="Path_6777" data-name="Path 6777" d="M344.159,382.338c-.076-.084.97-1.153,2.115-2.6a32.514,32.514,0,0,1,2.069-2.634,9.223,9.223,0,0,1-1.756,2.886A9.032,9.032,0,0,1,344.159,382.338Z" transform="translate(-344.155 -377.107)" fill="#fafafa"/>
      </g>
    </g>
    <g id="Group_1546" data-name="Group 1546" transform="translate(301.617 2220.168)">
      <g id="Group_1545" data-name="Group 1545">
        <path id="Path_6778" data-name="Path 6778" d="M290.637,400.712a22.186,22.186,0,0,1-3.611-2.168,22.541,22.541,0,0,1-3.4-2.5,22.419,22.419,0,0,1,3.618,2.168A22.085,22.085,0,0,1,290.637,400.712Z" transform="translate(-283.628 -396.042)" fill="#3d99a7"/>
      </g>
    </g>
    <g id="Group_1548" data-name="Group 1548" transform="translate(316.776 2221.224)">
      <g id="Group_1547" data-name="Group 1547">
        <path id="Path_6779" data-name="Path 6779" d="M309.939,397.436c.046.107-1.542.8-3.313,1.962s-3.054,2.313-3.137,2.229a13.535,13.535,0,0,1,6.451-4.191Z" transform="translate(-303.485 -397.425)" fill="#3d99a7"/>
      </g>
    </g>
    <g id="Group_1550" data-name="Group 1550" transform="translate(333.336 2222.462)">
      <g id="Group_1549" data-name="Group 1549">
        <path id="Path_6780" data-name="Path 6780" d="M328.134,403.6a9.415,9.415,0,0,1-1.641-2.168,9.189,9.189,0,0,1-1.305-2.382,18.55,18.55,0,0,1,2.947,4.55Z" transform="translate(-325.178 -399.046)" fill="#3d99a7"/>
      </g>
    </g>
    <g id="Group_1552" data-name="Group 1552" transform="translate(345.892 2221.796)">
      <g id="Group_1551" data-name="Group 1551">
        <path id="Path_6781" data-name="Path 6781" d="M347.767,398.186c.046.107-1.435.809-3.115,1.9s-2.939,2.138-3.023,2.053a10.094,10.094,0,0,1,2.8-2.389A9.888,9.888,0,0,1,347.767,398.186Z" transform="translate(-341.626 -398.175)" fill="#3d99a7"/>
      </g>
    </g>
    <g id="Group_1554" data-name="Group 1554" transform="translate(356.223 2212.413)">
      <g id="Group_1553" data-name="Group 1553">
        <path id="Path_6782" data-name="Path 6782" d="M358.244,388.446c-.107.053-.557-.741-1.412-1.428-.84-.7-1.71-.992-1.672-1.107a2.807,2.807,0,0,1,1.931.8A2.757,2.757,0,0,1,358.244,388.446Z" transform="translate(-355.158 -385.883)" fill="#3d99a7"/>
      </g>
    </g>
    <g id="Group_1556" data-name="Group 1556" transform="translate(362.146 2222.827)">
      <g id="Group_1555" data-name="Group 1555">
        <path id="Path_6783" data-name="Path 6783" d="M368.324,399.536a11.75,11.75,0,0,1-2.611,1.573,12.191,12.191,0,0,1-2.794,1.221,23.462,23.462,0,0,1,5.4-2.794Z" transform="translate(-362.918 -399.525)" fill="#3d99a7"/>
      </g>
    </g>
    <g id="Group_1558" data-name="Group 1558" transform="translate(374.961 2219.144)">
      <g id="Group_1557" data-name="Group 1557">
        <path id="Path_6784" data-name="Path 6784" d="M379.724,402.532c-.115-.031.305-1.748.58-3.909s.313-3.924.427-3.924a12.059,12.059,0,0,1-.031,3.977A11.883,11.883,0,0,1,379.724,402.532Z" transform="translate(-379.705 -394.7)" fill="#3d99a7"/>
      </g>
    </g>
    <g id="Group_1560" data-name="Group 1560" transform="translate(366.147 2210.701)">
      <g id="Group_1559" data-name="Group 1559">
        <path id="Path_6785" data-name="Path 6785" d="M375.817,386.694c-.069.1-1.611-.947-3.725-1.771-2.115-.847-3.954-1.13-3.931-1.252a9.958,9.958,0,0,1,4.077.886A9.8,9.8,0,0,1,375.817,386.694Z" transform="translate(-368.16 -383.641)" fill="#3d99a7"/>
      </g>
    </g>
    <g id="Group_1562" data-name="Group 1562" transform="translate(350.802 2169.594)">
      <g id="Group_1561" data-name="Group 1561">
        <path id="Path_6786" data-name="Path 6786" d="M354.51,333.989a18.822,18.822,0,0,1-3.336-1.931,19.073,19.073,0,0,1-3.115-2.26,37.471,37.471,0,0,1,6.451,4.191Z" transform="translate(-348.058 -329.791)" fill="#3d99a7"/>
      </g>
    </g>
    <g id="Group_1582" data-name="Group 1582" transform="translate(273.225 2162.276)">
      <g id="Group_1566" data-name="Group 1566" transform="translate(50.013 1.637)">
        <path id="Path_6788" data-name="Path 6788" d="M415.495,352.748l-8.512-30.4-35.07,4.542,4.1,16.123-52.444-14L311.95,344.373l79.628,37.6a19.5,19.5,0,0,0,21.749-4.473h0C418.243,372.336,417.655,359.534,415.495,352.748Z" transform="translate(-311.95 -322.35)" fill="#ffbe9d"/>
      </g>
      <g id="Group_1579" data-name="Group 1579">
        <g id="Group_1567" data-name="Group 1567" transform="translate(4.561 2.63)">
          <path id="Path_6789" data-name="Path 6789" d="M256.448,323.948c-1.176-.313-2.588-.573-3.466.275a2.422,2.422,0,0,0-.16,2.931c.542.908.954,1.046,2.382,1.511l13.962,3.16,5.367-4.183Z" transform="translate(-252.409 -323.65)" fill="#eb996e"/>
        </g>
        <g id="Group_1578" data-name="Group 1578">
          <g id="Group_1570" data-name="Group 1570" transform="translate(0 2.632)">
            <g id="Group_1569" data-name="Group 1569">
              <g id="Group_1568" data-name="Group 1568">
                <path id="Path_6790" data-name="Path 6790" d="M298.616,345.415c-17.054-4.176-32.886-9.695-49.742-12.893a3.122,3.122,0,0,1-2.229-1.122c-.6-1.008.176-2.374,1.252-2.832a6.572,6.572,0,0,1,3.466-.115,79.031,79.031,0,0,0,27.1-.916c5.779-1.206,11.428-3.069,17.283-3.779s7.4,2.313,12.321,5.573" transform="translate(-246.434 -323.653)" fill="#ffbe9d"/>
              </g>
            </g>
          </g>
          <g id="Group_1573" data-name="Group 1573" transform="translate(20.05 0.249)">
            <g id="Group_1572" data-name="Group 1572">
              <g id="Group_1571" data-name="Group 1571">
                <path id="Path_6791" data-name="Path 6791" d="M314.273,328.584a16,16,0,0,0-14.168-8.046c-3.489.115-6.825,1.382-10.191,2.3s-7.046,1.473-10.29.191a16.946,16.946,0,0,0-3.733-1.427c-1.321-.183-2.916.466-3.16,1.779a3.281,3.281,0,0,0,1.16,2.672c2.443,2.58,10.222,5.458,16.344,5.145" transform="translate(-272.699 -320.531)" fill="#ffbe9d"/>
              </g>
            </g>
          </g>
          <g id="Group_1577" data-name="Group 1577" transform="translate(19.781)">
            <g id="Group_1576" data-name="Group 1576">
              <g id="Group_1575" data-name="Group 1575">
                <g id="Group_1574" data-name="Group 1574">
                  <path id="Path_6792" data-name="Path 6792" d="M290.159,331.125c0-.061-.931-.008-2.6-.168a31.474,31.474,0,0,1-6.909-1.534,24.9,24.9,0,0,1-4.443-1.992,9.96,9.96,0,0,1-2.137-1.588,3.321,3.321,0,0,1-1.16-2.328,2.067,2.067,0,0,1,1.847-1.679,4.78,4.78,0,0,1,2.9.588,15.853,15.853,0,0,0,3.115,1.229,13.048,13.048,0,0,0,3.458.344c4.725-.168,8.794-2.122,12.657-2.87a16.344,16.344,0,0,1,5.535-.282,15.8,15.8,0,0,1,4.641,1.344,16.222,16.222,0,0,1,5.573,4.237c1.076,1.282,1.5,2.115,1.565,2.084a3.042,3.042,0,0,0-.3-.611,11.115,11.115,0,0,0-1.084-1.618,15.823,15.823,0,0,0-5.573-4.473,16.155,16.155,0,0,0-4.756-1.45,16.718,16.718,0,0,0-5.71.237c-3.947.74-8.016,2.657-12.565,2.809a12.441,12.441,0,0,1-3.3-.321,16.115,16.115,0,0,1-3.023-1.183,5.374,5.374,0,0,0-3.252-.611,3.206,3.206,0,0,0-1.519.71,2.165,2.165,0,0,0-.771,1.5,3.785,3.785,0,0,0,1.328,2.741,10.15,10.15,0,0,0,2.267,1.649,24.566,24.566,0,0,0,4.557,1.962,29,29,0,0,0,7.023,1.366,16.491,16.491,0,0,0,1.947.008A3.208,3.208,0,0,0,290.159,331.125Z" transform="translate(-272.346 -320.205)" fill="#eb996e"/>
                </g>
              </g>
            </g>
          </g>
        </g>
      </g>
      <g id="Group_1581" data-name="Group 1581" transform="translate(112.595 21.81)">
        <g id="Group_1580" data-name="Group 1580">
          <path id="Path_6793" data-name="Path 6793" d="M411.03,354.107a.8.8,0,0,1-.176-.053c-.153-.053-.313-.114-.489-.176-.511-.183-1.115-.4-1.8-.656-1.527-.55-3.649-1.275-6.008-2.015s-4.519-1.351-6.084-1.763l-1.863-.481c-.183-.046-.351-.092-.5-.13-.114-.031-.176-.053-.176-.053a.562.562,0,0,1,.183.023c.16.031.328.061.511.1.443.092,1.084.237,1.87.435,1.58.389,3.741.985,6.107,1.725s4.481,1.489,6,2.061c.756.29,1.366.527,1.786.71.176.076.328.137.481.206A1.1,1.1,0,0,1,411.03,354.107Z" transform="translate(-393.93 -348.776)" fill="#eb996e"/>
        </g>
      </g>
    </g>
    <g id="Group_1678" data-name="Group 1678" transform="translate(296.505 1988.612)">
      <g id="Group_1654" data-name="Group 1654" transform="translate(0.95)">
        <g id="Group_1647" data-name="Group 1647" transform="translate(0 10.81)">
          <g id="Group_1646" data-name="Group 1646">
            <g id="Group_1645" data-name="Group 1645">
              <g id="Group_1632" data-name="Group 1632">
                <g id="Group_1631" data-name="Group 1631">
                  <g id="Group_1630" data-name="Group 1630">
                    <g id="Group_1588" data-name="Group 1588">
                      <g id="Group_1587" data-name="Group 1587">
                        <g id="Group_1586" data-name="Group 1586">
                          <g id="Group_1585" data-name="Group 1585">
                            <g id="Group_1584" data-name="Group 1584">
                              <g id="Group_1583" data-name="Group 1583">
                                <path id="Path_6794" data-name="Path 6794" d="M317.745,234.172A18.668,18.668,0,0,0,335.6,215.522v-22.13l1.221-70.75-1.58-3.977-37.253-11.756c-11.458-.893-19.146,14.848-19.55,26.337-.45,12.756-.5,28.352,1.275,37.818,3.565,19.023,18.275,21.054,18.275,21.054l.29,23.634a18.651,18.651,0,0,0,19.466,18.42Z" transform="translate(-278.175 -106.872)" fill="#ffbe9d"/>
                              </g>
                            </g>
                          </g>
                        </g>
                      </g>
                    </g>
                    <g id="Group_1602" data-name="Group 1602" transform="translate(3.818 31.553)">
                      <g id="Group_1594" data-name="Group 1594" transform="translate(1.362 4.935)">
                        <g id="Group_1593" data-name="Group 1593">
                          <g id="Group_1592" data-name="Group 1592">
                            <g id="Group_1591" data-name="Group 1591">
                              <g id="Group_1590" data-name="Group 1590">
                                <g id="Group_1589" data-name="Group 1589">
                                  <path id="Path_6795" data-name="Path 6795" d="M284.96,156.96a2.446,2.446,0,0,0,2.435,2.4,2.342,2.342,0,0,0,2.466-2.283,2.456,2.456,0,0,0-2.428-2.412A2.365,2.365,0,0,0,284.96,156.96Z" transform="translate(-284.96 -154.669)" fill="#263238"/>
                                </g>
                              </g>
                            </g>
                          </g>
                        </g>
                      </g>
                      <g id="Group_1601" data-name="Group 1601">
                        <g id="Group_1600" data-name="Group 1600">
                          <g id="Group_1599" data-name="Group 1599">
                            <g id="Group_1598" data-name="Group 1598">
                              <g id="Group_1597" data-name="Group 1597">
                                <g id="Group_1596" data-name="Group 1596">
                                  <g id="Group_1595" data-name="Group 1595">
                                    <path id="Path_6796" data-name="Path 6796" d="M283.217,150.919c.313.313,2.13-1.115,4.771-1.183,2.634-.107,4.6,1.2,4.886.87.137-.145-.191-.718-1.046-1.305a6.72,6.72,0,0,0-3.924-1.092,6.464,6.464,0,0,0-3.786,1.336C283.324,150.194,283.064,150.781,283.217,150.919Z" transform="translate(-283.175 -148.205)" fill="#263238"/>
                                  </g>
                                </g>
                              </g>
                            </g>
                          </g>
                        </g>
                      </g>
                    </g>
                    <g id="Group_1616" data-name="Group 1616" transform="translate(29.757 31.331)">
                      <g id="Group_1608" data-name="Group 1608" transform="translate(1.019 5.156)">
                        <g id="Group_1607" data-name="Group 1607">
                          <g id="Group_1606" data-name="Group 1606">
                            <g id="Group_1605" data-name="Group 1605">
                              <g id="Group_1604" data-name="Group 1604">
                                <g id="Group_1603" data-name="Group 1603">
                                  <path id="Path_6797" data-name="Path 6797" d="M318.49,156.96a2.444,2.444,0,0,0,2.427,2.4,2.342,2.342,0,0,0,2.466-2.283,2.456,2.456,0,0,0-2.427-2.412A2.363,2.363,0,0,0,318.49,156.96Z" transform="translate(-318.49 -154.669)" fill="#263238"/>
                                </g>
                              </g>
                            </g>
                          </g>
                        </g>
                      </g>
                      <g id="Group_1615" data-name="Group 1615">
                        <g id="Group_1614" data-name="Group 1614">
                          <g id="Group_1613" data-name="Group 1613">
                            <g id="Group_1612" data-name="Group 1612">
                              <g id="Group_1611" data-name="Group 1611">
                                <g id="Group_1610" data-name="Group 1610">
                                  <g id="Group_1609" data-name="Group 1609">
                                    <path id="Path_6798" data-name="Path 6798" d="M317.2,150.629c.313.313,2.137-1.115,4.771-1.183,2.634-.107,4.6,1.2,4.886.87.137-.145-.183-.718-1.046-1.305a6.711,6.711,0,0,0-3.916-1.092,6.464,6.464,0,0,0-3.786,1.336C317.3,149.9,317.044,150.484,317.2,150.629Z" transform="translate(-317.155 -147.915)" fill="#263238"/>
                                  </g>
                                </g>
                              </g>
                            </g>
                          </g>
                        </g>
                      </g>
                    </g>
                    <g id="Group_1623" data-name="Group 1623" transform="translate(13.991 31.853)">
                      <g id="Group_1622" data-name="Group 1622">
                        <g id="Group_1621" data-name="Group 1621">
                          <g id="Group_1620" data-name="Group 1620">
                            <g id="Group_1619" data-name="Group 1619">
                              <g id="Group_1618" data-name="Group 1618">
                                <g id="Group_1617" data-name="Group 1617">
                                  <path id="Path_6799" data-name="Path 6799" d="M303.279,170.608c.008-.153-1.641-.389-4.305-.657-.672-.053-1.313-.168-1.443-.626a3.4,3.4,0,0,1,.4-2.008q.882-2.473,1.847-5.183c2.565-7.374,4.4-13.435,4.1-13.535s-2.618,5.794-5.183,13.176c-.618,1.817-1.206,3.55-1.763,5.214a3.857,3.857,0,0,0-.275,2.649,1.714,1.714,0,0,0,1.137.954,4.69,4.69,0,0,0,1.145.13C301.615,170.791,303.272,170.76,303.279,170.608Z" transform="translate(-296.503 -148.598)" fill="#263238"/>
                                </g>
                              </g>
                            </g>
                          </g>
                        </g>
                      </g>
                    </g>
                    <g id="Group_1629" data-name="Group 1629" transform="translate(19.806 77.588)">
                      <g id="Group_1628" data-name="Group 1628">
                        <g id="Group_1627" data-name="Group 1627">
                          <g id="Group_1626" data-name="Group 1626">
                            <g id="Group_1625" data-name="Group 1625">
                              <g id="Group_1624" data-name="Group 1624">
                                <path id="Path_6800" data-name="Path 6800" d="M304.12,216.045a48.643,48.643,0,0,0,25.405-7.535s-5.848,13.3-25.024,12.039Z" transform="translate(-304.12 -208.51)" fill="#eb996e"/>
                              </g>
                            </g>
                          </g>
                        </g>
                      </g>
                    </g>
                  </g>
                </g>
              </g>
              <g id="Group_1638" data-name="Group 1638" transform="translate(28.814 21.603)">
                <g id="Group_1637" data-name="Group 1637">
                  <g id="Group_1636" data-name="Group 1636">
                    <g id="Group_1635" data-name="Group 1635">
                      <g id="Group_1634" data-name="Group 1634">
                        <g id="Group_1633" data-name="Group 1633">
                          <path id="Path_6801" data-name="Path 6801" d="M315.935,137.293c.282.71,2.9.3,6.008.588,3.107.229,5.634,1.061,6.023.4.176-.313-.282-.977-1.305-1.641a10.5,10.5,0,0,0-9.168-.756C316.371,136.377,315.821,136.957,315.935,137.293Z" transform="translate(-315.921 -135.172)" fill="#263238"/>
                        </g>
                      </g>
                    </g>
                  </g>
                </g>
              </g>
              <g id="Group_1644" data-name="Group 1644" transform="translate(4.547 23.75)">
                <g id="Group_1643" data-name="Group 1643">
                  <g id="Group_1642" data-name="Group 1642">
                    <g id="Group_1641" data-name="Group 1641">
                      <g id="Group_1640" data-name="Group 1640">
                        <g id="Group_1639" data-name="Group 1639">
                          <path id="Path_6802" data-name="Path 6802" d="M284.207,140.836c.481.588,2.282-.084,4.466-.176,2.183-.168,4.046.29,4.458-.344.176-.313-.13-.9-.954-1.443a6.466,6.466,0,0,0-7.183.428C284.23,139.928,283.993,140.553,284.207,140.836Z" transform="translate(-284.132 -137.984)" fill="#263238"/>
                        </g>
                      </g>
                    </g>
                  </g>
                </g>
              </g>
            </g>
          </g>
        </g>
        <g id="Group_1648" data-name="Group 1648" transform="translate(12.919 5.491)">
          <path id="Path_6803" data-name="Path 6803" d="M295.42,106.565a36.234,36.234,0,0,0,20.817,27.657c-.328-1.519-.649-3.038-.977-4.557,4.718,7.8,14.733,14.336,21.176,16.978,1.992.817,4.534.084,6.351-1.076,2.534-1.618,2.679-5.252,2.153-8.214-1.657-9.267-7.161-17.588-14.313-23.7s-15.894-10.168-24.9-12.909c-2.389-.725-3.7-1.229-6.061-.427s-5.466,3.5-4.321,5.718" transform="translate(-295.098 -99.905)" fill="#263238"/>
        </g>
        <g id="Group_1649" data-name="Group 1649" transform="translate(11.203)">
          <path id="Path_6804" data-name="Path 6804" d="M332.889,130.872c5.466,19.581-1.763,41.345.1,61.589.412,4.519,2.061,9.741,5.855,12.222,1.87,1.221,2.26.45,4.451.878,5.512,1.069,10.725-1.237,16.237-.176,4.977.962,12.893,3.825,16-.183,3.046-3.931-.473-8.68-3.55-12.6s-7.191-7.252-8.7-11.993c-1.626-5.092.13-10.558.893-15.848,2.611-18.084-3.832-36.413-14.512-51.238-3.725-5.176-9.344-10.061-14.39-13.955s-16.489-7.16-22.856-6.84-16.97,5.321-19.565,12.489" transform="translate(-292.85 -92.711)" fill="#263238"/>
        </g>
        <g id="Group_1651" data-name="Group 1651" transform="translate(19.179 5.12)">
          <g id="Group_1650" data-name="Group 1650">
            <path id="Path_6805" data-name="Path 6805" d="M314.223,121.283c-.031.061.382.351,1.191.817l1.443.84-1.221-1.176a40.739,40.739,0,0,1-7.58-9.55c-3.794-6.58-4.4-12.871-4.7-12.794a12.085,12.085,0,0,0,.4,4.054,31.6,31.6,0,0,0,3.5,9.2,30.35,30.35,0,0,0,8.13,9.4l.221-.336A4.148,4.148,0,0,0,314.223,121.283Z" transform="translate(-303.298 -99.419)" fill="#455a64"/>
          </g>
        </g>
        <g id="Group_1653" data-name="Group 1653" transform="translate(23.948 5.219)">
          <g id="Group_1652" data-name="Group 1652">
            <path id="Path_6806" data-name="Path 6806" d="M350.352,202.781a6.357,6.357,0,0,0,.015-1.26c-.031-.824-.023-2.038.038-3.6a73.68,73.68,0,0,1,1.939-13.069c1.176-5.466,3.122-11.871,4.3-19.245a54.842,54.842,0,0,0,.557-11.687,31.5,31.5,0,0,0-3.122-12.184,26.051,26.051,0,0,0-8.244-9.5c-3.275-2.435-6.7-4.321-9.84-6.267a79.529,79.529,0,0,1-15.26-12.229,84.747,84.747,0,0,1-8.428-10.191c-.893-1.282-1.573-2.29-2.023-2.985a6.688,6.688,0,0,0-.733-1.023,5.891,5.891,0,0,0,.573,1.122c.4.725,1.031,1.771,1.878,3.092a75.833,75.833,0,0,0,8.252,10.443,77.8,77.8,0,0,0,15.275,12.5c3.145,1.985,6.55,3.878,9.748,6.275a25.355,25.355,0,0,1,7.962,9.191A30.866,30.866,0,0,1,356.283,154a54.847,54.847,0,0,1-.5,11.5c-1.107,7.283-2.992,13.726-4.092,19.23a66.947,66.947,0,0,0-1.657,13.2,33.5,33.5,0,0,0,.137,3.618A5.809,5.809,0,0,0,350.352,202.781Z" transform="translate(-309.546 -99.549)" fill="#455a64"/>
          </g>
        </g>
      </g>
      <g id="Group_1655" data-name="Group 1655" transform="translate(0 11.869)">
        <path id="Path_6807" data-name="Path 6807" d="M278.129,117.642a131.388,131.388,0,0,0-1.2,14.894c3.87-3.115,7.764-6.3,10.672-10.321s4.756-9.054,3.985-13.955a16.6,16.6,0,0,0-11.474,12.031" transform="translate(-276.93 -108.26)" fill="#263238"/>
      </g>
      <g id="Group_1659" data-name="Group 1659" transform="translate(20.711 71.032)">
        <g id="Group_1656" data-name="Group 1656" transform="translate(0.045 0.102)">
          <path id="Path_6808" data-name="Path 6808" d="M304.25,188.38c.656-1.275.832-1.611,1.947-2.214a9.1,9.1,0,0,1,2.588-.267c.847.046,1.412.886,1.725,1.672a5.056,5.056,0,0,1,.206,3.611c-.443,1.153-4.435,2.534-6.6-.5" transform="translate(-304.12 -185.894)" fill="#eb996e"/>
        </g>
        <g id="Group_1658" data-name="Group 1658">
          <g id="Group_1657" data-name="Group 1657">
            <path id="Path_6809" data-name="Path 6809" d="M307.526,192.661a5.1,5.1,0,0,1,.656-.023,2.926,2.926,0,0,0,1.6-.573,3.576,3.576,0,0,0,1.153-2.206,3.043,3.043,0,0,0-.939-2.779,4.464,4.464,0,0,0-2.9-.954,2.976,2.976,0,0,0-2.191,1.092,3.429,3.429,0,0,0-.679,1.58,2.938,2.938,0,0,1-.122.649,1.64,1.64,0,0,1-.038-.664,3.128,3.128,0,0,1,1.573-2.588,2.985,2.985,0,0,1,1.435-.428,4.957,4.957,0,0,1,1.618.2,4.063,4.063,0,0,1,1.565.817,3.051,3.051,0,0,1,.954,1.5,3.644,3.644,0,0,1,.092,1.641,4.926,4.926,0,0,1-.5,1.382,2.735,2.735,0,0,1-2.618,1.489A1.417,1.417,0,0,1,307.526,192.661Z" transform="translate(-304.061 -185.761)" fill="#263238"/>
          </g>
        </g>
      </g>
      <g id="Group_1661" data-name="Group 1661" transform="translate(31.92 58.419)">
        <g id="Group_1660" data-name="Group 1660">
          <path id="Path_6810" data-name="Path 6810" d="M320.077,169.278c.069.084-.183.374-.626.42s-.748-.176-.7-.275.328-.076.657-.122C319.733,169.278,320.008,169.186,320.077,169.278Z" transform="translate(-318.744 -169.238)" fill="#eb996e"/>
        </g>
      </g>
      <g id="Group_1663" data-name="Group 1663" transform="translate(37.142 57.144)">
        <g id="Group_1662" data-name="Group 1662">
          <path id="Path_6811" data-name="Path 6811" d="M325.932,168.661c-.107.023-.252-.2-.313-.5s-.031-.565.076-.588.244.2.313.5S326.039,168.631,325.932,168.661Z" transform="translate(-325.585 -167.568)" fill="#eb996e"/>
        </g>
      </g>
      <g id="Group_1665" data-name="Group 1665" transform="translate(41.473 56.198)">
        <g id="Group_1664" data-name="Group 1664">
          <path id="Path_6812" data-name="Path 6812" d="M332.351,166.673c-.023.107-.29.137-.588.076s-.527-.206-.5-.313.29-.137.588-.076S332.374,166.566,332.351,166.673Z" transform="translate(-331.258 -166.329)" fill="#eb996e"/>
        </g>
      </g>
      <g id="Group_1667" data-name="Group 1667" transform="translate(35.238 61.619)">
        <g id="Group_1666" data-name="Group 1666">
          <path id="Path_6813" data-name="Path 6813" d="M323.288,174.514c-.107,0-.2-.244-.2-.542s.092-.542.2-.542.2.244.2.542S323.4,174.514,323.288,174.514Z" transform="translate(-323.09 -173.43)" fill="#eb996e"/>
        </g>
      </g>
      <g id="Group_1669" data-name="Group 1669" transform="translate(39.825 60.405)">
        <g id="Group_1668" data-name="Group 1668">
          <path id="Path_6814" data-name="Path 6814" d="M329.3,172.084c-.107,0-.2-.053-.2-.122s.092-.122.2-.122.2.053.2.122S329.413,172.084,329.3,172.084Z" transform="translate(-329.1 -171.84)" fill="#eb996e"/>
        </g>
      </g>
      <g id="Group_1671" data-name="Group 1671" transform="translate(5.816 58.576)">
        <g id="Group_1670" data-name="Group 1670">
          <path id="Path_6815" data-name="Path 6815" d="M285.9,170.067c0,.107-.382.183-.8-.008s-.611-.527-.534-.6.359.084.695.237S285.908,169.952,285.9,170.067Z" transform="translate(-284.548 -169.444)" fill="#eb996e"/>
        </g>
      </g>
      <g id="Group_1673" data-name="Group 1673" transform="translate(10.435 57.989)">
        <g id="Group_1672" data-name="Group 1672">
          <path id="Path_6816" data-name="Path 6816" d="M290.745,169.167a.257.257,0,1,1,.252-.2A.229.229,0,0,1,290.745,169.167Z" transform="translate(-290.6 -168.675)" fill="#eb996e"/>
        </g>
      </g>
      <g id="Group_1675" data-name="Group 1675" transform="translate(8.496 62.58)">
        <g id="Group_1674" data-name="Group 1674">
          <path id="Path_6817" data-name="Path 6817" d="M288.319,175.537c-.107.015-.221-.16-.252-.4s.031-.435.137-.45.221.16.252.4S288.434,175.522,288.319,175.537Z" transform="translate(-288.06 -174.689)" fill="#eb996e"/>
        </g>
      </g>
      <g id="Group_1677" data-name="Group 1677" transform="translate(4.217 62.442)">
        <g id="Group_1676" data-name="Group 1676">
          <path id="Path_6818" data-name="Path 6818" d="M282.5,175.25c-.092-.061-.053-.275.076-.473s.313-.313.4-.252.053.275-.076.473S282.6,175.311,282.5,175.25Z" transform="translate(-282.454 -174.508)" fill="#eb996e"/>
        </g>
      </g>
    </g>
    <g id="Stew" transform="translate(173.326 2192.822)">
      <g id="Group_1701" data-name="Group 1701">
        <g id="Group_1692" data-name="Group 1692" transform="translate(0 29.833)">
          <g id="Group_1680" data-name="Group 1680" transform="translate(24.001)">
            <path id="Path_6819" data-name="Path 6819" d="M233.341,399.308v35.421a18.68,18.68,0,0,1-7.825,15.2h0a18.7,18.7,0,0,1-10.855,3.481H167.308A18.669,18.669,0,0,1,157.3,450.5l-1.611-1.023a18.686,18.686,0,0,1-8.68-15.779V399.3h86.331Z" transform="translate(-147.01 -399.3)" fill="#263238"/>
          </g>
          <g id="Group_1681" data-name="Group 1681" transform="translate(0 8.535)">
            <path id="Path_6820" data-name="Path 6820" d="M139.571,410.48h-24v4.168l13.855,2.13a12.121,12.121,0,0,1,9.4,7.008,8.738,8.738,0,0,1,.748,3.443s4.886-.084,5.718-5.916c.015-.115.031-.237.046-.351a10.112,10.112,0,0,0-5.641-10.42Z" transform="translate(-115.57 -410.48)" fill="#455a64"/>
          </g>
          <g id="Group_1685" data-name="Group 1685" transform="translate(104.35 8.374)">
            <g id="Group_1682" data-name="Group 1682" transform="translate(0.128 0.191)">
              <path id="Path_6821" data-name="Path 6821" d="M258.286,410.52h24v4.168l-13.855,2.13a12.12,12.12,0,0,0-9.4,7.008,8.738,8.738,0,0,0-.748,3.443s-4.886-.084-5.718-5.916c-.015-.115-.031-.237-.046-.351a10.112,10.112,0,0,1,5.641-10.42Z" transform="translate(-252.433 -410.52)" fill="#455a64"/>
            </g>
            <g id="Group_1684" data-name="Group 1684">
              <g id="Group_1683" data-name="Group 1683">
                <path id="Path_6822" data-name="Path 6822" d="M258.246,410.461a3.491,3.491,0,0,1-.351.214,10.921,10.921,0,0,0-1.008.626,10.144,10.144,0,0,0-3.008,3.275,9.985,9.985,0,0,0-1.214,6.649,7.413,7.413,0,0,0,1.6,3.809,5.844,5.844,0,0,0,3.985,2l-.183.176a9.159,9.159,0,0,1,1.015-4.061,11.406,11.406,0,0,1,2.7-3.527,12.487,12.487,0,0,1,4-2.382,22.8,22.8,0,0,1,4.71-1.008c4.092-.626,8.031-1.229,11.733-1.794l-.16.191c0-1.427.008-2.817.008-4.168l.183.183c-7.046-.031-13.031-.053-17.291-.076-2.092-.023-3.763-.038-4.939-.053-.55-.015-.992-.023-1.313-.031a1.884,1.884,0,0,1-.466-.023,2.5,2.5,0,0,1,.443-.031c.321-.008.756-.015,1.305-.031,1.176-.015,2.84-.031,4.931-.053,4.267-.015,10.267-.046,17.321-.076h.183v.183c0,1.351.008,2.741.008,4.168v.16l-.16.023-11.725,1.817a22.094,22.094,0,0,0-4.634.985,12.079,12.079,0,0,0-3.878,2.305,10.2,10.2,0,0,0-3.611,7.3v.191l-.176-.015a6.171,6.171,0,0,1-4.229-2.137,7.68,7.68,0,0,1-1.634-3.985,10.155,10.155,0,0,1,4.443-10.054,8.376,8.376,0,0,1,1.046-.588A2.033,2.033,0,0,1,258.246,410.461Z" transform="translate(-252.265 -410.27)" fill="#263238"/>
              </g>
            </g>
          </g>
          <g id="Group_1687" data-name="Group 1687" transform="translate(23.871 0.953)">
            <g id="Group_1686" data-name="Group 1686">
              <path id="Path_6823" data-name="Path 6823" d="M231.758,400.55a.855.855,0,0,1-.2.114l-.6.3c-.55.267-1.328.641-2.305,1.122q-.756.366-1.672.8c-.618.275-1.305.534-2.038.84-1.473.58-3.122,1.321-5.031,1.9-.947.313-1.939.641-2.97.985s-2.137.588-3.267.9c-2.252.664-4.718,1.115-7.306,1.649a95.519,95.519,0,0,1-34.146.008c-2.588-.534-5.054-.985-7.305-1.649-1.13-.313-2.237-.565-3.275-.9s-2.023-.672-2.97-.985c-1.908-.58-3.557-1.321-5.031-1.9-.733-.3-1.42-.557-2.038-.84s-1.168-.557-1.672-.8c-.985-.481-1.756-.855-2.305-1.122l-.6-.3a.115.115,0,1,1,.015-.038c.16.069.359.153.611.267.557.252,1.344.6,2.336,1.053.511.229,1.069.489,1.687.771.626.267,1.313.511,2.046.8,1.481.557,3.13,1.275,5.038,1.84.947.305,1.939.626,2.97.962s2.137.573,3.267.878c2.252.649,4.71,1.084,7.283,1.6a96.732,96.732,0,0,0,34.024-.008c2.573-.519,5.038-.962,7.283-1.611,1.13-.305,2.229-.55,3.267-.878s2.023-.656,2.97-.962c1.908-.565,3.557-1.283,5.038-1.84.733-.29,1.428-.542,2.046-.809.611-.282,1.176-.534,1.687-.771.992-.45,1.779-.8,2.336-1.053.252-.107.458-.2.611-.267A1.678,1.678,0,0,1,231.758,400.55Z" transform="translate(-146.84 -400.548)" fill="#455a64"/>
            </g>
          </g>
          <g id="Group_1689" data-name="Group 1689" transform="translate(23.924 3.886)">
            <g id="Group_1688" data-name="Group 1688">
              <path id="Path_6824" data-name="Path 6824" d="M231.828,404.39a.847.847,0,0,1-.2.114l-.6.3c-.55.267-1.328.641-2.305,1.122q-.756.366-1.672.8c-.618.275-1.305.534-2.038.84-1.473.58-3.122,1.321-5.031,1.9-.947.313-1.939.641-2.969.985s-2.138.588-3.267.9c-2.252.664-4.718,1.115-7.306,1.649a95.517,95.517,0,0,1-34.146.008c-2.588-.534-5.054-.985-7.306-1.649-1.13-.313-2.237-.565-3.275-.9s-2.023-.672-2.97-.985c-1.908-.58-3.557-1.321-5.031-1.9-.733-.3-1.42-.565-2.038-.84q-.916-.435-1.672-.8c-.985-.481-1.756-.855-2.305-1.122l-.6-.3a.115.115,0,1,1,.015-.038c.16.069.359.153.611.267.557.252,1.344.6,2.336,1.053.511.229,1.069.489,1.687.771.626.267,1.313.512,2.046.8,1.481.557,3.13,1.275,5.038,1.84.947.305,1.939.626,2.97.962s2.137.573,3.267.878c2.252.649,4.71,1.084,7.283,1.6a96.732,96.732,0,0,0,34.024-.008c2.573-.519,5.038-.962,7.283-1.611,1.13-.305,2.229-.55,3.267-.878s2.023-.657,2.969-.962c1.908-.565,3.557-1.282,5.038-1.84.733-.29,1.428-.542,2.046-.809.611-.282,1.176-.534,1.687-.771.992-.45,1.779-.8,2.336-1.053.252-.107.458-.2.611-.267Z" transform="translate(-146.91 -404.39)" fill="#455a64"/>
            </g>
          </g>
          <g id="Group_1690" data-name="Group 1690" transform="translate(59.62 35.494)">
            <path id="Path_6825" data-name="Path 6825" d="M226.61,465.509c6.3-.985,9.535-4.42,11.367-10.519a9.408,9.408,0,0,0,.145-5.847,4.834,4.834,0,0,0-4.443-3.344c-2.4.092-4.107,2.366-5.084,4.557s-1.7,4.664-3.588,6.153-5.428,1.038-5.825-1.328a10.091,10.091,0,0,0-.2-1.87c-.534-1.435-2.817-1.359-3.8-.191s-1.038,2.847-.992,4.382.1,3.183-.756,4.458c-1.275,1.9-3.947,2.115-6.237,2.137q-6.767.069-13.527.13s2.328,1.122,8.351,1.122C210.235,465.334,226.61,465.509,226.61,465.509Z" transform="translate(-193.67 -445.796)" fill="#e8505b"/>
          </g>
          <g id="Group_1691" data-name="Group 1691" transform="translate(34.124 46.526)">
            <path id="Path_6826" data-name="Path 6826" d="M192.546,467.631c-4.527.076-9.321.084-13.191-2.267-2.443-1.481-4.489-3.878-7.313-4.313a3.284,3.284,0,0,0-2.359.412,1.79,1.79,0,0,0-.687,2.145,14.661,14.661,0,0,1-3.283-2.267,4.075,4.075,0,0,0-3.725-.924,3.041,3.041,0,0,0-1.626,3.534,4.976,4.976,0,0,0,2.733,3.076,14.623,14.623,0,0,0,4.092,1.107l32.566.618C199.767,467.845,192.546,467.631,192.546,467.631Z" transform="translate(-160.271 -460.247)" fill="#e8505b"/>
          </g>
        </g>
        <g id="Group_1693" data-name="Group 1693" transform="translate(40.978 84.246)">
          <path id="Path_6827" data-name="Path 6827" d="M169.25,472.374l.069-1.794,51.513.794v1Z" transform="translate(-169.25 -470.58)" fill="#455a64"/>
        </g>
        <g id="Group_1694" data-name="Group 1694" transform="translate(88.257 56.88)">
          <path id="Path_6828" data-name="Path 6828" d="M232.2,443.112a7.128,7.128,0,0,1-.282-6.8c.466-.924,1.428-1.84,2.4-1.511.939.313,1.191,1.511,1.16,2.5-.046,2.13-1.58,6.435-3.283,5.809" transform="translate(-231.184 -434.731)" fill="#e8505b"/>
        </g>
        <g id="Group_1696" data-name="Group 1696" transform="translate(55.811 1.343)">
          <g id="Group_1695" data-name="Group 1695">
            <path id="Path_6829" data-name="Path 6829" d="M192.008,361.98c.046.008-.046.374-.008,1.023a8.235,8.235,0,0,0,.725,2.672,19.517,19.517,0,0,1,1.443,3.954,6.968,6.968,0,0,1-1.244,4.985c-.977,1.565-2.137,2.855-2.908,4.206a8.567,8.567,0,0,0-.863,2.008,5.164,5.164,0,0,0-.137,1.878,4.132,4.132,0,0,0,1.092,2.466,8.887,8.887,0,0,0,.8.626c-.008.015-.092-.015-.26-.084a2.874,2.874,0,0,1-.656-.427,4.148,4.148,0,0,1-1.26-2.542,5.41,5.41,0,0,1,.092-1.992,8.187,8.187,0,0,1,.863-2.107c.771-1.4,1.939-2.718,2.886-4.237a6.707,6.707,0,0,0,1.221-4.71,21.57,21.57,0,0,0-1.344-3.908,7.549,7.549,0,0,1-.618-2.771,4.036,4.036,0,0,1,.084-.771A1.054,1.054,0,0,1,192.008,361.98Z" transform="translate(-188.68 -361.979)" fill="#263238"/>
          </g>
        </g>
        <g id="Group_1698" data-name="Group 1698" transform="translate(63.811 0.671)">
          <g id="Group_1697" data-name="Group 1697">
            <path id="Path_6830" data-name="Path 6830" d="M202.488,361.1c.046.008-.046.374-.008,1.023a8.236,8.236,0,0,0,.725,2.672,19.518,19.518,0,0,1,1.443,3.954,6.968,6.968,0,0,1-1.244,4.985c-.977,1.565-2.137,2.855-2.908,4.206a8.568,8.568,0,0,0-.863,2.008,5.164,5.164,0,0,0-.137,1.878,4.133,4.133,0,0,0,1.092,2.466,8.852,8.852,0,0,0,.8.626c-.008.015-.092-.015-.26-.084a2.868,2.868,0,0,1-.657-.427,4.148,4.148,0,0,1-1.26-2.542,5.41,5.41,0,0,1,.092-1.992,8.185,8.185,0,0,1,.863-2.107c.771-1.4,1.939-2.718,2.886-4.237a6.707,6.707,0,0,0,1.221-4.71,21.568,21.568,0,0,0-1.344-3.909,7.549,7.549,0,0,1-.618-2.771,4.034,4.034,0,0,1,.084-.771C202.442,361.184,202.473,361.092,202.488,361.1Z" transform="translate(-199.16 -361.099)" fill="#263238"/>
          </g>
        </g>
        <g id="Group_1700" data-name="Group 1700" transform="translate(71.803)">
          <g id="Group_1699" data-name="Group 1699">
            <path id="Path_6831" data-name="Path 6831" d="M212.958,360.22c.046.008-.046.374-.008,1.023a8.236,8.236,0,0,0,.725,2.672,19.516,19.516,0,0,1,1.443,3.954,6.968,6.968,0,0,1-1.244,4.985c-.977,1.565-2.137,2.855-2.908,4.206a8.568,8.568,0,0,0-.863,2.008,5.165,5.165,0,0,0-.137,1.878,4.132,4.132,0,0,0,1.092,2.466,8.885,8.885,0,0,0,.8.626c-.008.015-.092-.015-.26-.084a2.869,2.869,0,0,1-.656-.427,4.147,4.147,0,0,1-1.26-2.542,5.41,5.41,0,0,1,.092-1.992,8.184,8.184,0,0,1,.863-2.107c.771-1.4,1.939-2.718,2.886-4.237a6.707,6.707,0,0,0,1.221-4.71,21.57,21.57,0,0,0-1.344-3.909,7.549,7.549,0,0,1-.618-2.771,4.039,4.039,0,0,1,.084-.771C212.92,360.3,212.943,360.22,212.958,360.22Z" transform="translate(-209.63 -360.22)" fill="#263238"/>
          </g>
        </g>
      </g>
    </g>
  </g>
</svg>
