<svg id="Component_26_1" data-name="Component 26 – 1" xmlns="http://www.w3.org/2000/svg" width="384.133" height="299.947" viewBox="0 0 384.133 299.947">
  <path id="Path_7258" data-name="Path 7258" d="M623.643,532.689h0a8.844,8.844,0,0,1-13.886-2.373l-8.18-15.707,3.255-7.052,17.538,11.224a8.844,8.844,0,0,1,1.274,13.908Z" transform="translate(-408.655 -326.362)" fill="#f6d3a0"/>
  <path id="Path_7259" data-name="Path 7259" d="M526.773,429.152l-67.061-34.83a2.455,2.455,0,0,1-1.251-1.588L443.914,334.1a14.074,14.074,0,0,1,9.01-16.672l3.5-1.227a6.048,6.048,0,0,1,7.826,4.09l14.338,51.618a2.455,2.455,0,0,0,.8,1.233l54.639,45.272a2.455,2.455,0,0,1,.46,3.277l-4.559,6.664A2.455,2.455,0,0,1,526.773,429.152Z" transform="translate(-336.325 -238.652)" fill="#d9f0f3"/>
  <path id="Path_7260" data-name="Path 7260" d="M90.4,443.36l-28.749-7.052,1.627-16.273,28.749,13.019Z" transform="translate(-28.209 -192.189)" fill="#f6d3a0"/>
  <path id="Path_7261" data-name="Path 7261" d="M428.64,272.808c-32.525-17.123-66.571-25.723-103.064-20.613,11-18.643,19.17-35.879,18.624-48.783a25.4,25.4,0,0,1,9.964-21.638,30.833,30.833,0,0,1,18.376-6.064h0a25.251,25.251,0,0,1,18.7-.744,19.667,19.667,0,0,1,11.407,11.3c1.248,3.023,3.933,5.67,7.829,8a21.97,21.97,0,0,1,8.477,8.857c2.566,5.108,2.743,10.249-.62,15.441C430.931,231.8,430.966,251.676,428.64,272.808Z" transform="translate(-282.369 -173.522)"/>
  <path id="Path_7262" data-name="Path 7262" d="M402.628,606.121h0a16.188,16.188,0,0,1-18.19,4.768c-23.919,2.211-43.3-14.624-64.061-30.611l4.882-13.019-40.683-28.75,17.358-10.849,37.429-14.1,62.978,71.5a16.188,16.188,0,0,1,.288,21.063Z" transform="translate(-263.609 -329.107)" fill="#3d99a7"/>
  <circle id="Ellipse_223" data-name="Ellipse 223" cx="22.783" cy="22.783" r="22.783" transform="translate(77.381 10.868)" fill="#f6d3a0"/>
  <path id="Path_7263" data-name="Path 7263" d="M428.156,294.528l-26.58,2.712c1.426-15.541,1.988-29.881,0-40.683h26.58C423.108,273.756,423.551,286.014,428.156,294.528Z" transform="translate(-317.143 -211.515)" fill="#f6d3a0"/>
  <path id="Path_7264" data-name="Path 7264" d="M351.971,391.342l-43.4-23.325c15.651-18.143,22.269-46.467,25.349-78.778.521-5.464,4.7-5.278,10.181-5.572,5.785-.311,11.471-3.373,16.545-.271L375.3,299.669l7.052-7.594,13.857,5.939a6.377,6.377,0,0,1,3.631,7.573c-.258,26.136-3.424,49.106-16.945,60.8L371.5,378.323Z" transform="translate(-274.591 -223.165)" fill="#d9f0f3"/>
  <path id="Path_7265" data-name="Path 7265" d="M391.256,639.066s-20.7-19.3-34.759-18.329" transform="translate(-296.517 -378.132)" opacity="0.2"/>
  <path id="Path_7266" data-name="Path 7266" d="M95.316,449.423,90.4,478.615l-16.349-.422,6.562-30.658Z" transform="translate(-33.884 -204.772)" fill="#f6d3a0"/>
  <path id="Path_7267" data-name="Path 7267" d="M349.719,700.887h0a8.939,8.939,0,0,1-3.066-.444l-26.384-2.218a12.419,12.419,0,0,1-6.261-15.423l2.948-10.346c5.475,2.871,11.171,2.463,16.545-1.9l23.328,16.348a8.94,8.94,0,0,1-7.11,13.981Z" transform="translate(-276.733 -400.944)" fill="#de8706"/>
  <path id="Path_7268" data-name="Path 7268" d="M259.914,623.366h0a8.941,8.941,0,0,1,.444-3.066l2.218-26.384A12.419,12.419,0,0,1,278,587.655l10.346,2.949c-2.871,5.475-2.463,11.171,1.9,16.544L273.9,630.476a8.94,8.94,0,0,1-13.981-7.11Z" transform="translate(-252.324 -362.668)" fill="#de8706"/>
  <path id="Path_7269" data-name="Path 7269" d="M308.658,538.213l-18.986-1.085.542-33.089-12.909.745c-18.944,1.093-34.335-15.731-30.9-34.393q.106-.577.233-1.156a35.734,35.734,0,0,1,14.69-21.526l19.665-13.645,16,6.781,12.679-6.807A22,22,0,0,1,331.2,436.5h0a22,22,0,0,1,7.512,25.9Z" transform="translate(-245.924 -291.925)" fill="#3d99a7"/>
  <path id="Path_7270" data-name="Path 7270" d="M335.091,513.557s-8.679,17.358-7.594,27.665" transform="translate(-283.205 -329.107)" opacity="0.2"/>
  <path id="Path_7271" data-name="Path 7271" d="M155.152,179.535l4.752,21.807,28.879,24.843-25.495-26.037Z" transform="translate(-70.991 -82.147)" opacity="0.2"/>
  <path id="Path_7272" data-name="Path 7272" d="M106.152,198.535l8.679,35.259,25.495,9.222-23.867-11.934Z" transform="translate(-48.57 -90.84)" opacity="0.2"/>
  <path id="Path_7273" data-name="Path 7273" d="M436.693,215.179c-16.791-7.725-35.775-9.928-52.617-1.627l2.17-19.528,36.886-5.967Z" transform="translate(-309.136 -180.173)"/>
  <path id="Path_7274" data-name="Path 7274" d="M523.788,526.057a2.716,2.716,0,0,0-2.712,2.712V629.664a2.715,2.715,0,0,0,2.712,2.712H753.242a2.715,2.715,0,0,0,2.712-2.712V528.769a2.715,2.715,0,0,0-2.712-2.712Z" transform="translate(-371.821 -334.827)" fill="#de8706"/>
  <path id="Path_7275" data-name="Path 7275" d="M528.559,530.557a2.987,2.987,0,0,0-2.984,2.983v95.47a2.987,2.987,0,0,0,2.984,2.983H752.588a2.987,2.987,0,0,0,2.983-2.983V533.54a2.987,2.987,0,0,0-2.983-2.983Z" transform="translate(-373.88 -336.886)" fill="#fff"/>
  <path id="Path_7276" data-name="Path 7276" d="M521.642,502.689h0a8.844,8.844,0,0,1-13.886-2.373l-8.181-15.707,3.255-7.052,17.538,11.224a8.844,8.844,0,0,1,1.274,13.908Z" transform="translate(-361.984 -312.635)" fill="#f6d3a0"/>
  <path id="Path_7277" data-name="Path 7277" d="M424.774,399.152l-67.061-34.83a2.455,2.455,0,0,1-1.251-1.588L341.914,304.1a14.073,14.073,0,0,1,9.01-16.672l3.5-1.227a6.048,6.048,0,0,1,7.826,4.09l14.338,51.618a2.455,2.455,0,0,0,.8,1.233l54.639,45.272a2.455,2.455,0,0,1,.46,3.277l-4.559,6.664A2.455,2.455,0,0,1,424.774,399.152Z" transform="translate(-289.654 -224.925)" fill="#d9f0f3"/>
  <circle id="Ellipse_224" data-name="Ellipse 224" cx="15.863" cy="15.863" r="15.863" transform="translate(177.232 209.098)" fill="#de8706"/>
  <path id="Path_7278" data-name="Path 7278" d="M667.2,568.744a2.644,2.644,0,1,0,0,5.288H791.84a2.644,2.644,0,0,0,0-5.288Z" transform="translate(-437.473 -354.358)" fill="#e6e6e6"/>
  <path id="Path_7279" data-name="Path 7279" d="M667.2,597.987a2.644,2.644,0,1,0,0,5.288h53.631a2.644,2.644,0,0,0,0-5.288Z" transform="translate(-437.473 -367.739)" fill="#e6e6e6"/>
  <path id="Path_7280" data-name="Path 7280" d="M576.389,644.739c-2.011,0-3.648,1.186-3.648,2.644s1.636,2.644,3.648,2.644H748.349c2.011,0,3.648-1.186,3.648-2.644s-1.636-2.644-3.648-2.644Z" transform="translate(-395.461 -389.13)" fill="#e6e6e6"/>
  <path id="Path_7281" data-name="Path 7281" d="M576.389,673.982c-2.011,0-3.648,1.186-3.648,2.644s1.636,2.644,3.648,2.644H748.349c2.011,0,3.648-1.186,3.648-2.644s-1.636-2.644-3.648-2.644Z" transform="translate(-395.461 -402.511)" fill="#e6e6e6"/>
</svg>
