<svg id="Component_22_1" data-name="Component 22 – 1" xmlns="http://www.w3.org/2000/svg" xmlns:xlink="http://www.w3.org/1999/xlink" width="38" height="41" viewBox="0 0 38 41">
  <defs>
    <filter id="Rectangle_2146" x="0" y="0" width="38" height="41" filterUnits="userSpaceOnUse">
      <feOffset dy="3" input="SourceAlpha"/>
      <feGaussianBlur result="blur"/>
      <feFlood flood-opacity="0.102"/>
      <feComposite operator="in" in2="blur"/>
      <feComposite in="SourceGraphic"/>
    </filter>
  </defs>
  <g id="Group_6001" data-name="Group 6001" transform="translate(-0.489 -0.5)">
    <g transform="matrix(1, 0, 0, 1, 0.49, 0.5)" filter="url(#Rectangle_2146)">
      <rect id="Rectangle_2146-2" data-name="Rectangle 2146" width="38" height="38" rx="19" fill="#fff"/>
    </g>
  </g>
  <g id="Group_6188" data-name="Group 6188" transform="translate(-1443.962 -3814.665)">
    <path id="Path_4871" data-name="Path 4871" d="M14.09,4.247,10.744.79V.756H1.721V6.331h0l4.71,4.212.021.019,1.59,1.42,6.419-5.6V5L14.1,4.249Zm1.119,1.474a.494.494,0,0,1,.334-.128.551.551,0,0,1,.284.083A.7.7,0,0,1,16,5.823a.972.972,0,0,1,.233.586v9.722a.786.786,0,0,1-.228.551h0a.78.78,0,0,1-.551.228H.789a.786.786,0,0,1-.551-.228h0a.774.774,0,0,1-.228-.551V6.41a.977.977,0,0,1,.238-.595.757.757,0,0,1,.173-.138A.551.551,0,0,1,.7,5.6a.494.494,0,0,1,.275.078V.377A.377.377,0,0,1,1.344,0h9.524a.373.373,0,0,1,.289.138L15.1,4.21a.373.373,0,0,1,.107.262h0V5.723ZM7.788,12.764l-1.6-1.429L.764,16.089v.043a.023.023,0,0,0,0,.018h0a.03.03,0,0,0,.018,0h14.67a.03.03,0,0,0,.018,0h0a.023.023,0,0,0,0-.018V16.1L9.98,11.286,8.287,12.767h0a.376.376,0,0,1-.5,0ZM5.623,10.837.764,6.489v8.6L5.623,10.83Zm9.855,4.275V6.485l-4.926,4.3,4.926,4.316Z" transform="translate(1454.952 3825.665)" fill="#f82626"/>
    <path id="at-the-rate" d="M1.94,2.662a1.465,1.465,0,0,0,.014.382.417.417,0,0,0,.109.229.276.276,0,0,0,.2.076.311.311,0,0,0,.131-.037.441.441,0,0,0,.155-.154.827.827,0,0,0,.1-.212l.1-1.214a.689.689,0,0,0-.141-.015.543.543,0,0,0-.354.112.7.7,0,0,0-.209.32,2.369,2.369,0,0,0-.106.513Zm.8.915a.9.9,0,0,1-.145.15.871.871,0,0,1-.567.19.741.741,0,0,1-.466-.154.91.91,0,0,1-.3-.438,1.6,1.6,0,0,1-.061-.663,2.261,2.261,0,0,1,.243-.8,1.446,1.446,0,0,1,.467-.528,1.122,1.122,0,0,1,.633-.188,1.19,1.19,0,0,1,.522.093,3.762,3.762,0,0,1,.364.209L3.3,3.083a.431.431,0,0,0,0,.157.209.209,0,0,0,.053.1.2.2,0,0,0,.086.053A.345.345,0,0,0,3.81,3.27,1.029,1.029,0,0,0,4,2.9a1.97,1.97,0,0,0,.083-.531A2.317,2.317,0,0,0,3.946,1.4,1.344,1.344,0,0,0,3.415.742,1.7,1.7,0,0,0,2.473.5,1.6,1.6,0,0,0,1.52.787,1.878,1.878,0,0,0,.9,1.549a2.88,2.88,0,0,0-.25,1.072,2.766,2.766,0,0,0,.079.857,1.48,1.48,0,0,0,.313.6,1.294,1.294,0,0,0,.531.353,2.122,2.122,0,0,0,.728.116,2.458,2.458,0,0,0,.49-.051,2.479,2.479,0,0,0,.424-.119l.108.5a1.43,1.43,0,0,1-.484.185,2.66,2.66,0,0,1-.548.061,2.677,2.677,0,0,1-1.269-.277,1.776,1.776,0,0,1-.783-.835,3.014,3.014,0,0,1-.23-1.391A3.317,3.317,0,0,1,.212,1.578a2.6,2.6,0,0,1,.5-.835A2.237,2.237,0,0,1,1.485.191a2.454,2.454,0,0,1,1-.2,2.358,2.358,0,0,1,1.225.3,1.849,1.849,0,0,1,.747.823,2.59,2.59,0,0,1,.217,1.217,2.647,2.647,0,0,1-.088.585,1.732,1.732,0,0,1-.227.514,1.164,1.164,0,0,1-.385.364,1.114,1.114,0,0,1-.561.136.775.775,0,0,1-.574-.23.675.675,0,0,1-.1-.125Z" transform="translate(1460.734 3828.997)" fill="#f82626"/>
  </g>
</svg>
