<svg id="Component_27_1" data-name="Component 27 – 1" xmlns="http://www.w3.org/2000/svg" width="35.847" height="39.256" viewBox="0 0 35.847 39.256">
  <g id="Rectangle_1893" data-name="Rectangle 1893" transform="translate(0.478 0.704)" fill="none" stroke="#de8706" stroke-width="1">
    <rect width="16.32" height="16.32" rx="2" stroke="none"/>
    <rect x="0.5" y="0.5" width="15.32" height="15.32" rx="1.5" fill="none"/>
  </g>
  <g id="Rectangle_1894" data-name="Rectangle 1894" transform="translate(19.049 21.527)" fill="none" stroke="#de8706" stroke-width="1">
    <rect width="16.32" height="16.32" rx="2" stroke="none"/>
    <rect x="0.5" y="0.5" width="15.32" height="15.32" rx="1.5" fill="none"/>
  </g>
  <path id="Icon_awesome-arrow-up" data-name="Icon awesome-arrow-up" d="M1.555,12.438l-.878-.878a.946.946,0,0,1,0-1.341L8.365,2.525a.946.946,0,0,1,1.341,0l7.688,7.688a.946.946,0,0,1,0,1.341l-.878.878a.951.951,0,0,1-1.357-.016L10.62,7.654V19.026a.947.947,0,0,1-.95.95H8.4a.947.947,0,0,1-.95-.95V7.654L2.912,12.422A.944.944,0,0,1,1.555,12.438Z" transform="translate(18.174 -2.246)" fill="#de8706"/>
  <path id="Icon_awesome-arrow-up-2" data-name="Icon awesome-arrow-up" d="M1.555,9.784l-.878.878A.946.946,0,0,0,.676,12L8.365,19.7a.946.946,0,0,0,1.341,0l7.688-7.688a.946.946,0,0,0,0-1.341l-.878-.878a.951.951,0,0,0-1.357.016L10.62,14.568V3.2a.947.947,0,0,0-.95-.95H8.4a.947.947,0,0,0-.95.95V14.568L2.912,9.8a.944.944,0,0,0-1.357-.016Z" transform="translate(-0.397 19.28)" fill="#de8706"/>
</svg>
