<svg id="Component_4_1" data-name="Component 4 – 1" xmlns="http://www.w3.org/2000/svg" width="457.701" height="431.825" viewBox="0 0 457.701 431.825">
  <path id="Path_7285" data-name="Path 7285" d="M233.961,121.275c111.82,103.612,223.74-8.544,223.74,117.847s-102.46,228.85-228.85,228.85S0,365.513,0,239.122,122.142,17.663,233.961,121.275Z" transform="translate(0 -77.148)" fill="#de8706"/>
  <path id="Path_6715" data-name="Path 6715" d="M2488.147,1652.215s4.151,4.053,4.245,5.534.368,17.408-1.327,18.9-6.673,2.538-5.071,4.212c1.211,1.266,10.51.991,16.677.655,1.8-.1,4.057-14.458,4.768-16.572,1.035-3.066,3.551-9.97,2.609-12.107-.456-1.04-2.654-3.182-5.742-5.175-3.254-2.1-6.364-6.777-6.364-6.777Z" transform="translate(-2099.132 -1250.056)" fill="#fcdfb9"/>
  <path id="Path_6716" data-name="Path 6716" d="M2399.319,1678.415s3.716,10.494,3.716,10.521c.275,1.664,1.365,5.77,1.365,7.279,0,5.676-25.6-4.817-19.865-7.334a6.067,6.067,0,0,0,2.319-3.981c.264-2.978-2.159-6.711-2.159-6.711Z" transform="translate(-2053.297 -1266.824)" fill="#fcdfb9"/>
  <path id="Path_6717" data-name="Path 6717" d="M2333.492,1323.74s-1.866,18.807-1.866,19.088c0,30.425-6.029,89.858-4.884,95.578,2.8,13.951,32.913,85.123,32.913,85.123l16.275-1.944-21.209-85.216,7.807-34.3,11.046-67.8Z" transform="translate(-2027.634 -1107.521)" fill="#3d99a7"/>
  <path id="Path_6718" data-name="Path 6718" d="M2397.594,1342.571l3.088,17.828,8.358,73.368,31.823,71.705s-4.476,10.434-11.077,11.9l-50.646-73.622-31.46-94.2,1.107-20.927Z" transform="translate(-2037.11 -1109.715)" fill="#3d99a7"/>
  <path id="Path_6719" data-name="Path 6719" d="M2502.75,1653.01s-9.564,26.934-13.307,28.233c-1,.347-5.765,1.222-6.662,3.331a9.168,9.168,0,0,0,0,2.758h19.935s2.523-11.865,3.519-17.079c0,0,5.279-12.74,4.691-13.9S2502.75,1653.01,2502.75,1653.01Z" transform="translate(-2097.774 -1255.507)" fill="#de8706"/>
  <path id="Path_6720" data-name="Path 6720" d="M2389.666,1706.77l-2.935-9.26s-6.155,2.6-9.233,2.169-9.089-2.169-9.089-2.169c-12.289,4.047-22.353,6.006-20.526,9.26h41.783Z" transform="translate(-2037.104 -1275.507)" fill="#de8706"/>
  <path id="Path_6721" data-name="Path 6721" d="M1933.425,1651.45s-1.734,11.683-4.713,15.449c-1,1.266-2.829,2.862-4.03,5.153-1.866,3.557-.837,8.859.545,11.776.7,1.5-.049,1.492,1.559,1.977a9.975,9.975,0,0,0,11.87-5.418,26.817,26.817,0,0,0,2.329-9.954c.506-10.6,3.9-16,3.9-16Z" transform="translate(-1846.544 -1254.806)" fill="#f9e7cf"/>
  <path id="Path_6722" data-name="Path 6722" d="M2005.641,1159.686c2.148-5.693,4.03-11.518,6.023-17.089,3.827-10.72,7.036-21.88,7.51-33.321a52.351,52.351,0,0,0-4.74-25.128c-3.3-6.9-11.463-10.807-18.912-10.818-23.641-.033-26.653,31.344-41.7,43.445-3.177,2.555-6.612,4.784-9.872,7.229C1949.383,1138.137,1964.37,1158.211,2005.641,1159.686Z" transform="translate(-1855.659 -994.979)"/>
  <path id="Path_6723" data-name="Path 6723" d="M2034.51,1661.15s1.069,13.169.2,17.453c-.462,2.29-3.055,7.008-1.866,9.167a5.888,5.888,0,0,0,2.543,2.7l30.787.485c1.679.027.567-1.024-.782-1.988-2.213-1.58-4-2.626-11.072-5.952-.463-.214-2.142-1.255-2.748-1.614a20.975,20.975,0,0,1-4.4-3.782c-2.208-2.389-2.406-13.99-2.406-13.99Z" transform="translate(-1895.475 -1259.166)" fill="#f9e7cf"/>
  <path id="Path_6724" data-name="Path 6724" d="M2055.136,1335.512s4.565,23.905,2.021,37.928-14.766,143.973-14.766,143.973l-13.577.743s-2.847-54.285-2.335-61.833,4.537-20.184,4.537-20.184l-1.349-43.83,17.134-57.578Z" transform="translate(-1892.724 -1112.461)" fill="#3d99a7"/>
  <path id="Path_6725" data-name="Path 6725" d="M1976.321,1328.6s-10.692,15.636-13.235,28.58,1.866,52.711-3.029,69.674c-2.648,9.179-12.7,23.355-14.226,35.219s-7.521,42.939-7.521,42.939l13.572,2.615,31.542-77.608,24.742-70.143,6.337-36.128Z" transform="translate(-1853.124 -1107.526)" fill="#3d99a7"/>
  <path id="Path_6726" data-name="Path 6726" d="M1938.729,1694.84c-7.394,1.31-12.316-2.9-14.876-6.04-1.877,3.567-2.8,8.886-1.415,11.815,1.217,2.582,4.779,2.5,7.582,2.61a7.356,7.356,0,0,0,6.728-4A24.374,24.374,0,0,0,1938.729,1694.84Z" transform="translate(-1845.692 -1271.593)" fill="#d18c11"/>
  <path id="Path_6727" data-name="Path 6727" d="M2051.519,1697.371c-8.143,2.032-14.16.65-17.53-.671-.871,2.389-2.02,5.39-1.409,7.119.748,2.119,1.811,2.6,2.753,2.621,7.438.187,27.242.446,32.912.517a.9.9,0,0,0,.721-1.481C2067.563,1703.852,2052.125,1697.729,2051.519,1697.371Z" transform="translate(-1895.415 -1275.143)" fill="#d18c11"/>
  <path id="Path_6728" data-name="Path 6728" d="M2128.888,1166.769c-.072-1.316-6.057.06-6.839-.981s6.557-4.173,6.4-5.307c-.292-2.086-8.242,2.935-8.44,1.982s7.752-6.535,6.177-7.659-7.636,6.646-8.3,5.721,6.287-6.717,5.219-8.908c-.572-1.173-10.625,11.4-12.409,11.375s-.975-6.981-2.527-7.322.087,13.411-.574,14.166-14.116,18.053-19.716,22.232c-1.624-1.784-11.671-10.648-13.164-12.354-2.484,3.948-6.332,6.177-9.018,9.949,5.341,5.5,21.048,17.987,23.223,18.058,6.612.221,20.79-26.542,23.829-31.376s5.918-4.861,8.429-7.031S2128.965,1168.09,2128.888,1166.769Z" transform="translate(-1910.378 -1030.129)" fill="#f9e7cf"/>
  <path id="Path_6729" data-name="Path 6729" d="M2056.361,1208.893s-22.314-17.172-26.5-24.9,5.709-13.219,13.489-13.3,24.247,23.063,24.247,23.063Z" transform="translate(-1893.821 -1038.736)" fill="#d9f0f3"/>
  <path id="Path_6730" data-name="Path 6730" d="M2183.878,1234.135l1.679,1.013a12.855,12.855,0,0,0,2.048,1.459c.419.1,11.9-.153,11.9-.153s.039,3.815-.033,3.815-6.033,4.856-6.033,4.856l-1.272.584-7.818-2.334-7.141-.892s-5.065-.589-5.065-.71a32.76,32.76,0,0,1,.347-4.322c.2-.2,3.061-3.138,3.061-3.138s2.2-.5,2.274-.5,2.2-.418,2.274-.446,3.408.5,3.408.5Z" transform="translate(-1958.216 -1066.906)" fill="#fcdfb9"/>
  <path id="Path_6731" data-name="Path 6731" d="M2008.494,1168.043s-13.6-.87-18.989,5.01,11.942,52.4,12.922,59.885-4.988,27.385-4.988,27.385,31.965,6.447,41.1.385c0,0,.98-53.818,0-59.164s-10.488-29.378-12.443-31.52S2008.494,1168.043,2008.494,1168.043Z" transform="translate(-1875.667 -1037.525)" fill="#d9f0f3"/>
  <path id="Path_6732" data-name="Path 6732" d="M2029,1134.729s-.072.4-.2,1.085c-.606,3.281-2.946,14.155-4.521,17.145-1.905,3.612,6.53,15.141,14.651,13.731,2.417-.419-2.042-10.587-1.828-11.666.413-2.065.969-4.878,1.536-7.763.319-1.63.645-3.276.953-4.828.87-4.4,1.574-8.011,1.574-8.011Z" transform="translate(-1891.639 -1022.435)" fill="#f9e7cf"/>
  <path id="Path_6733" data-name="Path 6733" d="M2032.413,1135.817c.127-.683.2-1.085.2-1.085l12.167-.3s-.71,3.606-1.574,8.011c-.3,1.541-.627,3.182-.947,4.8a11.393,11.393,0,0,1-5.809-2.918,15.376,15.376,0,0,1-4.4-6.563C2032.193,1136.99,2032.32,1136.324,2032.413,1135.817Z" transform="translate(-1895.254 -1022.439)" fill="#f9e7cf"/>
  <path id="Path_6734" data-name="Path 6734" d="M2037.059,1084.6a10.951,10.951,0,0,0-9.333,4c-3.6,4.657-7.471,19.071,1.459,26.906s17.756-1.035,19.061-10.438S2050.069,1084.261,2037.059,1084.6Z" transform="translate(-1891.509 -1000.031)" fill="#f9e7cf"/>
  <path id="Path_6735" data-name="Path 6735" d="M2033.321,1081.71s-7.663,13.7-13.142,14.337-6.2,7.917-6.2,7.917,1.96-16.781,7.389-20.019S2033.321,1081.71,2033.321,1081.71Z" transform="translate(-1887.134 -998.68)"/>
  <path id="Path_6736" data-name="Path 6736" d="M2046.569,1128.97l7.256.286a3.174,3.174,0,0,1-3.473,2.714C2046.46,1131.932,2046.569,1128.97,2046.569,1128.97Z" transform="translate(-1901.78 -1019.985)" fill="#fff9f0"/>
  <path id="Path_6737" data-name="Path 6737" d="M2162.1,1242.581a19.069,19.069,0,0,1,3.556.793c1.234.5,11.017,7.906,11.017,7.906s1.311.716,2,.149a1.568,1.568,0,0,0,.645-1.234s1.161.645,1.949.2a1.327,1.327,0,0,0,.667-1.558,2.226,2.226,0,0,0,1.8-.248c.666-.567.32-2.026.32-2.026s2.1,1.283,2.912.418.468-1.778-.347-2.472-5.654-3.9-6.221-4.272-2.175-2.075-2.665-2.3-1.707-.886-1.707-.886-2.025.22-2.146.3-.695,1.481-1.707,1.85a2.587,2.587,0,0,1-2.246-.3,1.883,1.883,0,0,1-.023-.765,17.23,17.23,0,0,0,.963-2.247c.171-.865.4-1.112.716-1.31s2.076-.716,2.94-1.062,4.492.666,4.492.666l1.729.743s-.319-1.277-1.409-1.481-2.445-.5-3.21-.572-2.543.468-3.358.517a13.111,13.111,0,0,0-3.26.518c-.914.347-6.448,0-6.794-.049C2162.72,1233.86,2160.324,1240.356,2162.1,1242.581Z" transform="translate(-1953.409 -1066.681)" fill="#f9e7cf"/>
  <path id="Path_6738" data-name="Path 6738" d="M2102.093,1218.115c-2.328-.055-29.2-.281-39.294-.364a11.125,11.125,0,0,1-6.788-2.384l-22.458-17.668-9.833,11.331,27.881,20.14a9.35,9.35,0,0,0,6.442,1.729c10.6-1.074,41.491-4.146,44.194-3.777Z" transform="translate(-1891.51 -1050.875)" fill="#f9e7cf"/>
  <path id="Path_6739" data-name="Path 6739" d="M2202.95,1222.447c2.329-.055,30.639-.463,40.731-.545a11.124,11.124,0,0,0,6.788-2.384l22.458-17.668,9.834,11.331-27.881,20.14a9.347,9.347,0,0,1-6.441,1.729c-10.6-1.073-39.646-3.915-42.344-3.546Z" transform="translate(-1972.063 -1052.74)" fill="#fcdfb9"/>
  <path id="Path_6740" data-name="Path 6740" d="M2033.723,1192.385s-18.8-19.776-25.6-24.764-20.476-.749-19.391,7.823c1.106,8.743,31.817,30.876,31.817,30.876Z" transform="translate(-1875.758 -1036.398)" fill="#d9f0f3"/>
  <path id="Path_6741" data-name="Path 6741" d="M2309.79,1192.385s18.8-19.776,25.6-24.764,20.475-.749,19.39,7.823c-1.106,8.743-31.816,30.876-31.816,30.876Z" transform="translate(-2020.08 -1036.398)" fill="#d9f0f3"/>
  <path id="Path_6742" data-name="Path 6742" d="M2342.494,1183.9c-.44,3.028-8.484,85.36-8.484,85.36,38.121,18.411,59.152,3.281,59.152,3.281s-1.25-57.814.248-65.682c.99-5.209.065-40.3-3.309-41.265a61.63,61.63,0,0,0-12.548-2.632c-4.619-.479-22.563-.76-25.772.32A40.885,40.885,0,0,0,2342.494,1183.9Z" transform="translate(-2030.966 -1035.073)" fill="#d9f0f3"/>
  <path id="Path_6743" data-name="Path 6743" d="M2390.384,1131.75l2.8,17.145s-10.269,21.819-16.4,19.98c-5.147-1.542-1.982-20.277-1.982-20.277s2.807-10.064,1.966-15.1S2390.384,1131.75,2390.384,1131.75Z" transform="translate(-2048.867 -1020.761)" fill="#fcdfb9"/>
  <path id="Path_6744" data-name="Path 6744" d="M2378.868,1133.491c-.843-5.037,13.61-1.75,13.61-1.75l.232,1.475a8.112,8.112,0,0,1-1.57,2.478,19.393,19.393,0,0,1-12.642,5.484A26.1,26.1,0,0,0,2378.868,1133.491Z" transform="translate(-2050.96 -1020.757)" fill="#fcdfb9"/>
  <path id="Path_6745" data-name="Path 6745" d="M2388.052,1082.365c.406-.143,3.275,20.255-2.165,25.871s-16.038,7.449-19.836,3.028c-4.206-4.889-3.991-26.812,4.465-32.588S2388.052,1082.365,2388.052,1082.365Z" transform="translate(-2044.162 -996.542)" fill="#fcdfb9"/>
  <path id="Path_6746" data-name="Path 6746" d="M2389.446,1069.024c2.968.336,7,1.911,11.165,8.523,5.12,8.131,1.338,17.144-4.625,21.565s-5.857,9.486-5.857,9.486l-.964-2.6a14.251,14.251,0,0,1-.749-6.222,11.6,11.6,0,0,1,.963-3.738c1.432-2.951-3.078-4.917-4.344-7.372-.974-1.894-1.024-6.216-2.554-9.343l-1.833-2.384s-4.228-3.16-8.368-2.268S2373.227,1056.2,2389.446,1069.024Z" transform="translate(-2047.549 -991.064)"/>
  <path id="Path_6747" data-name="Path 6747" d="M2397.079,1111.249c-.045,2.489,1.134,4.526,2.636,4.554s2.748-1.971,2.792-4.46-1.135-4.526-2.638-4.553S2397.123,1108.761,2397.079,1111.249Z" transform="translate(-2059.312 -1010.017)" fill="#fcdfb9"/>
  <path id="Path_6748" data-name="Path 6748" d="M2368.034,1123.42l8.986.914a3.953,3.953,0,0,1-4.52,3.105C2367.671,1127.087,2368.034,1123.42,2368.034,1123.42Z" transform="translate(-2046.255 -1017.491)" fill="#fff9f0"/>
  <path id="Path_6749" data-name="Path 6749" d="M2476.339,1291.416a2.43,2.43,0,0,0,.011-.562c-.595-6.028-5.6-56.625-6.441-58.778-.76-1.943-23.2-34.036-23.2-34.036l-11.028,15.025,21.582,28.784c.484,1.827,8.269,35.985,8.269,35.985s1.6,6.227,2.313,9.954c-.325.9-.645,1.745-.93,2.445a22.839,22.839,0,0,1-2.323,3.738,25.887,25.887,0,0,0-2.759,4.872c-.231.881-.639,2.7-.876,3.81s-.55,2.384-.605,2.984a5.707,5.707,0,0,1-.7,1.6.961.961,0,0,0,1.135,1.387c.781-.259,1.393-1.277,1.772-1.906,1.063-1.784,1.63-5.043,1.9-4.872s1.194,5.7,1.343,6.326,1.266,7.047,1.893,8.22,1.465.98,1.686.242c.192-.633-.694-9.618-.694-9.618s-.109-1.145.392-.787,1.32,8.512,1.672,9.707,1.146,1.828,1.823.87c.82-1.167-.589-9.817-.589-9.817s-.159-1.09.309-.985,1.046,7.053,1.409,7.653a.914.914,0,0,0,1.707-.187c.513-1.179-.814-8.892-.814-8.892s.066-.611.352-.408,1.211,6.095,1.812,6.64a.64.64,0,0,0,.925.011c1.1-.749-.59-6.354-.567-9.139s-1.278-5.918-.892-9.233C2476.229,1292.247,2476.295,1291.735,2476.339,1291.416Z" transform="translate(-2076.659 -1051.028)" fill="#fcdfb9"/>
  <path id="Path_6750" data-name="Path 6750" d="M2456.245,1204.861l-19.166,12.866s-10.8-16.077-16.6-21.8c-7.268-7.168,2.647-29.13,7.328-27.891C2438.274,1170.819,2456.245,1204.861,2456.245,1204.861Z" transform="translate(-2068.667 -1037.522)" fill="#d9f0f3"/>
  <path id="Path_6751" data-name="Path 6751" d="M2017.376,1112.215c1.15,2.274,3.336,3.4,4.878,2.521s1.861-3.435.716-5.709-3.336-3.4-4.877-2.521S2016.225,1109.941,2017.376,1112.215Z" transform="translate(-1888.349 -1009.755)" fill="#f9e7cf"/>
</svg>
