<svg width="574" height="482" viewBox="0 0 574 482" fill="none" xmlns="http://www.w3.org/2000/svg">
<g clip-path="url(#clip0_45_2)">
<path d="M292.505 54.4151C430.393 182.183 568.405 43.8791 568.405 199.735C568.405 355.591 442.059 481.935 286.205 481.935C130.351 481.935 4 355.592 4 199.735C4 43.8781 154.617 -73.3479 292.505 54.4151Z" fill="#DE8706"/>
<path d="M570.026 435.645H3.35699C2.46674 435.645 1.61302 435.291 0.983521 434.661C0.354018 434.032 0.000265074 433.178 0 432.288V432.288C0.000265074 431.398 0.354018 430.544 0.983521 429.915C1.61302 429.285 2.46674 428.931 3.35699 428.931H570.029C570.919 428.931 571.773 429.285 572.402 429.915C573.032 430.544 573.386 431.398 573.386 432.288V432.288C573.385 433.179 573.031 434.033 572.401 434.662C571.771 435.292 570.917 435.645 570.026 435.645V435.645Z" fill="#033E47"/>
<path d="M515.804 411.876H61.0038C58.0651 411.876 55.2467 410.708 53.1687 408.63C51.0907 406.552 49.9231 403.734 49.9229 400.795V118.558C49.9231 115.619 51.0907 112.801 53.1687 110.723C55.2467 108.645 58.0651 107.477 61.0038 107.477H515.804C518.743 107.477 521.561 108.645 523.639 110.723C525.717 112.801 526.885 115.619 526.885 118.558V400.795C526.885 402.25 526.598 403.691 526.042 405.036C525.485 406.38 524.669 407.602 523.64 408.631C522.611 409.66 521.389 410.476 520.045 411.033C518.7 411.59 517.259 411.876 515.804 411.876V411.876Z" fill="#B3D1FF"/>
<path d="M61.0054 409.82C58.6132 409.817 56.3198 408.865 54.6284 407.174C52.937 405.482 51.9858 403.188 51.9834 400.796V118.558C51.9863 116.166 52.9378 113.873 54.6291 112.182C56.3204 110.49 58.6135 109.539 61.0054 109.536H515.805C518.197 109.539 520.49 110.49 522.182 112.182C523.873 113.873 524.824 116.166 524.827 118.558V400.796C524.825 403.188 523.873 405.482 522.182 407.174C520.491 408.865 518.198 409.817 515.805 409.821L61.0054 409.82Z" fill="black"/>
<path d="M511.256 119.785H66.0342V398.156H511.256V119.785Z" fill="#FEFBF8"/>
<path d="M559.51 411.873V419.287C559.511 419.66 559.488 420.033 559.442 420.404C559.17 422.753 558.043 424.921 556.277 426.494C554.51 428.066 552.228 428.935 549.862 428.935H20.7925C18.4277 428.935 16.1452 428.066 14.3794 426.493C12.6136 424.92 11.4875 422.753 11.2155 420.404C11.1695 420.034 11.1468 419.66 11.1475 419.287V411.873H559.51Z" fill="#00778A"/>
<path d="M559.439 420.404C559.166 422.753 558.039 424.921 556.273 426.494C554.507 428.066 552.224 428.935 549.859 428.935H20.7957C18.4309 428.935 16.1485 428.066 14.3827 426.493C12.6169 424.92 11.4908 422.753 11.2188 420.404H559.439Z" fill="#046372"/>
<path d="M340.95 343.286H120.894C118.005 343.284 115.235 342.136 113.193 340.093C111.15 338.051 110.002 335.281 110 332.392V204.892C110.002 202.004 111.151 199.234 113.193 197.192C115.236 195.15 118.006 194.002 120.894 194H340.946C343.835 194.002 346.605 195.15 348.647 197.193C350.69 199.235 351.838 202.005 351.84 204.894V332.394C351.839 335.282 350.692 338.052 348.65 340.095C346.608 342.137 343.838 343.285 340.95 343.286Z" fill="#B5E5EC"/>
<path d="M406.389 245.234L408.454 253.534L408.828 255.077C409.245 257.038 422.189 256.203 421.274 253.911L420.504 252.223L416.524 243.49L406.389 245.234Z" fill="#F7A58E"/>
<path d="M398.818 232.924C398.686 241.924 402.862 249.237 409.399 249.203C415.936 249.169 422.256 243.627 422.487 232.803C422.536 231.203 422.266 229.609 421.692 228.114C421.118 226.619 420.252 225.254 419.145 224.097C418.038 222.941 416.712 222.016 415.243 221.378C413.775 220.739 412.194 220.399 410.593 220.378C404.056 220.413 398.919 226.029 398.818 232.924Z" fill="#F7A58E"/>
<path d="M410.396 217.91C410.396 217.91 397.376 218.551 396.296 228.41C394.851 237.067 401.344 230.702 403.996 236.51C407.034 243.163 403.938 248.033 399.996 249.355C403.503 254.255 423.569 254.078 428.734 245.482C432.257 234.708 427.255 218.508 410.396 217.91Z" fill="black"/>
<path d="M405.271 238.216C406.292 237.348 406.417 235.816 405.549 234.795C404.681 233.773 403.149 233.649 402.128 234.517C401.106 235.385 400.982 236.916 401.85 237.938C402.718 238.959 404.249 239.084 405.271 238.216Z" fill="#F7A58E"/>
<path d="M403.257 403.529C402.646 402.881 399.768 402.872 399.504 403.829C399.24 404.786 399.75 405.468 398.534 406.983C399.838 407.195 401.167 407.195 402.471 406.983C403.233 406.76 403.868 404.173 403.257 403.529Z" fill="white"/>
<path d="M408.017 406.793H400.999C400.342 377.101 400.468 344.779 400.704 320.439C400.79 311.721 401.029 307.312 402.61 302.079C405.804 291.511 420.816 294.764 421.884 304.344C422.329 309.659 422.654 320.031 412.825 355.268C417.082 370.783 409.656 389.385 408.017 406.793Z" fill="#DE8706"/>
<path d="M397.07 407.248C398.104 407.193 400.516 406.198 400.97 405.511C401.642 406.26 403.038 406.469 404.723 406.217C406.715 405.917 406.975 404.996 408.405 405.117C409.005 406.793 410.473 410.549 409.059 411.417H394.308C392.99 410.218 393.027 407.65 397.07 407.248Z" fill="white"/>
<path d="M438.98 404.278C438.468 403.735 436.046 403.726 435.826 404.53C435.606 405.334 436.032 405.908 435.01 407.181C436.106 407.358 437.224 407.358 438.321 407.181C438.958 406.997 439.489 404.824 438.98 404.278Z" fill="white"/>
<path d="M415.858 304.075C417.294 293.129 436.768 294.252 438.058 303.811C438.524 308.954 439.958 316.696 436.294 354.894C444.015 369.473 441.833 390.389 444.138 405.787C444.393 408.128 437.755 408.693 437.238 406.603C430.165 378.034 420.284 345.982 416.608 322.216C415.281 313.603 415.146 309.497 415.858 304.075Z" fill="#DE8706"/>
<path d="M433.76 406.793C434.975 406.467 436.04 405.73 436.773 404.706C437.206 405.239 437.766 405.656 438.401 405.919C439.036 406.182 439.726 406.283 440.41 406.213C442.401 405.913 442.662 404.992 444.092 405.113C444.692 406.788 446.16 410.545 444.746 411.413H430.397C429.077 410.218 429.715 407.199 433.76 406.793Z" fill="white"/>
<path d="M353.812 288.602L353.085 284.953C354.868 284.26 357.568 282.817 360.71 281.593L362.434 287.506C358.958 288.025 355.874 288.402 353.812 288.602Z" fill="#F7A58E"/>
<path d="M360.714 281.594C366.771 278.777 377.15 272.655 379.537 271.541L405.145 255.82C410.669 254.144 417.106 265.075 410.125 270.006C410.125 270.006 370.53 286.306 362.442 287.506L360.714 281.594Z" fill="#D9F0F3"/>
<path d="M351.223 291.536C348.747 290.793 347.887 287.145 347.823 286.869L352.948 285C355.44 283.994 356.87 287.007 355.296 289.182C355.295 289.179 353.583 292.085 351.223 291.536Z" fill="#F7A58E"/>
<path d="M349.013 288.292C343.094 289.562 343.324 288.114 343.324 288.114C343.324 288.114 345.324 287.451 348.924 286.466C351.011 286 350.437 287.829 349.013 288.292Z" fill="#F7A58E"/>
<path d="M400.858 271.442C399.627 265.452 398.968 259.542 405.142 255.82C408.803 253.62 420.568 252.039 426.067 253.862C431.609 256.338 430.412 267.143 431.449 284.205C435.269 292.721 436.929 295.516 438.059 303.81C438.059 303.81 436.015 310.058 421.62 310.067C415.084 310.067 405.454 309.49 401.076 306.154C401.512 300.499 403.876 295.049 404.863 287.043C404.863 287.043 400.947 272.13 400.858 271.442Z" fill="#D9F0F3"/>
<path d="M429.022 255.068C435.779 260.226 442.371 268.34 445.485 272.645C448.599 276.95 456.667 294.267 456.667 294.267L451.533 298.054L437.644 279.13L420.677 265.214C414.79 259.202 422.443 250.042 429.022 255.068Z" fill="#D9F0F3"/>
<path d="M458.819 298.659L455.49 291.782C454.707 293.85 450.896 295.738 449.804 295.698C449.804 295.698 453.382 300.847 454.257 301.722C455.132 302.597 458.745 301.114 458.819 298.659Z" fill="#F7A58E"/>
<path d="M453.414 300.57C453.426 300.622 453.414 300.69 453.426 300.742C453.493 301.57 453.767 302.367 454.224 303.061C454.68 303.754 455.304 304.321 456.037 304.71C456.077 304.739 456.124 304.757 456.172 304.762C454.362 304.4 453.822 306.824 454.742 307.383C457.406 309.183 461.199 306.705 461.521 305.204C461.846 303.679 458.814 298.628 458.814 298.628C457.265 297.379 453.303 297.572 453.414 300.57Z" fill="#F7A58E"/>
<path d="M453.426 300.741C453.479 301.588 453.757 302.405 454.232 303.109C454.706 303.812 455.36 304.375 456.126 304.741C457.617 304.701 458.148 304.609 459.572 304.612C458.642 304.158 456.74 302.955 457.472 300.612C456.019 299.502 453.825 300.477 453.426 300.741Z" fill="#F7A58E"/>
<path d="M453.386 300.422C452.997 302.794 453.109 305.221 453.714 307.547C453.714 307.547 455.144 307.621 455.014 304.92C454.98 304.22 455.082 302.689 455.778 302.18C457.92 300.765 458.267 299.464 457.478 298.399C456.43 296.98 453.469 298.418 453.386 300.422Z" fill="#F7A58E"/>
<path d="M460.017 306.802C458.854 307.609 455.776 309.171 455.291 308.784C454.806 308.397 457.267 305.784 458.854 305.433C460.441 305.082 460.612 306.388 460.017 306.802Z" fill="#F7A58E"/>
<path d="M372.46 107.455C375.783 102.64 372.724 87.6553 358.532 83.3553C346.543 80.2623 340.301 84.0553 324.084 88.4703L326.505 107.453H372.461L372.46 107.455Z" fill="#D9F0F3"/>
<path d="M343.528 84.1392C343.528 84.1392 314.474 90.1392 303.749 94.0842C297.599 96.3462 296.074 101.433 298.443 105.346C301.953 111.146 343.635 107.031 343.635 107.031C358.015 103.008 350.405 83.8882 343.528 84.1392Z" fill="#D9F0F3"/>
<path d="M357.052 82.5102C357.052 82.5102 375.605 88.8042 386.042 93.4622C396.168 94.2622 395.506 106.835 390.709 107.645C379.687 110.637 355.401 105.345 355.401 105.345C341.325 100.36 350.209 81.7982 357.052 82.5102Z" fill="#D9F0F3"/>
<path d="M327.633 95.4501C327.633 95.4501 321.784 86.5501 336.302 79.6501C350.82 72.7501 360.584 79.6501 358.166 87.9941C355.748 96.3381 347.189 101.907 347.189 101.907C347.189 101.907 332.714 101.984 327.633 95.4501Z" fill="#D9F0F3"/>
<path d="M343.977 94.263C350.964 89.415 348.157 79.976 348.157 79.976L345.512 74.928L343.312 70.728L331.657 75.217L333.777 83.846C334.24 85.3336 334.858 86.7685 335.621 88.127C337.223 90.988 339.935 94.247 343.977 94.263Z" fill="#F7A28A"/>
<path d="M335.615 88.119C340.293 84.9446 343.778 80.2989 345.515 74.919L343.315 70.719L331.66 75.208L333.78 83.837C334.238 85.3256 334.853 86.761 335.615 88.119V88.119Z" fill="#F0896C"/>
<path d="M318.237 59.6241C317.398 59.9053 316.66 60.4266 316.115 61.1232C315.569 61.8199 315.24 62.6612 315.168 63.5431C314.781 66.7431 317.968 68.0541 317.968 68.0541C317.968 68.0541 315.884 72.0541 320.285 73.6701C329.253 76.9681 328.379 57.6231 318.237 59.6241Z" fill="#3D3D3D"/>
<path d="M320.795 69.9501C323.544 78.0601 329.264 85.6551 333.867 83.7651C341.674 80.5581 348.225 71.8371 344.985 62.6531C341.745 53.4691 334.785 49.2531 327.399 51.8531C320.013 54.4531 317.668 60.7261 320.795 69.9501Z" fill="#F7A28A"/>
<path d="M317.034 59.4771C318.682 60.8771 324.792 63.2511 337.422 57.1331C339.552 58.7898 341.188 60.9984 342.151 63.5191C343.342 63.2371 343.823 62.6191 344.643 63.6361C345.775 65.0451 346.374 68.1251 344.965 69.2611C344.62 69.5395 344.221 69.7437 343.793 69.8611C343.287 72.0211 343.768 74.3961 345.508 74.9241C348.196 72.7611 347.871 72.2601 348.862 69.7721C351.998 67.5721 352.004 62.7421 349.479 61.4221C351.879 59.1761 348.979 54.2541 345.435 54.0881C345.46 51.3661 341.995 46.5021 337.635 49.3471C337.761 46.4201 332.446 44.4991 329.573 48.8101C327.256 45.6491 320.226 47.5611 320.496 51.7621C316.252 51.0231 313.913 56.7401 317.034 59.4771Z" fill="#3D3D3D"/>
<path d="M298.454 103.165C298.454 103.165 297.718 110.217 310.713 111.349C319.787 112.126 328.896 112.43 338.002 112.26L339.334 106.672C339.334 106.672 313.082 97.767 306.656 97.38C299.003 96.917 298.454 103.165 298.454 103.165Z" fill="#F7A28A"/>
<path d="M339.014 106.565L347.306 104.834C347.306 104.834 352.648 107.39 354.306 110.713C353.091 112.076 349.774 109.203 349.774 109.203C349.774 109.203 350.109 114.76 349.295 115.816C348.481 116.872 344.41 117.574 343.075 116.43C341.74 115.286 344.063 113.92 344.063 113.92L338 112.263C338 112.263 335.175 108.029 339.014 106.565Z" fill="#F7A28A"/>
<path d="M343.534 59.2502C343.534 59.2053 343.521 59.1614 343.496 59.1241C343.471 59.0868 343.435 59.0577 343.394 59.0405C343.352 59.0233 343.307 59.0188 343.263 59.0275C343.219 59.0363 343.178 59.0579 343.147 59.0897C343.115 59.1214 343.093 59.1619 343.084 59.206C343.076 59.25 343.08 59.2956 343.097 59.3371C343.115 59.3785 343.144 59.414 343.181 59.4389C343.218 59.4639 343.262 59.4772 343.307 59.4772C343.337 59.4773 343.367 59.4716 343.394 59.4602C343.422 59.4489 343.447 59.4321 343.468 59.411C343.489 59.3899 343.506 59.3648 343.517 59.3372C343.528 59.3096 343.534 59.2801 343.534 59.2502V59.2502Z" fill="#F7A28A"/>
<path d="M391.273 99.1332C391.273 99.1332 395.649 104.712 385.249 112.586C377.981 118.076 370.432 123.182 362.633 127.886L358.533 123.863C358.533 123.863 376.018 102.352 381.25 98.6052C387.484 94.1342 391.273 99.1332 391.273 99.1332Z" fill="#F7A28A"/>
<path d="M358.524 123.85L353.897 130.945C353.897 130.945 354.336 136.845 356.828 139.605C358.54 138.967 357.068 134.833 357.068 134.833C357.068 134.833 362.122 137.165 363.401 136.791C364.68 136.417 366.817 132.879 366.234 131.218C365.651 129.557 363.533 131.227 363.533 131.227L364.533 125.946C365.361 123.003 360.464 120.88 358.524 123.85Z" fill="#F7A28A"/>
<path d="M129.595 229.967C130.395 237.54 126.582 245.611 121.782 245.553C115.197 245.473 106.682 240.053 105.882 232.481C105.082 224.909 109.736 218.209 116.288 217.512C122.84 216.815 128.791 222.397 129.595 229.967Z" fill="#F7B28A"/>
<path d="M88.7817 404.281C92.8729 403.848 96.9984 403.848 101.09 404.281C105.561 407.233 107.49 407.061 107.49 407.061C109.402 407.561 110.252 410.185 108.59 410.185H88.2236L88.7817 404.281Z" fill="white"/>
<path d="M121.775 404.281C125.866 403.845 129.992 403.845 134.083 404.281C139.008 407.233 140.911 407.061 140.911 407.061C142.899 407.561 144.155 410.185 142.494 410.185H122.125L121.775 404.281Z" fill="white"/>
<path d="M115.439 254.515L102.634 250.194L111.91 230.874L120.91 235.198L115.439 254.515Z" fill="#F7B28A"/>
<path d="M128.15 268.067C128.15 268.067 138.083 275.346 133.235 283.067C129.62 288.824 118.055 282.588 118.055 275.893C118.057 269.859 122.703 266.3 128.15 268.067Z" fill="#D9F0F3"/>
<path d="M97.4636 298.029C97.4636 298.029 95.0766 302.169 93.4776 310.417C92.9096 313.348 93.5776 326.604 93.3856 348.931C90.4717 368.067 88.7481 387.366 88.2246 406.716L101.092 404.279L120.792 299.231L97.4636 298.029Z" fill="#DE8706"/>
<path d="M126.592 300.708C129.121 320.528 130.949 338.32 131.112 351.298L134.085 404.281L121.85 406.62C119.343 390.178 115.167 369.643 114.507 350.596L101.168 300.861L126.592 300.708Z" fill="#DE8706"/>
<path d="M93.6579 299.689C94.5049 304.814 94.9679 305.157 94.9679 305.157L127.563 305.878C127.563 305.878 126.593 300.704 127.413 298.028C127.601 296.581 127.592 295.115 127.385 293.671C127.075 290.354 126.372 285.515 125.427 280.215C123.392 268.827 120.244 255.322 117.473 250.25L103.242 246.835C103.242 246.835 96.896 253.27 95.5 258.968C94.104 264.666 92.8079 294.571 93.6579 299.689Z" fill="#B5E5EC"/>
<path d="M116.584 276.475L127.384 293.675C127.074 290.358 126.371 285.519 125.426 280.219L116.584 276.475Z" fill="#D9F0F3"/>
<path d="M112.692 272.188C112.692 272.188 108.865 280.433 112.839 282.64C116.813 284.847 120.79 277.782 120.79 277.782L112.692 272.188Z" fill="#F7B28A"/>
<path d="M128.457 250.22L125.701 268.009L117.127 257.916C117.127 257.916 109.422 250.103 103.235 257.155C97.0479 264.207 106.709 271.261 106.709 271.261C106.709 271.261 120.816 282.744 129.822 281.55C138.828 280.356 133.207 250.55 133.207 250.55L128.457 250.22Z" fill="#D9F0F3"/>
<path d="M128.456 250.217L127.066 243.441L130.607 238.062C130.607 238.062 131.927 237.089 132.407 240.075C133.377 241.465 134.561 242.493 134.42 244.061C134.279 245.629 133.202 250.551 133.202 250.551L128.456 250.217Z" fill="#F7B28A"/>
<path d="M103.245 246.841L104.252 244.236L119.325 250.22L120.509 256.765L103.245 246.841Z" fill="#B5E5EC"/>
<path d="M107.479 240.235C107.479 240.235 102.563 233.159 104.1 224.695C105.637 216.231 118.176 214.464 118.176 214.464C118.176 214.464 131.251 213.694 134.176 227.002C132.792 228.773 127.1 225.848 127.1 225.848L117.744 234.385C117.744 234.385 117.854 227.692 114.556 229.385C111.258 231.078 112.242 236.461 112.242 236.461C112.242 236.461 109.164 239.698 107.479 240.235Z" fill="black"/>
<rect x="213" y="252" width="46" height="35" rx="3" stroke="white" stroke-width="6"/>
<path d="M236 279.5L248 274.5V269H270V300H236V279.5Z" fill="#B5E5EC"/>
<rect x="251" y="275" width="6" height="23" fill="#1B94A7"/>
<rect x="265" y="284" width="6" height="23" transform="rotate(90 265 284)" fill="#1B94A7"/>
<path d="M214.5 255.5L236 269V275L214.5 261.5V255.5Z" fill="white"/>
<path d="M257.5 255.5L236 269V275L257.5 261.5V255.5Z" fill="white"/>
<path d="M199 243C199 239.686 201.686 237 205 237H251V243.5H205V281H199V243Z" fill="white"/>
</g>
<defs>
<clipPath id="clip0_45_2">
<rect width="573.386" height="481.938" fill="white"/>
</clipPath>
</defs>
</svg>
