<svg width="24" height="24" viewBox="0 0 24 24" fill="none" xmlns="http://www.w3.org/2000/svg">
<path d="M20.5102 9.20541L20.5082 9.22677L20.5224 9.24292L22.9336 12L20.5224 14.7571L20.5082 14.7732L20.5102 14.7946L20.8462 18.4409L17.2789 19.2512L17.2579 19.256L17.247 19.2745L15.3794 22.4267L12.0197 20.9841L11.9999 20.9756L11.9802 20.9841L8.62057 22.4366L6.75302 19.2845L6.74205 19.266L6.72108 19.2612L3.1538 18.4509L3.48979 14.7946L3.49175 14.7732L3.47764 14.7571L1.06637 11.9999L3.4777 9.23285L3.49175 9.21672L3.48979 9.19542L3.15381 5.53917L6.72095 4.73879L6.74201 4.73406L6.75302 4.71549L8.62063 1.56327L11.9803 3.00594L12 3.01442L12.0197 3.00594L15.3793 1.5633L17.247 4.72543L17.2579 4.74398L17.2789 4.74876L20.8462 5.55905L20.5102 9.20541ZM6.25464 12.8746L6.21934 12.91L6.2546 12.9453L10.0546 16.7553L10.09 16.72L10.1254 16.7553L17.4554 9.40531L17.4907 9.36995L17.4554 9.33464L15.9754 7.85464L15.9399 7.81923L15.9046 7.8547L10.09 13.6892L7.80543 11.3947L7.77008 11.3592L7.73464 11.3946L6.25464 12.8746Z" fill="#E8F3F4" stroke="#0D9CA7" stroke-width="0.1"/>
<rect x="6" y="7" width="12" height="10" fill="#E8F3F4"/>
</svg>
