<svg id="Component_9_1" data-name="Component 9 – 1" xmlns="http://www.w3.org/2000/svg" width="39" height="39" viewBox="0 0 39 39">
  <rect id="Rectangle_2146" data-name="Rectangle 2146" width="39" height="39" rx="19.5" fill="#de8706"/>
  <g id="whatsapp_1_" data-name="whatsapp (1)" transform="translate(9 9)">
    <path id="Path_4822" data-name="Path 4822" d="M244.722,27.91h1.3c.247.03.494.052.739.09a10.32,10.32,0,0,1,8.7,8.429c.064.371.1.746.155,1.119v1.3a1.741,1.741,0,0,0-.037.2,9.9,9.9,0,0,1-.84,3.312,10.394,10.394,0,0,1-14.23,4.95.492.492,0,0,0-.319-.036q-1.83.463-3.657.945c-.525.138-1.048.288-1.572.432l-.081-.081a1.421,1.421,0,0,0,.069-.163q.676-2.455,1.344-4.91a.5.5,0,0,0-.045-.334,10.245,10.245,0,0,1,7.316-15.083C243.949,28.006,244.337,27.964,244.722,27.91Zm-7.348,18.245c.093-.02.146-.028.2-.041.945-.245,1.892-.488,2.835-.74a.46.46,0,0,1,.393.061,8.4,8.4,0,0,0,6.34,1.062,8.544,8.544,0,0,0-2.809-16.836,8.526,8.526,0,0,0-6.2,13.188.388.388,0,0,1,.057.355c-.121.407-.231.817-.344,1.226C237.691,44.994,237.538,45.558,237.374,46.155Z" transform="translate(-234.88 -27.91)" fill="#fff"/>
    <path id="Path_4824" data-name="Path 4824" d="M303.076,101.758a5.093,5.093,0,0,1-1.9-.453,9.477,9.477,0,0,1-4.236-3.133,9.883,9.883,0,0,1-1.469-2.146,2.992,2.992,0,0,1-.139-2.578,6.169,6.169,0,0,1,.68-1.043.8.8,0,0,1,.637-.306c.229-.009.458-.005.687.006a.448.448,0,0,1,.378.325c.164.369.317.743.474,1.116.126.3.243.6.378.893a.527.527,0,0,1-.041.572c-.191.26-.386.518-.589.769s-.223.339-.048.63a7,7,0,0,0,3.443,2.972c.319.129.427.109.649-.16q.366-.445.724-.9c.159-.2.26-.254.506-.16.339.129.668.284,1,.435.226.1.444.228.672.328.162.071.337.113.5.178a.31.31,0,0,1,.206.317,1.977,1.977,0,0,1-.772,1.754A2.726,2.726,0,0,1,303.076,101.758Z" transform="translate(-289.936 -86.595)" fill="#fcfffd"/>
  </g>
</svg>
